Matias One.ufo
<glyph name="exclam" format="1">
  <advance width="270"/>
  <unicode hex="0021"/>
  <outline>
    <contour>
      <point x="135" y="100" type="curve" name="hr00"/>
      <point x="105" y="100"/>
      <point x="80" y="75"/>
      <point x="80" y="45" type="curve" smooth="yes"/>
      <point x="80" y="15"/>
      <point x="105" y="-10"/>
      <point x="135" y="-10" type="curve" smooth="yes"/>
      <point x="165" y="-10"/>
      <point x="190" y="15"/>
      <point x="190" y="45" type="curve" smooth="yes"/>
      <point x="190" y="75"/>
      <point x="165" y="100"/>
    </contour>
    <contour>
      <point x="185" y="650" type="line"/>
      <point x="185" y="675"/>
      <point x="160" y="700"/>
      <point x="135" y="700" type="curve" smooth="yes"/>
      <point x="110" y="700"/>
      <point x="85" y="675"/>
      <point x="85" y="650" type="curve" smooth="yes"/>
      <point x="85" y="240" type="line" smooth="yes"/>
      <point x="85" y="215"/>
      <point x="110" y="190"/>
      <point x="135" y="190" type="curve" smooth="yes"/>
      <point x="160" y="190"/>
      <point x="185" y="215"/>
      <point x="185" y="240" type="curve"/>
    </contour>
  </outline>
</glyph>
<glyph name="quotedbl" format="1">
  <advance width="365"/>
  <unicode hex="0022"/>
  <outline>
    <contour>
      <point x="180" y="630" type="line" name="hr00"/>
      <point x="180" y="630"/>
      <point x="185" y="645"/>
      <point x="185" y="655" type="curve" smooth="yes"/>
      <point x="185" y="680"/>
      <point x="165" y="700"/>
      <point x="135" y="700" type="curve" smooth="yes"/>
      <point x="100" y="700"/>
      <point x="90" y="670"/>
      <point x="90" y="670" type="curve"/>
      <point x="35" y="540" type="line"/>
      <point x="35" y="540"/>
      <point x="30" y="525"/>
      <point x="30" y="515" type="curve" smooth="yes"/>
      <point x="30" y="490"/>
      <point x="50" y="470"/>
      <point x="80" y="470" type="curve" smooth="yes"/>
      <point x="115" y="470"/>
      <point x="125" y="500"/>
      <point x="125" y="500" type="curve"/>
    </contour>
    <contour>
      <point x="330" y="630" type="line"/>
      <point x="330" y="630"/>
      <point x="335" y="645"/>
      <point x="335" y="655" type="curve" smooth="yes"/>
      <point x="335" y="680"/>
      <point x="315" y="700"/>
      <point x="285" y="700" type="curve" smooth="yes"/>
      <point x="250" y="700"/>
      <point x="240" y="670"/>
      <point x="240" y="670" type="curve"/>
      <point x="185" y="540" type="line"/>
      <point x="185" y="540"/>
      <point x="180" y="525"/>
      <point x="180" y="515" type="curve" smooth="yes"/>
      <point x="180" y="490"/>
      <point x="200" y="470"/>
      <point x="230" y="470" type="curve" smooth="yes"/>
      <point x="265" y="470"/>
      <point x="275" y="500"/>
      <point x="275" y="500" type="curve"/>
    </contour>
  </outline>
</glyph>
<glyph name="numbersign" format="1">
  <advance width="580"/>
  <unicode hex="0023"/>
  <outline>
    <contour>
      <point x="260" y="420" type="line" name="hr00"/>
      <point x="350" y="420" type="line"/>
      <point x="320" y="280" type="line"/>
      <point x="229" y="280" type="line"/>
    </contour>
    <contour>
      <point x="420" y="280" type="line"/>
      <point x="450" y="420" type="line"/>
      <point x="520" y="420" type="line" smooth="yes"/>
      <point x="545" y="420"/>
      <point x="570" y="445"/>
      <point x="570" y="470" type="curve" smooth="yes"/>
      <point x="570" y="495"/>
      <point x="545" y="520"/>
      <point x="520" y="520" type="curve" smooth="yes"/>
      <point x="470" y="520" type="line"/>
      <point x="490" y="615" type="line"/>
      <point x="490" y="615"/>
      <point x="495" y="640"/>
      <point x="495" y="655" type="curve" smooth="yes"/>
      <point x="495" y="680"/>
      <point x="475" y="700"/>
      <point x="450" y="700" type="curve" smooth="yes"/>
      <point x="420" y="700"/>
      <point x="404" y="685"/>
      <point x="399" y="660" type="curve" smooth="yes"/>
      <point x="370" y="520" type="line"/>
      <point x="280" y="520" type="line"/>
      <point x="300" y="615" type="line"/>
      <point x="300" y="615"/>
      <point x="305" y="640"/>
      <point x="305" y="655" type="curve" smooth="yes"/>
      <point x="305" y="680"/>
      <point x="285" y="700"/>
      <point x="260" y="700" type="curve" smooth="yes"/>
      <point x="230" y="700"/>
      <point x="214" y="685"/>
      <point x="209" y="660" type="curve" smooth="yes"/>
      <point x="180" y="520" type="line"/>
      <point x="115" y="520" type="line" smooth="yes"/>
      <point x="90" y="520"/>
      <point x="65" y="495"/>
      <point x="65" y="470" type="curve" smooth="yes"/>
      <point x="65" y="445"/>
      <point x="90" y="420"/>
      <point x="115" y="420" type="curve" smooth="yes"/>
      <point x="160" y="420" type="line"/>
      <point x="130" y="280" type="line"/>
      <point x="60" y="280" type="line" smooth="yes"/>
      <point x="35" y="280"/>
      <point x="10" y="255"/>
      <point x="10" y="230" type="curve" smooth="yes"/>
      <point x="10" y="205"/>
      <point x="35" y="180"/>
      <point x="60" y="180" type="curve" smooth="yes"/>
      <point x="110" y="180" type="line"/>
      <point x="90" y="85" type="line"/>
      <point x="90" y="85"/>
      <point x="85" y="60"/>
      <point x="85" y="45" type="curve" smooth="yes"/>
      <point x="85" y="20"/>
      <point x="105" y="0"/>
      <point x="130" y="0" type="curve" smooth="yes"/>
      <point x="160" y="0"/>
      <point x="176" y="15"/>
      <point x="181" y="40" type="curve" smooth="yes"/>
      <point x="210" y="180" type="line"/>
      <point x="300" y="180" type="line"/>
      <point x="280" y="85" type="line"/>
      <point x="280" y="85"/>
      <point x="275" y="60"/>
      <point x="275" y="45" type="curve" smooth="yes"/>
      <point x="275" y="20"/>
      <point x="295" y="0"/>
      <point x="320" y="0" type="curve" smooth="yes"/>
      <point x="350" y="0"/>
      <point x="366" y="15"/>
      <point x="371" y="40" type="curve" smooth="yes"/>
      <point x="400" y="180" type="line"/>
      <point x="465" y="180" type="line" smooth="yes"/>
      <point x="490" y="180"/>
      <point x="515" y="205"/>
      <point x="515" y="230" type="curve" smooth="yes"/>
      <point x="515" y="255"/>
      <point x="490" y="280"/>
      <point x="465" y="280" type="curve" smooth="yes"/>
    </contour>
  </outline>
</glyph>
<glyph name="dollar" format="1">
  <advance width="480"/>
  <unicode hex="0024"/>
  <outline>
    <contour>
      <point x="290" y="740" type="line" smooth="yes" name="hr00"/>
      <point x="290" y="765"/>
      <point x="265" y="790"/>
      <point x="240" y="790" type="curve" smooth="yes"/>
      <point x="215" y="790"/>
      <point x="190" y="765"/>
      <point x="190" y="740" type="curve" smooth="yes"/>
      <point x="190" y="700" type="line"/>
      <point x="110" y="675"/>
      <point x="50" y="615"/>
      <point x="50" y="510" type="curve" smooth="yes"/>
      <point x="50" y="270"/>
      <point x="340" y="340"/>
      <point x="340" y="200" type="curve" smooth="yes"/>
      <point x="340" y="135"/>
      <point x="295" y="90"/>
      <point x="230" y="90" type="curve" smooth="yes"/>
      <point x="175" y="90"/>
      <point x="145" y="120"/>
      <point x="130" y="160" type="curve"/>
      <point x="130" y="160"/>
      <point x="120" y="190"/>
      <point x="85" y="190" type="curve" smooth="yes"/>
      <point x="60" y="190"/>
      <point x="40" y="170"/>
      <point x="40" y="140" type="curve" smooth="yes"/>
      <point x="40" y="125"/>
      <point x="45" y="110"/>
      <point x="45" y="110" type="curve"/>
      <point x="60" y="55"/>
      <point x="110" y="5"/>
      <point x="190" y="-5" type="curve"/>
      <point x="190" y="-40" type="line" smooth="yes"/>
      <point x="190" y="-65"/>
      <point x="215" y="-90"/>
      <point x="240" y="-90" type="curve" smooth="yes"/>
      <point x="265" y="-90"/>
      <point x="290" y="-65"/>
      <point x="290" y="-40" type="curve" smooth="yes"/>
      <point x="290" y="0" type="line"/>
      <point x="380" y="30"/>
      <point x="440" y="90"/>
      <point x="440" y="200" type="curve" smooth="yes"/>
      <point x="440" y="440"/>
      <point x="150" y="370"/>
      <point x="150" y="510" type="curve" smooth="yes"/>
      <point x="150" y="570"/>
      <point x="190" y="610"/>
      <point x="250" y="610" type="curve" smooth="yes"/>
      <point x="300" y="610"/>
      <point x="330" y="580"/>
      <point x="340" y="550" type="curve"/>
      <point x="340" y="550"/>
      <point x="350" y="520"/>
      <point x="385" y="520" type="curve" smooth="yes"/>
      <point x="410" y="520"/>
      <point x="430" y="540"/>
      <point x="430" y="570" type="curve" smooth="yes"/>
      <point x="430" y="585"/>
      <point x="425" y="600"/>
      <point x="425" y="600" type="curve"/>
      <point x="410" y="645"/>
      <point x="365" y="690"/>
      <point x="290" y="705" type="curve"/>
    </contour>
  </outline>
</glyph>
<glyph name="ampersand" format="1">
  <advance width="530"/>
  <unicode hex="0026"/>
  <outline>
    <contour>
      <point x="490" y="0" type="curve" smooth="yes" name="hr00"/>
      <point x="520" y="0"/>
      <point x="540" y="20"/>
      <point x="540" y="50" type="curve" smooth="yes"/>
      <point x="540" y="70"/>
      <point x="525" y="85"/>
      <point x="525" y="85" type="curve"/>
      <point x="485" y="130" type="line"/>
      <point x="515" y="180" type="line"/>
      <point x="515" y="180"/>
      <point x="520" y="190"/>
      <point x="520" y="206" type="curve" smooth="yes"/>
      <point x="520" y="236"/>
      <point x="500" y="255"/>
      <point x="470" y="255" type="curve" smooth="yes"/>
      <point x="440" y="255"/>
      <point x="430" y="230"/>
      <point x="430" y="230" type="curve"/>
      <point x="420" y="210" type="line"/>
      <point x="285" y="365" type="line"/>
      <point x="285" y="365"/>
      <point x="410" y="450"/>
      <point x="410" y="560" type="curve" smooth="yes"/>
      <point x="410" y="640"/>
      <point x="340" y="710"/>
      <point x="260" y="710" type="curve" smooth="yes"/>
      <point x="165" y="710"/>
      <point x="90" y="635"/>
      <point x="90" y="540" type="curve" smooth="yes"/>
      <point x="90" y="440"/>
      <point x="145" y="380"/>
      <point x="145" y="380" type="curve"/>
      <point x="145" y="380"/>
      <point x="40" y="310"/>
      <point x="40" y="190" type="curve" smooth="yes"/>
      <point x="40" y="80"/>
      <point x="130" y="-10"/>
      <point x="250" y="-10" type="curve" smooth="yes"/>
      <point x="360" y="-10"/>
      <point x="420" y="55"/>
      <point x="420" y="55" type="curve"/>
      <point x="450" y="20" type="line"/>
      <point x="450" y="20"/>
      <point x="470" y="0"/>
    </contour>
    <contour>
      <point x="355" y="130" type="line"/>
      <point x="355" y="130"/>
      <point x="320" y="90"/>
      <point x="250" y="90" type="curve" smooth="yes"/>
      <point x="180" y="90"/>
      <point x="140" y="130"/>
      <point x="140" y="190" type="curve" smooth="yes"/>
      <point x="140" y="260"/>
      <point x="205" y="305"/>
      <point x="205" y="305" type="curve"/>
    </contour>
    <contour>
      <point x="260" y="610" type="curve" smooth="yes"/>
      <point x="285" y="610"/>
      <point x="310" y="585"/>
      <point x="310" y="560" type="curve" smooth="yes"/>
      <point x="310" y="490"/>
      <point x="225" y="435"/>
      <point x="225" y="435" type="curve"/>
      <point x="225" y="435"/>
      <point x="190" y="480"/>
      <point x="190" y="540" type="curve" smooth="yes"/>
      <point x="190" y="580"/>
      <point x="220" y="610"/>
    </contour>
  </outline>
</glyph>
<glyph name="quotesingle" format="1">
  <advance width="215"/>
  <unicode hex="0027"/>
  <outline>
    <contour>
      <point x="180" y="630" type="line" name="hr00"/>
      <point x="180" y="630"/>
      <point x="185" y="645"/>
      <point x="185" y="655" type="curve" smooth="yes"/>
      <point x="185" y="680"/>
      <point x="165" y="700"/>
      <point x="135" y="700" type="curve" smooth="yes"/>
      <point x="100" y="700"/>
      <point x="90" y="670"/>
      <point x="90" y="670" type="curve"/>
      <point x="35" y="540" type="line"/>
      <point x="35" y="540"/>
      <point x="30" y="525"/>
      <point x="30" y="515" type="curve" smooth="yes"/>
      <point x="30" y="490"/>
      <point x="50" y="470"/>
      <point x="80" y="470" type="curve" smooth="yes"/>
      <point x="115" y="470"/>
      <point x="125" y="500"/>
      <point x="125" y="500" type="curve"/>
    </contour>
  </outline>
</glyph>
<glyph name="parenleft" format="1">
  <advance width="350"/>
  <unicode hex="0028"/>
  <outline>
    <contour>
      <point x="170" y="315" type="curve" name="hr00"/>
      <point x="170" y="620"/>
      <point x="230" y="680"/>
      <point x="290" y="680" type="curve" smooth="yes"/>
      <point x="315" y="680"/>
      <point x="340" y="705"/>
      <point x="340" y="730" type="curve" smooth="yes"/>
      <point x="340" y="755"/>
      <point x="315" y="780"/>
      <point x="290" y="780" type="curve" smooth="yes"/>
      <point x="170" y="780"/>
      <point x="70" y="680"/>
      <point x="70" y="315" type="curve" smooth="yes"/>
      <point x="70" y="-50"/>
      <point x="170" y="-150"/>
      <point x="290" y="-150" type="curve" smooth="yes"/>
      <point x="315" y="-150"/>
      <point x="340" y="-125"/>
      <point x="340" y="-100" type="curve" smooth="yes"/>
      <point x="340" y="-75"/>
      <point x="315" y="-50"/>
      <point x="290" y="-50" type="curve" smooth="yes"/>
      <point x="230" y="-50"/>
      <point x="170" y="10"/>
    </contour>
  </outline>
</glyph>
<glyph name="parenright" format="1">
  <advance width="350"/>
  <unicode hex="0029"/>
  <outline>
    <contour>
      <point x="180" y="315" type="curve" name="hr00"/>
      <point x="180" y="10"/>
      <point x="120" y="-50"/>
      <point x="60" y="-50" type="curve" smooth="yes"/>
      <point x="35" y="-50"/>
      <point x="10" y="-75"/>
      <point x="10" y="-100" type="curve" smooth="yes"/>
      <point x="10" y="-125"/>
      <point x="35" y="-150"/>
      <point x="60" y="-150" type="curve" smooth="yes"/>
      <point x="180" y="-150"/>
      <point x="280" y="-50"/>
      <point x="280" y="315" type="curve" smooth="yes"/>
      <point x="280" y="680"/>
      <point x="180" y="780"/>
      <point x="60" y="780" type="curve" smooth="yes"/>
      <point x="35" y="780"/>
      <point x="10" y="755"/>
      <point x="10" y="730" type="curve" smooth="yes"/>
      <point x="10" y="705"/>
      <point x="35" y="680"/>
      <point x="60" y="680" type="curve" smooth="yes"/>
      <point x="120" y="680"/>
      <point x="180" y="620"/>
    </contour>
  </outline>
</glyph>
<glyph name="asterisk" format="1">
  <advance width="300"/>
  <unicode hex="002A"/>
  <outline>
    <contour>
      <point x="150" y="460" type="curve" name="hr00"/>
      <point x="170" y="460"/>
      <point x="185" y="475"/>
      <point x="185" y="495" type="curve" smooth="yes"/>
      <point x="185" y="530" type="line"/>
      <point x="210" y="515" type="line"/>
      <point x="210" y="515"/>
      <point x="225" y="505"/>
      <point x="235" y="505" type="curve" smooth="yes"/>
      <point x="255" y="505"/>
      <point x="270" y="520"/>
      <point x="270" y="540" type="curve" smooth="yes"/>
      <point x="270" y="560"/>
      <point x="250" y="570"/>
      <point x="250" y="570" type="curve"/>
      <point x="215" y="590" type="line"/>
      <point x="250" y="610" type="line"/>
      <point x="250" y="610"/>
      <point x="270" y="620"/>
      <point x="270" y="640" type="curve" smooth="yes"/>
      <point x="270" y="660"/>
      <point x="255" y="675"/>
      <point x="235" y="675" type="curve" smooth="yes"/>
      <point x="225" y="675"/>
      <point x="210" y="665"/>
      <point x="210" y="665" type="curve"/>
      <point x="185" y="650" type="line"/>
      <point x="185" y="685" type="line" smooth="yes"/>
      <point x="185" y="705"/>
      <point x="170" y="720"/>
      <point x="150" y="720" type="curve"/>
      <point x="130" y="720"/>
      <point x="115" y="705"/>
      <point x="115" y="685" type="curve" smooth="yes"/>
      <point x="115" y="650" type="line"/>
      <point x="90" y="665" type="line"/>
      <point x="90" y="665"/>
      <point x="75" y="675"/>
      <point x="65" y="675" type="curve" smooth="yes"/>
      <point x="45" y="675"/>
      <point x="30" y="660"/>
      <point x="30" y="640" type="curve" smooth="yes"/>
      <point x="30" y="620"/>
      <point x="50" y="610"/>
      <point x="50" y="610" type="curve"/>
      <point x="85" y="590" type="line"/>
      <point x="50" y="570" type="line"/>
      <point x="50" y="570"/>
      <point x="30" y="560"/>
      <point x="30" y="540" type="curve" smooth="yes"/>
      <point x="30" y="520"/>
      <point x="45" y="505"/>
      <point x="65" y="505" type="curve" smooth="yes"/>
      <point x="75" y="505"/>
      <point x="90" y="515"/>
      <point x="90" y="515" type="curve"/>
      <point x="115" y="530" type="line"/>
      <point x="115" y="495" type="line" smooth="yes"/>
      <point x="115" y="475"/>
      <point x="130" y="460"/>
    </contour>
  </outline>
</glyph>
<glyph name="plus" format="1">
  <advance width="400"/>
  <unicode hex="002B"/>
  <outline>
    <contour>
      <point x="150" y="170" type="line" name="hr00"/>
      <point x="150" y="145"/>
      <point x="175" y="120"/>
      <point x="200" y="120" type="curve" smooth="yes"/>
      <point x="225" y="120"/>
      <point x="250" y="145"/>
      <point x="250" y="170" type="curve" smooth="yes"/>
      <point x="250" y="270" type="line"/>
      <point x="330" y="270" type="line" smooth="yes"/>
      <point x="355" y="270"/>
      <point x="380" y="295"/>
      <point x="380" y="320" type="curve" smooth="yes"/>
      <point x="380" y="345"/>
      <point x="355" y="370"/>
      <point x="330" y="370" type="curve" smooth="yes"/>
      <point x="250" y="370" type="line"/>
      <point x="250" y="470" type="line" smooth="yes"/>
      <point x="250" y="495"/>
      <point x="225" y="520"/>
      <point x="200" y="520" type="curve" smooth="yes"/>
      <point x="175" y="520"/>
      <point x="150" y="495"/>
      <point x="150" y="470" type="curve" smooth="yes"/>
      <point x="150" y="370" type="line"/>
      <point x="70" y="370" type="line" smooth="yes"/>
      <point x="45" y="370"/>
      <point x="20" y="345"/>
      <point x="20" y="320" type="curve" smooth="yes"/>
      <point x="20" y="295"/>
      <point x="45" y="270"/>
      <point x="70" y="270" type="curve" smooth="yes"/>
      <point x="150" y="270" type="line"/>
    </contour>
  </outline>
</glyph>
<glyph name="comma" format="1">
  <advance width="170"/>
  <unicode hex="002C"/>
  <outline>
    <contour>
      <point x="135" y="20" type="line" name="hr00"/>
      <point x="135" y="20"/>
      <point x="140" y="30"/>
      <point x="140" y="50" type="curve" smooth="yes"/>
      <point x="140" y="80"/>
      <point x="120" y="100"/>
      <point x="90" y="100" type="curve" smooth="yes"/>
      <point x="55" y="100"/>
      <point x="45" y="65"/>
      <point x="45" y="65" type="curve"/>
      <point x="5" y="-55" type="line"/>
      <point x="5" y="-55"/>
      <point x="0" y="-70"/>
      <point x="0" y="-85" type="curve" smooth="yes"/>
      <point x="0" y="-105"/>
      <point x="15" y="-120"/>
      <point x="35" y="-120" type="curve" smooth="yes"/>
      <point x="60" y="-120"/>
      <point x="70" y="-100"/>
      <point x="70" y="-100" type="curve"/>
    </contour>
  </outline>
</glyph>
<glyph name="period" format="1">
  <advance width="170"/>
  <unicode hex="002E"/>
  <outline>
    <contour>
      <point x="85" y="100" type="curve" name="hr00"/>
      <point x="55" y="100"/>
      <point x="30" y="75"/>
      <point x="30" y="45" type="curve" smooth="yes"/>
      <point x="30" y="15"/>
      <point x="55" y="-10"/>
      <point x="85" y="-10" type="curve"/>
      <point x="115" y="-10"/>
      <point x="140" y="15"/>
      <point x="140" y="45" type="curve"/>
      <point x="140" y="75"/>
      <point x="115" y="100"/>
    </contour>
  </outline>
</glyph>
<glyph name="slash" format="1">
  <advance width="435"/>
  <unicode hex="002F"/>
  <outline>
    <contour>
      <point x="10" y="60" type="line" name="hr00"/>
      <point x="10" y="60"/>
      <point x="0" y="45"/>
      <point x="0" y="30" type="curve" smooth="yes"/>
      <point x="0" y="5"/>
      <point x="25" y="-20"/>
      <point x="50" y="-20" type="curve" smooth="yes"/>
      <point x="80" y="-20"/>
      <point x="95" y="10"/>
      <point x="95" y="10" type="curve"/>
      <point x="425" y="640" type="line"/>
      <point x="425" y="640"/>
      <point x="435" y="655"/>
      <point x="435" y="670" type="curve" smooth="yes"/>
      <point x="435" y="695"/>
      <point x="410" y="720"/>
      <point x="385" y="720" type="curve" smooth="yes"/>
      <point x="355" y="720"/>
      <point x="340" y="690"/>
      <point x="340" y="690" type="curve"/>
    </contour>
  </outline>
</glyph>
<glyph name="zero" format="1">
  <advance width="540"/>
  <unicode hex="0030"/>
  <outline>
    <contour>
      <point x="380" y="350" type="curve" name="hr00"/>
      <point x="380" y="140"/>
      <point x="330" y="90"/>
      <point x="270" y="90" type="curve"/>
      <point x="210" y="90"/>
      <point x="160" y="140"/>
      <point x="160" y="350" type="curve"/>
      <point x="160" y="560"/>
      <point x="210" y="610"/>
      <point x="270" y="610" type="curve" smooth="yes"/>
      <point x="330" y="610"/>
      <point x="380" y="560"/>
    </contour>
    <contour>
      <point x="60" y="350" type="curve"/>
      <point x="60" y="80"/>
      <point x="150" y="-10"/>
      <point x="270" y="-10" type="curve"/>
      <point x="390" y="-10"/>
      <point x="480" y="80"/>
      <point x="480" y="350" type="curve"/>
      <point x="480" y="620"/>
      <point x="390" y="710"/>
      <point x="270" y="710" type="curve" smooth="yes"/>
      <point x="150" y="710"/>
      <point x="60" y="620"/>
    </contour>
  </outline>
</glyph>
<glyph name="one" format="1">
  <advance width="370"/>
  <unicode hex="0031"/>
  <outline>
    <contour>
      <point x="240" y="0" type="curve" smooth="yes" name="hr00"/>
      <point x="265" y="0"/>
      <point x="290" y="25"/>
      <point x="290" y="50" type="curve" smooth="yes"/>
      <point x="290" y="650" type="line" smooth="yes"/>
      <point x="290" y="675"/>
      <point x="265" y="700"/>
      <point x="240" y="700" type="curve" smooth="yes"/>
      <point x="220" y="700"/>
      <point x="200" y="681"/>
      <point x="190" y="670" type="curve" smooth="yes"/>
      <point x="35" y="495" type="line"/>
      <point x="35" y="495"/>
      <point x="20" y="480"/>
      <point x="20" y="460" type="curve" smooth="yes"/>
      <point x="20" y="430"/>
      <point x="40" y="410"/>
      <point x="70" y="410" type="curve" smooth="yes"/>
      <point x="95" y="410"/>
      <point x="110" y="430"/>
      <point x="110" y="430" type="curve"/>
      <point x="190" y="520" type="line"/>
      <point x="190" y="50" type="line" smooth="yes"/>
      <point x="190" y="25"/>
      <point x="215" y="0"/>
    </contour>
  </outline>
</glyph>
<glyph name="two" format="1">
  <advance width="455"/>
  <unicode hex="0032"/>
  <outline>
    <contour>
      <point x="305" y="520" type="curve" smooth="yes" name="hr00"/>
      <point x="305" y="340"/>
      <point x="43" y="85"/>
      <point x="45" y="85" type="curve"/>
      <point x="45" y="85"/>
      <point x="30" y="70"/>
      <point x="30" y="50" type="curve" smooth="yes"/>
      <point x="30" y="25"/>
      <point x="55" y="0"/>
      <point x="80" y="0" type="curve" smooth="yes"/>
      <point x="365" y="0" type="line" smooth="yes"/>
      <point x="390" y="0"/>
      <point x="415" y="25"/>
      <point x="415" y="50" type="curve" smooth="yes"/>
      <point x="415" y="75"/>
      <point x="390" y="100"/>
      <point x="365" y="100" type="curve" smooth="yes"/>
      <point x="185" y="100" type="line"/>
      <point x="185" y="100"/>
      <point x="405" y="340"/>
      <point x="405" y="520" type="curve" smooth="yes"/>
      <point x="405" y="635"/>
      <point x="320" y="710"/>
      <point x="215" y="710" type="curve" smooth="yes"/>
      <point x="115" y="710"/>
      <point x="55" y="650"/>
      <point x="40" y="600" type="curve"/>
      <point x="40" y="600"/>
      <point x="35" y="585"/>
      <point x="35" y="570" type="curve" smooth="yes"/>
      <point x="35" y="540"/>
      <point x="55" y="520"/>
      <point x="80" y="520" type="curve" smooth="yes"/>
      <point x="115" y="520"/>
      <point x="125" y="550"/>
      <point x="125" y="550" type="curve"/>
      <point x="135" y="580"/>
      <point x="165" y="610"/>
      <point x="215" y="610" type="curve" smooth="yes"/>
      <point x="270" y="610"/>
      <point x="305" y="575"/>
    </contour>
  </outline>
</glyph>
<glyph name="four" format="1">
  <advance width="460"/>
  <unicode hex="0034"/>
  <outline>
    <contour>
      <point x="380" y="350" type="line" smooth="yes" name="hr00"/>
      <point x="380" y="375"/>
      <point x="355" y="400"/>
      <point x="330" y="400" type="curve" smooth="yes"/>
      <point x="305" y="400"/>
      <point x="280" y="375"/>
      <point x="280" y="350" type="curve" smooth="yes"/>
      <point x="280" y="270" type="line"/>
      <point x="145" y="270" type="line"/>
      <point x="350" y="615" type="line"/>
      <point x="350" y="615"/>
      <point x="365" y="635"/>
      <point x="365" y="650" type="curve" smooth="yes"/>
      <point x="365" y="680"/>
      <point x="345" y="700"/>
      <point x="315" y="700" type="curve" smooth="yes"/>
      <point x="285" y="700"/>
      <point x="275" y="680"/>
      <point x="275" y="680" type="curve"/>
      <point x="35" y="280" type="line"/>
      <point x="35" y="280"/>
      <point x="10" y="245"/>
      <point x="10" y="220" type="curve" smooth="yes"/>
      <point x="10" y="195"/>
      <point x="35" y="170"/>
      <point x="60" y="170" type="curve" smooth="yes"/>
      <point x="280" y="170" type="line"/>
      <point x="280" y="50" type="line" smooth="yes"/>
      <point x="280" y="25"/>
      <point x="305" y="0"/>
      <point x="330" y="0" type="curve" smooth="yes"/>
      <point x="355" y="0"/>
      <point x="380" y="25"/>
      <point x="380" y="50" type="curve" smooth="yes"/>
      <point x="380" y="170" type="line"/>
      <point x="390" y="170" type="line" smooth="yes"/>
      <point x="415" y="170"/>
      <point x="440" y="195"/>
      <point x="440" y="220" type="curve" smooth="yes"/>
      <point x="440" y="245"/>
      <point x="415" y="270"/>
      <point x="390" y="270" type="curve" smooth="yes"/>
      <point x="380" y="270" type="line"/>
    </contour>
  </outline>
</glyph>
<glyph name="five" format="1">
  <advance width="470"/>
  <unicode hex="0035"/>
  <outline>
    <contour>
      <point x="165" y="700" type="line" smooth="yes" name="hr00"/>
      <point x="140" y="700"/>
      <point x="119" y="680"/>
      <point x="115" y="660" type="curve" smooth="yes"/>
      <point x="65" y="420" type="line"/>
      <point x="65" y="420"/>
      <point x="60" y="400"/>
      <point x="60" y="380" type="curve" smooth="yes"/>
      <point x="60" y="355"/>
      <point x="80" y="335"/>
      <point x="105" y="335" type="curve" smooth="yes"/>
      <point x="120" y="335"/>
      <point x="135" y="340"/>
      <point x="135" y="340" type="curve"/>
      <point x="135" y="340"/>
      <point x="160" y="350"/>
      <point x="200" y="350" type="curve" smooth="yes"/>
      <point x="280" y="350"/>
      <point x="330" y="300"/>
      <point x="330" y="220" type="curve" smooth="yes"/>
      <point x="330" y="140"/>
      <point x="280" y="90"/>
      <point x="220" y="90" type="curve" smooth="yes"/>
      <point x="165" y="90"/>
      <point x="135" y="120"/>
      <point x="120" y="160" type="curve"/>
      <point x="120" y="160"/>
      <point x="110" y="190"/>
      <point x="75" y="190" type="curve" smooth="yes"/>
      <point x="50" y="190"/>
      <point x="30" y="170"/>
      <point x="30" y="140" type="curve" smooth="yes"/>
      <point x="30" y="125"/>
      <point x="35" y="110"/>
      <point x="35" y="110" type="curve"/>
      <point x="55" y="50"/>
      <point x="115" y="-10"/>
      <point x="220" y="-10" type="curve" smooth="yes"/>
      <point x="335" y="-10"/>
      <point x="430" y="85"/>
      <point x="430" y="220" type="curve" smooth="yes"/>
      <point x="430" y="345"/>
      <point x="335" y="440"/>
      <point x="240" y="440" type="curve" smooth="yes"/>
      <point x="200" y="440"/>
      <point x="170" y="430"/>
      <point x="170" y="430" type="curve"/>
      <point x="205" y="600" type="line"/>
      <point x="360" y="600" type="line" smooth="yes"/>
      <point x="385" y="600"/>
      <point x="410" y="625"/>
      <point x="410" y="650" type="curve" smooth="yes"/>
      <point x="410" y="675"/>
      <point x="385" y="700"/>
      <point x="360" y="700" type="curve" smooth="yes"/>
    </contour>
  </outline>
</glyph>
<glyph name="six" format="1">
  <advance width="500"/>
  <unicode hex="0036"/>
  <outline>
    <contour>
      <point x="260" y="-10" type="curve" smooth="yes" name="hr00"/>
      <point x="365" y="-10"/>
      <point x="460" y="85"/>
      <point x="460" y="215" type="curve" smooth="yes"/>
      <point x="460" y="345"/>
      <point x="375" y="430"/>
      <point x="280" y="430" type="curve" smooth="yes"/>
      <point x="190" y="430"/>
      <point x="150" y="380"/>
      <point x="150" y="380" type="curve"/>
      <point x="170" y="500"/>
      <point x="260" y="590"/>
      <point x="355" y="610" type="curve" smooth="yes"/>
      <point x="381" y="615"/>
      <point x="395" y="630"/>
      <point x="395" y="660" type="curve" smooth="yes"/>
      <point x="395" y="685"/>
      <point x="370" y="710"/>
      <point x="340" y="710" type="curve" smooth="yes"/>
      <point x="315" y="710"/>
      <point x="300" y="705"/>
      <point x="300" y="705" type="curve"/>
      <point x="160" y="650"/>
      <point x="50" y="540"/>
      <point x="50" y="290" type="curve" smooth="yes"/>
      <point x="50" y="90"/>
      <point x="150" y="-10"/>
    </contour>
    <contour>
      <point x="150" y="290" type="curve"/>
      <point x="150" y="290"/>
      <point x="190" y="340"/>
      <point x="250" y="340" type="curve" smooth="yes"/>
      <point x="310" y="340"/>
      <point x="350" y="300"/>
      <point x="350" y="215" type="curve" smooth="yes"/>
      <point x="350" y="130"/>
      <point x="310" y="90"/>
      <point x="260" y="90" type="curve" smooth="yes"/>
      <point x="205" y="90"/>
      <point x="155" y="140"/>
    </contour>
  </outline>
</glyph>
<glyph name="seven" format="1">
  <advance width="400"/>
  <unicode hex="0037"/>
  <outline>
    <contour>
      <point x="120" y="0" type="curve" smooth="yes" name="hr00"/>
      <point x="155" y="0"/>
      <point x="165" y="30"/>
      <point x="165" y="30" type="curve"/>
      <point x="385" y="625" type="line"/>
      <point x="385" y="625"/>
      <point x="390" y="635"/>
      <point x="390" y="650" type="curve" smooth="yes"/>
      <point x="390" y="675"/>
      <point x="365" y="700"/>
      <point x="340" y="700" type="curve" smooth="yes"/>
      <point x="50" y="700" type="line" smooth="yes"/>
      <point x="25" y="700"/>
      <point x="0" y="675"/>
      <point x="0" y="650" type="curve" smooth="yes"/>
      <point x="0" y="625"/>
      <point x="25" y="600"/>
      <point x="50" y="600" type="curve" smooth="yes"/>
      <point x="270" y="600" type="line"/>
      <point x="80" y="85" type="line"/>
      <point x="80" y="85"/>
      <point x="70" y="60"/>
      <point x="70" y="50" type="curve" smooth="yes"/>
      <point x="70" y="20"/>
      <point x="90" y="0"/>
    </contour>
  </outline>
</glyph>
<glyph name="eight" format="1">
  <advance width="500"/>
  <unicode hex="0038"/>
  <outline>
    <contour>
      <point x="250" y="410" type="curve" name="hr00"/>
      <point x="190" y="410"/>
      <point x="150" y="450"/>
      <point x="150" y="510" type="curve" smooth="yes"/>
      <point x="150" y="570"/>
      <point x="190" y="610"/>
      <point x="250" y="610" type="curve"/>
      <point x="310" y="610"/>
      <point x="350" y="570"/>
      <point x="350" y="510" type="curve" smooth="yes"/>
      <point x="350" y="450"/>
      <point x="310" y="410"/>
    </contour>
    <contour>
      <point x="250" y="710" type="curve"/>
      <point x="140" y="710"/>
      <point x="50" y="630"/>
      <point x="50" y="520" type="curve" smooth="yes"/>
      <point x="50" y="410"/>
      <point x="140" y="370"/>
      <point x="140" y="370" type="curve"/>
      <point x="140" y="370"/>
      <point x="40" y="330"/>
      <point x="40" y="190" type="curve" smooth="yes"/>
      <point x="40" y="80"/>
      <point x="130" y="-10"/>
      <point x="250" y="-10" type="curve"/>
      <point x="370" y="-10"/>
      <point x="460" y="80"/>
      <point x="460" y="190" type="curve" smooth="yes"/>
      <point x="460" y="330"/>
      <point x="360" y="370"/>
      <point x="360" y="370" type="curve"/>
      <point x="360" y="370"/>
      <point x="450" y="410"/>
      <point x="450" y="520" type="curve" smooth="yes"/>
      <point x="450" y="630"/>
      <point x="360" y="710"/>
    </contour>
    <contour>
      <point x="250" y="90" type="curve"/>
      <point x="185" y="90"/>
      <point x="140" y="135"/>
      <point x="140" y="200" type="curve" smooth="yes"/>
      <point x="140" y="265"/>
      <point x="185" y="310"/>
      <point x="250" y="310" type="curve"/>
      <point x="315" y="310"/>
      <point x="360" y="265"/>
      <point x="360" y="200" type="curve" smooth="yes"/>
      <point x="360" y="135"/>
      <point x="315" y="90"/>
    </contour>
  </outline>
</glyph>
<glyph name="nine" format="1">
  <advance width="500"/>
  <unicode hex="0039"/>
  <outline>
    <contour>
      <point x="240" y="710" type="curve" smooth="yes" name="hr00"/>
      <point x="135" y="710"/>
      <point x="40" y="615"/>
      <point x="40" y="485" type="curve" smooth="yes"/>
      <point x="40" y="355"/>
      <point x="125" y="270"/>
      <point x="220" y="270" type="curve" smooth="yes"/>
      <point x="310" y="270"/>
      <point x="350" y="320"/>
      <point x="350" y="320" type="curve"/>
      <point x="330" y="200"/>
      <point x="240" y="110"/>
      <point x="145" y="90" type="curve" smooth="yes"/>
      <point x="119" y="85"/>
      <point x="105" y="70"/>
      <point x="105" y="40" type="curve" smooth="yes"/>
      <point x="105" y="15"/>
      <point x="130" y="-10"/>
      <point x="160" y="-10" type="curve" smooth="yes"/>
      <point x="185" y="-10"/>
      <point x="200" y="-5"/>
      <point x="200" y="-5" type="curve"/>
      <point x="340" y="50"/>
      <point x="450" y="160"/>
      <point x="450" y="410" type="curve" smooth="yes"/>
      <point x="450" y="610"/>
      <point x="350" y="710"/>
    </contour>
    <contour>
      <point x="350" y="410" type="curve"/>
      <point x="350" y="410"/>
      <point x="310" y="360"/>
      <point x="250" y="360" type="curve" smooth="yes"/>
      <point x="190" y="360"/>
      <point x="150" y="400"/>
      <point x="150" y="485" type="curve" smooth="yes"/>
      <point x="150" y="570"/>
      <point x="190" y="610"/>
      <point x="240" y="610" type="curve" smooth="yes"/>
      <point x="295" y="610"/>
      <point x="345" y="560"/>
    </contour>
  </outline>
</glyph>
<glyph name="colon" format="1">
  <advance width="170"/>
  <unicode hex="003A"/>
  <outline>
    <contour>
      <point x="85" y="530" type="curve" name="hr00"/>
      <point x="55" y="530"/>
      <point x="30" y="505"/>
      <point x="30" y="475" type="curve" smooth="yes"/>
      <point x="30" y="445"/>
      <point x="55" y="420"/>
      <point x="85" y="420" type="curve"/>
      <point x="115" y="420"/>
      <point x="140" y="445"/>
      <point x="140" y="475" type="curve"/>
      <point x="140" y="505"/>
      <point x="115" y="530"/>
    </contour>
    <contour>
      <point x="85" y="100" type="curve"/>
      <point x="55" y="100"/>
      <point x="30" y="75"/>
      <point x="30" y="45" type="curve" smooth="yes"/>
      <point x="30" y="15"/>
      <point x="55" y="-10"/>
      <point x="85" y="-10" type="curve"/>
      <point x="115" y="-10"/>
      <point x="140" y="15"/>
      <point x="140" y="45" type="curve"/>
      <point x="140" y="75"/>
      <point x="115" y="100"/>
    </contour>
  </outline>
</glyph>
<glyph name="semicolon" format="1">
  <advance width="175"/>
  <unicode hex="003B"/>
  <outline>
    <contour>
      <point x="90" y="530" type="curve" name="hr00"/>
      <point x="60" y="530"/>
      <point x="35" y="505"/>
      <point x="35" y="475" type="curve" smooth="yes"/>
      <point x="35" y="445"/>
      <point x="60" y="420"/>
      <point x="90" y="420" type="curve"/>
      <point x="120" y="420"/>
      <point x="145" y="445"/>
      <point x="145" y="475" type="curve"/>
      <point x="145" y="505"/>
      <point x="120" y="530"/>
    </contour>
    <contour>
      <point x="135" y="20" type="line"/>
      <point x="135" y="20"/>
      <point x="140" y="30"/>
      <point x="140" y="50" type="curve" smooth="yes"/>
      <point x="140" y="80"/>
      <point x="120" y="100"/>
      <point x="90" y="100" type="curve" smooth="yes"/>
      <point x="55" y="100"/>
      <point x="45" y="65"/>
      <point x="45" y="65" type="curve"/>
      <point x="5" y="-55" type="line"/>
      <point x="5" y="-55"/>
      <point x="0" y="-70"/>
      <point x="0" y="-85" type="curve" smooth="yes"/>
      <point x="0" y="-105"/>
      <point x="15" y="-120"/>
      <point x="35" y="-120" type="curve" smooth="yes"/>
      <point x="60" y="-120"/>
      <point x="70" y="-100"/>
      <point x="70" y="-100" type="curve"/>
    </contour>
  </outline>
</glyph>
<glyph name="less" format="1">
  <advance width="495"/>
  <unicode hex="003C"/>
  <outline>
    <contour>
      <point x="180" y="270" type="line" name="hr00"/>
      <point x="440" y="390" type="line"/>
      <point x="440" y="390"/>
      <point x="465" y="400"/>
      <point x="465" y="430" type="curve" smooth="yes"/>
      <point x="465" y="460"/>
      <point x="445" y="480"/>
      <point x="420" y="480" type="curve" smooth="yes"/>
      <point x="405" y="480"/>
      <point x="390" y="470"/>
      <point x="390" y="470" type="curve"/>
      <point x="50" y="310" type="line" smooth="yes"/>
      <point x="30" y="300"/>
      <point x="20" y="290"/>
      <point x="20" y="270" type="curve"/>
      <point x="20" y="250"/>
      <point x="30" y="240"/>
      <point x="50" y="230" type="curve" smooth="yes"/>
      <point x="390" y="70" type="line"/>
      <point x="390" y="70"/>
      <point x="405" y="60"/>
      <point x="420" y="60" type="curve" smooth="yes"/>
      <point x="445" y="60"/>
      <point x="465" y="80"/>
      <point x="465" y="110" type="curve" smooth="yes"/>
      <point x="465" y="140"/>
      <point x="440" y="150"/>
      <point x="440" y="150" type="curve"/>
    </contour>
  </outline>
</glyph>
<glyph name="equal" format="1">
  <advance width="390"/>
  <unicode hex="003D"/>
  <outline>
    <contour>
      <point x="320" y="170" type="line" smooth="yes" name="hr00"/>
      <point x="345" y="170"/>
      <point x="370" y="195"/>
      <point x="370" y="220" type="curve" smooth="yes"/>
      <point x="370" y="245"/>
      <point x="345" y="270"/>
      <point x="320" y="270" type="curve" smooth="yes"/>
      <point x="70" y="270" type="line" smooth="yes"/>
      <point x="45" y="270"/>
      <point x="20" y="245"/>
      <point x="20" y="220" type="curve" smooth="yes"/>
      <point x="20" y="195"/>
      <point x="45" y="170"/>
      <point x="70" y="170" type="curve" smooth="yes"/>
    </contour>
    <contour>
      <point x="320" y="350" type="line" smooth="yes"/>
      <point x="345" y="350"/>
      <point x="370" y="375"/>
      <point x="370" y="400" type="curve" smooth="yes"/>
      <point x="370" y="425"/>
      <point x="345" y="450"/>
      <point x="320" y="450" type="curve" smooth="yes"/>
      <point x="70" y="450" type="line" smooth="yes"/>
      <point x="45" y="450"/>
      <point x="20" y="425"/>
      <point x="20" y="400" type="curve" smooth="yes"/>
      <point x="20" y="375"/>
      <point x="45" y="350"/>
      <point x="70" y="350" type="curve" smooth="yes"/>
    </contour>
  </outline>
</glyph>
<glyph name="greater" format="1">
  <advance width="495"/>
  <unicode hex="003E"/>
  <outline>
    <contour>
      <point x="55" y="150" type="line" name="hr00"/>
      <point x="55" y="150"/>
      <point x="30" y="140"/>
      <point x="30" y="110" type="curve" smooth="yes"/>
      <point x="30" y="80"/>
      <point x="50" y="60"/>
      <point x="75" y="60" type="curve" smooth="yes"/>
      <point x="90" y="60"/>
      <point x="105" y="70"/>
      <point x="105" y="70" type="curve"/>
      <point x="445" y="230" type="line" smooth="yes"/>
      <point x="465" y="240"/>
      <point x="475" y="250"/>
      <point x="475" y="270" type="curve"/>
      <point x="475" y="290"/>
      <point x="465" y="300"/>
      <point x="445" y="310" type="curve" smooth="yes"/>
      <point x="105" y="470" type="line"/>
      <point x="105" y="470"/>
      <point x="90" y="480"/>
      <point x="75" y="480" type="curve" smooth="yes"/>
      <point x="50" y="480"/>
      <point x="30" y="460"/>
      <point x="30" y="430" type="curve" smooth="yes"/>
      <point x="30" y="400"/>
      <point x="55" y="390"/>
      <point x="55" y="390" type="curve"/>
      <point x="315" y="270" type="line"/>
    </contour>
  </outline>
</glyph>
<glyph name="question" format="1">
  <advance width="390"/>
  <unicode hex="003F"/>
  <outline>
    <contour>
      <point x="370" y="520" type="curve" smooth="yes" name="hr00"/>
      <point x="370" y="635"/>
      <point x="285" y="710"/>
      <point x="190" y="710" type="curve" smooth="yes"/>
      <point x="100" y="710"/>
      <point x="40" y="650"/>
      <point x="25" y="600" type="curve"/>
      <point x="25" y="600"/>
      <point x="20" y="585"/>
      <point x="20" y="570" type="curve" smooth="yes"/>
      <point x="20" y="540"/>
      <point x="40" y="520"/>
      <point x="65" y="520" type="curve" smooth="yes"/>
      <point x="100" y="520"/>
      <point x="110" y="550"/>
      <point x="110" y="550" type="curve"/>
      <point x="120" y="580"/>
      <point x="150" y="610"/>
      <point x="190" y="610" type="curve" smooth="yes"/>
      <point x="235" y="610"/>
      <point x="270" y="575"/>
      <point x="270" y="520" type="curve" smooth="yes"/>
      <point x="270" y="430"/>
      <point x="140" y="390"/>
      <point x="140" y="240" type="curve" smooth="yes"/>
      <point x="140" y="215"/>
      <point x="165" y="190"/>
      <point x="190" y="190" type="curve" smooth="yes"/>
      <point x="215" y="190"/>
      <point x="240" y="215"/>
      <point x="240" y="240" type="curve" smooth="yes"/>
      <point x="240" y="360"/>
      <point x="370" y="400"/>
    </contour>
    <contour>
      <point x="190" y="100" type="curve" smooth="yes"/>
      <point x="160" y="100"/>
      <point x="135" y="75"/>
      <point x="135" y="45" type="curve" smooth="yes"/>
      <point x="135" y="15"/>
      <point x="160" y="-10"/>
      <point x="190" y="-10" type="curve" smooth="yes"/>
      <point x="220" y="-10"/>
      <point x="245" y="15"/>
      <point x="245" y="45" type="curve" smooth="yes"/>
      <point x="245" y="75"/>
      <point x="220" y="100"/>
    </contour>
  </outline>
</glyph>
<glyph name="at" format="1">
  <advance width="910"/>
  <unicode hex="0040"/>
  <outline>
    <contour>
      <point x="460" y="710" type="curve" smooth="yes" name="hr00"/>
      <point x="210" y="710"/>
      <point x="50" y="550"/>
      <point x="50" y="270" type="curve" smooth="yes"/>
      <point x="50" y="-10"/>
      <point x="210" y="-170"/>
      <point x="460" y="-170" type="curve" smooth="yes"/>
      <point x="490" y="-170"/>
      <point x="510" y="-150"/>
      <point x="510" y="-125" type="curve" smooth="yes"/>
      <point x="510" y="-100"/>
      <point x="490" y="-80"/>
      <point x="460" y="-80" type="curve" smooth="yes"/>
      <point x="265" y="-80"/>
      <point x="140" y="45"/>
      <point x="140" y="270" type="curve" smooth="yes"/>
      <point x="140" y="495"/>
      <point x="265" y="620"/>
      <point x="460" y="620" type="curve" smooth="yes"/>
      <point x="645" y="620"/>
      <point x="770" y="495"/>
      <point x="770" y="280" type="curve" smooth="yes"/>
      <point x="770" y="160"/>
      <point x="720" y="120"/>
      <point x="680" y="120" type="curve" smooth="yes"/>
      <point x="645" y="120"/>
      <point x="620" y="145"/>
      <point x="620" y="180" type="curve" smooth="yes"/>
      <point x="620" y="340" type="line" smooth="yes"/>
      <point x="620" y="440"/>
      <point x="550" y="510"/>
      <point x="450" y="510" type="curve" smooth="yes"/>
      <point x="395" y="510"/>
      <point x="345" y="480"/>
      <point x="345" y="480" type="curve"/>
      <point x="345" y="480"/>
      <point x="315" y="465"/>
      <point x="315" y="440" type="curve" smooth="yes"/>
      <point x="315" y="415"/>
      <point x="335" y="395"/>
      <point x="355" y="395" type="curve" smooth="yes"/>
      <point x="370" y="395"/>
      <point x="380" y="400"/>
      <point x="380" y="400" type="curve"/>
      <point x="380" y="400"/>
      <point x="415" y="420"/>
      <point x="450" y="420" type="curve" smooth="yes"/>
      <point x="495" y="420"/>
      <point x="530" y="385"/>
      <point x="530" y="340" type="curve" smooth="yes"/>
      <point x="530" y="325" type="line"/>
      <point x="530" y="325"/>
      <point x="500" y="340"/>
      <point x="460" y="340" type="curve" smooth="yes"/>
      <point x="360" y="340"/>
      <point x="290" y="270"/>
      <point x="290" y="180" type="curve" smooth="yes"/>
      <point x="290" y="90"/>
      <point x="350" y="30"/>
      <point x="430" y="30" type="curve" smooth="yes"/>
      <point x="510" y="30"/>
      <point x="560" y="95"/>
      <point x="560" y="95" type="curve"/>
      <point x="560" y="95"/>
      <point x="600" y="30"/>
      <point x="680" y="30" type="curve" smooth="yes"/>
      <point x="780" y="30"/>
      <point x="860" y="110"/>
      <point x="860" y="280" type="curve" smooth="yes"/>
      <point x="860" y="550"/>
      <point x="700" y="710"/>
    </contour>
    <contour>
      <point x="450" y="120" type="curve" smooth="yes"/>
      <point x="410" y="120"/>
      <point x="380" y="150"/>
      <point x="380" y="180" type="curve" smooth="yes"/>
      <point x="380" y="220"/>
      <point x="410" y="250"/>
      <point x="460" y="250" type="curve" smooth="yes"/>
      <point x="500" y="250"/>
      <point x="530" y="235"/>
      <point x="530" y="235" type="curve"/>
      <point x="530" y="161" type="line"/>
      <point x="530" y="161"/>
      <point x="500" y="120"/>
    </contour>
  </outline>
</glyph>
<glyph name="C" format="1">
  <advance width="505"/>
  <unicode hex="0043"/>
  <outline>
    <contour>
      <point x="285" y="-10" type="curve" smooth="yes" name="hr00"/>
      <point x="390" y="-10"/>
      <point x="450" y="50"/>
      <point x="470" y="110" type="curve"/>
      <point x="470" y="110"/>
      <point x="475" y="125"/>
      <point x="475" y="140" type="curve" smooth="yes"/>
      <point x="475" y="170"/>
      <point x="455" y="190"/>
      <point x="430" y="190" type="curve" smooth="yes"/>
      <point x="395" y="190"/>
      <point x="385" y="160"/>
      <point x="385" y="160" type="curve"/>
      <point x="370" y="120"/>
      <point x="340" y="90"/>
      <point x="285" y="90" type="curve" smooth="yes"/>
      <point x="210" y="90"/>
      <point x="160" y="140"/>
      <point x="160" y="350" type="curve" smooth="yes"/>
      <point x="160" y="560"/>
      <point x="210" y="610"/>
      <point x="285" y="610" type="curve" smooth="yes"/>
      <point x="335" y="610"/>
      <point x="365" y="580"/>
      <point x="375" y="550" type="curve"/>
      <point x="375" y="550"/>
      <point x="385" y="520"/>
      <point x="420" y="520" type="curve" smooth="yes"/>
      <point x="445" y="520"/>
      <point x="465" y="540"/>
      <point x="465" y="570" type="curve" smooth="yes"/>
      <point x="465" y="585"/>
      <point x="460" y="600"/>
      <point x="460" y="600" type="curve"/>
      <point x="445" y="650"/>
      <point x="385" y="710"/>
      <point x="285" y="710" type="curve" smooth="yes"/>
      <point x="150" y="710"/>
      <point x="60" y="620"/>
      <point x="60" y="350" type="curve" smooth="yes"/>
      <point x="60" y="80"/>
      <point x="150" y="-10"/>
    </contour>
  </outline>
</glyph>
<glyph name="D" format="1">
  <advance width="540"/>
  <unicode hex="0044"/>
  <outline>
    <contour>
      <point x="230" y="710" type="curve" smooth="yes" name="hr00"/>
      <point x="170" y="710"/>
      <point x="130" y="700"/>
      <point x="130" y="700" type="curve"/>
      <point x="100" y="695"/>
      <point x="80" y="675"/>
      <point x="80" y="650" type="curve" smooth="yes"/>
      <point x="80" y="40" type="line" smooth="yes"/>
      <point x="80" y="10"/>
      <point x="100" y="-10"/>
      <point x="130" y="-10" type="curve" smooth="yes"/>
      <point x="340" y="-10"/>
      <point x="490" y="140"/>
      <point x="490" y="370" type="curve" smooth="yes"/>
      <point x="490" y="610"/>
      <point x="390" y="710"/>
    </contour>
    <contour>
      <point x="180" y="606" type="line"/>
      <point x="180" y="605"/>
      <point x="205" y="610"/>
      <point x="230" y="610" type="curve" smooth="yes"/>
      <point x="320" y="610"/>
      <point x="390" y="540"/>
      <point x="390" y="370" type="curve" smooth="yes"/>
      <point x="390" y="200"/>
      <point x="310" y="120"/>
      <point x="180" y="90" type="curve"/>
    </contour>
  </outline>
</glyph>
<glyph name="F" format="1">
  <advance width="430"/>
  <unicode hex="0046"/>
  <outline>
    <contour>
      <point x="350" y="600" type="line" smooth="yes" name="hr00"/>
      <point x="375" y="600"/>
      <point x="400" y="625"/>
      <point x="400" y="650" type="curve" smooth="yes"/>
      <point x="400" y="675"/>
      <point x="375" y="700"/>
      <point x="350" y="700" type="curve" smooth="yes"/>
      <point x="130" y="700" type="line" smooth="yes"/>
      <point x="105" y="700"/>
      <point x="80" y="675"/>
      <point x="80" y="650" type="curve" smooth="yes"/>
      <point x="80" y="50" type="line" smooth="yes"/>
      <point x="80" y="25"/>
      <point x="105" y="0"/>
      <point x="130" y="0" type="curve" smooth="yes"/>
      <point x="155" y="0"/>
      <point x="180" y="25"/>
      <point x="180" y="50" type="curve" smooth="yes"/>
      <point x="180" y="340" type="line"/>
      <point x="340" y="340" type="line" smooth="yes"/>
      <point x="365" y="340"/>
      <point x="390" y="365"/>
      <point x="390" y="390" type="curve" smooth="yes"/>
      <point x="390" y="415"/>
      <point x="365" y="440"/>
      <point x="340" y="440" type="curve" smooth="yes"/>
      <point x="180" y="440" type="line"/>
      <point x="180" y="600" type="line"/>
    </contour>
  </outline>
</glyph>
<glyph name="G" format="1">
  <advance width="540"/>
  <unicode hex="0047"/>
  <outline>
    <contour>
      <point x="490" y="290" type="line" smooth="yes" name="hr00"/>
      <point x="490" y="315"/>
      <point x="465" y="340"/>
      <point x="440" y="340" type="curve" smooth="yes"/>
      <point x="310" y="340" type="line" smooth="yes"/>
      <point x="285" y="340"/>
      <point x="260" y="315"/>
      <point x="260" y="290" type="curve" smooth="yes"/>
      <point x="260" y="265"/>
      <point x="285" y="240"/>
      <point x="310" y="240" type="curve" smooth="yes"/>
      <point x="390" y="240" type="line"/>
      <point x="390" y="140"/>
      <point x="340" y="90"/>
      <point x="285" y="90" type="curve" smooth="yes"/>
      <point x="210" y="90"/>
      <point x="160" y="140"/>
      <point x="160" y="350" type="curve" smooth="yes"/>
      <point x="160" y="560"/>
      <point x="210" y="610"/>
      <point x="285" y="610" type="curve" smooth="yes"/>
      <point x="335" y="610"/>
      <point x="365" y="580"/>
      <point x="375" y="550" type="curve"/>
      <point x="375" y="550"/>
      <point x="385" y="520"/>
      <point x="420" y="520" type="curve" smooth="yes"/>
      <point x="445" y="520"/>
      <point x="465" y="540"/>
      <point x="465" y="570" type="curve" smooth="yes"/>
      <point x="465" y="585"/>
      <point x="460" y="600"/>
      <point x="460" y="600" type="curve"/>
      <point x="445" y="650"/>
      <point x="385" y="710"/>
      <point x="285" y="710" type="curve" smooth="yes"/>
      <point x="150" y="710"/>
      <point x="60" y="620"/>
      <point x="60" y="350" type="curve" smooth="yes"/>
      <point x="60" y="80"/>
      <point x="150" y="-10"/>
      <point x="285" y="-10" type="curve" smooth="yes"/>
      <point x="390" y="-10"/>
      <point x="490" y="90"/>
      <point x="490" y="240" type="curve" smooth="yes"/>
    </contour>
  </outline>
</glyph>
<glyph name="L" format="1">
  <advance width="400"/>
  <unicode hex="004C"/>
  <outline>
    <contour>
      <point x="180" y="100" type="line" name="hr00"/>
      <point x="180" y="650" type="line" smooth="yes"/>
      <point x="180" y="675"/>
      <point x="155" y="700"/>
      <point x="130" y="700" type="curve" smooth="yes"/>
      <point x="105" y="700"/>
      <point x="80" y="675"/>
      <point x="80" y="650" type="curve" smooth="yes"/>
      <point x="80" y="50" type="line" smooth="yes"/>
      <point x="80" y="25"/>
      <point x="105" y="0"/>
      <point x="130" y="0" type="curve"/>
      <point x="340" y="0" type="line"/>
      <point x="365" y="0"/>
      <point x="390" y="25"/>
      <point x="390" y="50" type="curve" smooth="yes"/>
      <point x="390" y="75"/>
      <point x="365" y="100"/>
      <point x="340" y="100" type="curve"/>
    </contour>
  </outline>
</glyph>
<glyph name="N" format="1">
  <advance width="590"/>
  <unicode hex="004E"/>
  <outline>
    <contour>
      <point x="405" y="40" type="line" name="hr00"/>
      <point x="419" y="15"/>
      <point x="435" y="0"/>
      <point x="460" y="0" type="curve" smooth="yes"/>
      <point x="485" y="0"/>
      <point x="510" y="25"/>
      <point x="510" y="50" type="curve" smooth="yes"/>
      <point x="510" y="650" type="line" smooth="yes"/>
      <point x="510" y="675"/>
      <point x="485" y="700"/>
      <point x="460" y="700" type="curve" smooth="yes"/>
      <point x="435" y="700"/>
      <point x="410" y="675"/>
      <point x="410" y="650" type="curve" smooth="yes"/>
      <point x="410" y="240" type="line"/>
      <point x="185" y="660" type="line"/>
      <point x="171" y="685"/>
      <point x="155" y="700"/>
      <point x="130" y="700" type="curve" smooth="yes"/>
      <point x="105" y="700"/>
      <point x="80" y="675"/>
      <point x="80" y="650" type="curve" smooth="yes"/>
      <point x="80" y="50" type="line" smooth="yes"/>
      <point x="80" y="25"/>
      <point x="105" y="0"/>
      <point x="130" y="0" type="curve" smooth="yes"/>
      <point x="155" y="0"/>
      <point x="180" y="25"/>
      <point x="180" y="50" type="curve" smooth="yes"/>
      <point x="180" y="460" type="line"/>
    </contour>
  </outline>
</glyph>
<glyph name="Q" format="1">
  <advance width="570"/>
  <unicode hex="0051"/>
  <outline>
    <contour>
      <point x="460" y="90" type="line" name="hr00"/>
      <point x="460" y="90"/>
      <point x="510" y="160"/>
      <point x="510" y="350" type="curve" smooth="yes"/>
      <point x="510" y="620"/>
      <point x="420" y="710"/>
      <point x="285" y="710" type="curve" smooth="yes"/>
      <point x="150" y="710"/>
      <point x="60" y="620"/>
      <point x="60" y="350" type="curve" smooth="yes"/>
      <point x="60" y="80"/>
      <point x="150" y="-10"/>
      <point x="285" y="-10" type="curve" smooth="yes"/>
      <point x="350" y="-10"/>
      <point x="390" y="15"/>
      <point x="390" y="15" type="curve"/>
      <point x="435" y="-45" type="line"/>
      <point x="435" y="-45"/>
      <point x="450" y="-70"/>
      <point x="480" y="-70" type="curve" smooth="yes"/>
      <point x="510" y="-70"/>
      <point x="530" y="-50"/>
      <point x="530" y="-20" type="curve" smooth="yes"/>
      <point x="530" y="-5"/>
      <point x="520" y="10"/>
      <point x="520" y="10" type="curve"/>
    </contour>
    <contour>
      <point x="285" y="90" type="curve" smooth="yes"/>
      <point x="210" y="90"/>
      <point x="160" y="140"/>
      <point x="160" y="350" type="curve" smooth="yes"/>
      <point x="160" y="560"/>
      <point x="210" y="610"/>
      <point x="285" y="610" type="curve" smooth="yes"/>
      <point x="360" y="610"/>
      <point x="410" y="560"/>
      <point x="410" y="350" type="curve" smooth="yes"/>
      <point x="410" y="240"/>
      <point x="395" y="190"/>
      <point x="395" y="190" type="curve"/>
      <point x="380" y="210" type="line"/>
      <point x="380" y="210"/>
      <point x="365" y="235"/>
      <point x="335" y="235" type="curve" smooth="yes"/>
      <point x="305" y="235"/>
      <point x="285" y="215"/>
      <point x="285" y="185" type="curve" smooth="yes"/>
      <point x="285" y="170"/>
      <point x="295" y="155"/>
      <point x="295" y="155" type="curve"/>
      <point x="335" y="100" type="line"/>
      <point x="335" y="100"/>
      <point x="310" y="90"/>
    </contour>
  </outline>
</glyph>
<glyph name="R" format="1">
  <advance width="530"/>
  <unicode hex="0052"/>
  <outline>
    <contour>
      <point x="240" y="710" type="curve" smooth="yes" name="hr00"/>
      <point x="180" y="710"/>
      <point x="130" y="700"/>
      <point x="130" y="700" type="curve"/>
      <point x="100" y="695"/>
      <point x="80" y="675"/>
      <point x="80" y="650" type="curve" smooth="yes"/>
      <point x="80" y="50" type="line" smooth="yes"/>
      <point x="80" y="25"/>
      <point x="105" y="0"/>
      <point x="130" y="0" type="curve" smooth="yes"/>
      <point x="155" y="0"/>
      <point x="180" y="25"/>
      <point x="180" y="50" type="curve" smooth="yes"/>
      <point x="180" y="260" type="line"/>
      <point x="230" y="260"/>
      <point x="285" y="275"/>
      <point x="285" y="275" type="curve"/>
      <point x="390" y="30" type="line"/>
      <point x="390" y="30"/>
      <point x="405" y="0"/>
      <point x="435" y="0" type="curve" smooth="yes"/>
      <point x="465" y="0"/>
      <point x="485" y="20"/>
      <point x="485" y="50" type="curve" smooth="yes"/>
      <point x="485" y="60"/>
      <point x="480" y="70"/>
      <point x="480" y="70" type="curve"/>
      <point x="375" y="315" type="line"/>
      <point x="375" y="315"/>
      <point x="470" y="355"/>
      <point x="470" y="500" type="curve" smooth="yes"/>
      <point x="470" y="620"/>
      <point x="380" y="710"/>
    </contour>
    <contour>
      <point x="180" y="605" type="line"/>
      <point x="180" y="605"/>
      <point x="210" y="610"/>
      <point x="240" y="610" type="curve" smooth="yes"/>
      <point x="320" y="610"/>
      <point x="370" y="560"/>
      <point x="370" y="500" type="curve" smooth="yes"/>
      <point x="370" y="420"/>
      <point x="320" y="370"/>
      <point x="180" y="360" type="curve"/>
    </contour>
  </outline>
</glyph>
<glyph name="S" format="1">
  <advance width="480"/>
  <unicode hex="0053"/>
  <outline>
    <contour>
      <point x="50" y="510" type="curve" name="hr00"/>
      <point x="50" y="270"/>
      <point x="340" y="340"/>
      <point x="340" y="200" type="curve"/>
      <point x="340" y="135"/>
      <point x="295" y="90"/>
      <point x="230" y="90" type="curve" smooth="yes"/>
      <point x="175" y="90"/>
      <point x="145" y="120"/>
      <point x="130" y="160" type="curve"/>
      <point x="130" y="160"/>
      <point x="120" y="190"/>
      <point x="85" y="190" type="curve" smooth="yes"/>
      <point x="60" y="190"/>
      <point x="40" y="170"/>
      <point x="40" y="140" type="curve" smooth="yes"/>
      <point x="40" y="125"/>
      <point x="45" y="110"/>
      <point x="45" y="110" type="curve"/>
      <point x="65" y="50"/>
      <point x="125" y="-10"/>
      <point x="230" y="-10" type="curve" smooth="yes"/>
      <point x="350" y="-10"/>
      <point x="440" y="80"/>
      <point x="440" y="200" type="curve" smooth="yes"/>
      <point x="440" y="440"/>
      <point x="150" y="370"/>
      <point x="150" y="510" type="curve" smooth="yes"/>
      <point x="150" y="570"/>
      <point x="190" y="610"/>
      <point x="250" y="610" type="curve" smooth="yes"/>
      <point x="300" y="610"/>
      <point x="330" y="580"/>
      <point x="340" y="550" type="curve"/>
      <point x="340" y="550"/>
      <point x="350" y="520"/>
      <point x="385" y="520" type="curve" smooth="yes"/>
      <point x="410" y="520"/>
      <point x="430" y="540"/>
      <point x="430" y="570" type="curve" smooth="yes"/>
      <point x="430" y="585"/>
      <point x="425" y="600"/>
      <point x="425" y="600" type="curve"/>
      <point x="410" y="650"/>
      <point x="350" y="710"/>
      <point x="250" y="710" type="curve" smooth="yes"/>
      <point x="140" y="710"/>
      <point x="50" y="630"/>
    </contour>
  </outline>
</glyph>
<glyph name="U" format="1">
  <advance width="560"/>
  <unicode hex="0055"/>
  <outline>
    <contour>
      <point x="280" y="90" type="curve" name="hr00"/>
      <point x="220" y="90"/>
      <point x="170" y="140"/>
      <point x="170" y="210" type="curve" smooth="yes"/>
      <point x="170" y="650" type="line" smooth="yes"/>
      <point x="170" y="675"/>
      <point x="145" y="700"/>
      <point x="120" y="700" type="curve" smooth="yes"/>
      <point x="95" y="700"/>
      <point x="70" y="675"/>
      <point x="70" y="650" type="curve" smooth="yes"/>
      <point x="70" y="210" type="line" smooth="yes"/>
      <point x="70" y="80"/>
      <point x="160" y="-10"/>
      <point x="280" y="-10" type="curve"/>
      <point x="400" y="-10"/>
      <point x="490" y="80"/>
      <point x="490" y="210" type="curve" smooth="yes"/>
      <point x="490" y="650" type="line" smooth="yes"/>
      <point x="490" y="675"/>
      <point x="465" y="700"/>
      <point x="440" y="700" type="curve" smooth="yes"/>
      <point x="415" y="700"/>
      <point x="390" y="675"/>
      <point x="390" y="650" type="curve" smooth="yes"/>
      <point x="390" y="210" type="line" smooth="yes"/>
      <point x="390" y="140"/>
      <point x="340" y="90"/>
    </contour>
  </outline>
</glyph>
<glyph name="V" format="1">
  <advance width="490"/>
  <unicode hex="0056"/>
  <outline>
    <contour>
      <point x="465" y="625" type="line" name="hr00"/>
      <point x="465" y="625"/>
      <point x="470" y="640"/>
      <point x="470" y="650" type="curve" smooth="yes"/>
      <point x="470" y="680"/>
      <point x="450" y="700"/>
      <point x="420" y="700" type="curve" smooth="yes"/>
      <point x="385" y="700"/>
      <point x="375" y="670"/>
      <point x="375" y="670" type="curve"/>
      <point x="245" y="220" type="line"/>
      <point x="115" y="670" type="line"/>
      <point x="115" y="670"/>
      <point x="105" y="700"/>
      <point x="70" y="700" type="curve" smooth="yes"/>
      <point x="40" y="700"/>
      <point x="20" y="680"/>
      <point x="20" y="650" type="curve" smooth="yes"/>
      <point x="20" y="640"/>
      <point x="25" y="625"/>
      <point x="25" y="625" type="curve"/>
      <point x="195" y="40" type="line" smooth="yes"/>
      <point x="201" y="20"/>
      <point x="220" y="0"/>
      <point x="245" y="0" type="curve" smooth="yes"/>
      <point x="270" y="0"/>
      <point x="289" y="20"/>
      <point x="295" y="40" type="curve" smooth="yes"/>
    </contour>
  </outline>
</glyph>
<glyph name="W" format="1">
  <advance width="680"/>
  <unicode hex="0057"/>
  <outline>
    <contour>
      <point x="340" y="450" type="curve" name="hr00"/>
      <point x="315" y="450"/>
      <point x="300" y="435"/>
      <point x="295" y="415" type="curve" smooth="yes"/>
      <point x="240" y="210" type="line"/>
      <point x="105" y="670" type="line"/>
      <point x="105" y="670"/>
      <point x="95" y="700"/>
      <point x="60" y="700" type="curve" smooth="yes"/>
      <point x="30" y="700"/>
      <point x="10" y="680"/>
      <point x="10" y="650" type="curve" smooth="yes"/>
      <point x="10" y="643"/>
      <point x="15" y="625"/>
      <point x="15" y="625" type="curve"/>
      <point x="185" y="40" type="line"/>
      <point x="190" y="20"/>
      <point x="210" y="0"/>
      <point x="235" y="0" type="curve" smooth="yes"/>
      <point x="260" y="0"/>
      <point x="279" y="20"/>
      <point x="285" y="40" type="curve" smooth="yes"/>
      <point x="340" y="240" type="line"/>
      <point x="395" y="40" type="line" smooth="yes"/>
      <point x="401" y="20"/>
      <point x="420" y="0"/>
      <point x="445" y="0" type="curve" smooth="yes"/>
      <point x="470" y="0"/>
      <point x="490" y="20"/>
      <point x="495" y="40" type="curve"/>
      <point x="665" y="625" type="line"/>
      <point x="665" y="625"/>
      <point x="670" y="643"/>
      <point x="670" y="650" type="curve" smooth="yes"/>
      <point x="670" y="680"/>
      <point x="650" y="700"/>
      <point x="620" y="700" type="curve" smooth="yes"/>
      <point x="585" y="700"/>
      <point x="575" y="670"/>
      <point x="575" y="670" type="curve"/>
      <point x="440" y="210" type="line"/>
      <point x="385" y="415" type="line" smooth="yes"/>
      <point x="380" y="435"/>
      <point x="365" y="450"/>
    </contour>
  </outline>
</glyph>
<glyph name="X" format="1">
  <advance width="530"/>
  <unicode hex="0058"/>
  <outline>
    <contour>
      <point x="60" y="50" type="line" smooth="yes" name="hr00"/>
      <point x="60" y="25"/>
      <point x="85" y="0"/>
      <point x="110" y="0" type="curve" smooth="yes"/>
      <point x="135" y="0"/>
      <point x="160" y="25"/>
      <point x="160" y="50" type="curve" smooth="yes"/>
      <point x="160" y="170" type="line"/>
      <point x="265" y="270" type="line"/>
      <point x="370" y="170" type="line"/>
      <point x="370" y="50" type="line" smooth="yes"/>
      <point x="370" y="25"/>
      <point x="395" y="0"/>
      <point x="420" y="0" type="curve" smooth="yes"/>
      <point x="445" y="0"/>
      <point x="470" y="25"/>
      <point x="470" y="50" type="curve" smooth="yes"/>
      <point x="470" y="190" type="line" smooth="yes"/>
      <point x="470" y="215"/>
      <point x="455" y="230"/>
      <point x="445" y="240" type="curve" smooth="yes"/>
      <point x="325" y="355" type="line"/>
      <point x="445" y="470" type="line" smooth="yes"/>
      <point x="455" y="480"/>
      <point x="470" y="495"/>
      <point x="470" y="520" type="curve" smooth="yes"/>
      <point x="470" y="650" type="line" smooth="yes"/>
      <point x="470" y="675"/>
      <point x="445" y="700"/>
      <point x="420" y="700" type="curve" smooth="yes"/>
      <point x="395" y="700"/>
      <point x="370" y="675"/>
      <point x="370" y="650" type="curve" smooth="yes"/>
      <point x="370" y="540" type="line"/>
      <point x="265" y="440" type="line"/>
      <point x="160" y="540" type="line"/>
      <point x="160" y="650" type="line" smooth="yes"/>
      <point x="160" y="675"/>
      <point x="135" y="700"/>
      <point x="110" y="700" type="curve" smooth="yes"/>
      <point x="85" y="700"/>
      <point x="60" y="675"/>
      <point x="60" y="650" type="curve" smooth="yes"/>
      <point x="60" y="520" type="line" smooth="yes"/>
      <point x="60" y="495"/>
      <point x="75" y="480"/>
      <point x="85" y="470" type="curve" smooth="yes"/>
      <point x="205" y="355" type="line"/>
      <point x="85" y="240" type="line" smooth="yes"/>
      <point x="75" y="230"/>
      <point x="60" y="215"/>
      <point x="60" y="190" type="curve" smooth="yes"/>
    </contour>
  </outline>
</glyph>
<glyph name="Y" format="1">
  <advance width="490"/>
  <unicode hex="0059"/>
  <outline>
    <contour>
      <point x="30" y="510" type="line" smooth="yes" name="hr00"/>
      <point x="30" y="485"/>
      <point x="45" y="470"/>
      <point x="55" y="460" type="curve" smooth="yes"/>
      <point x="195" y="325" type="line"/>
      <point x="195" y="50" type="line" smooth="yes"/>
      <point x="195" y="25"/>
      <point x="220" y="0"/>
      <point x="245" y="0" type="curve" smooth="yes"/>
      <point x="270" y="0"/>
      <point x="295" y="25"/>
      <point x="295" y="50" type="curve" smooth="yes"/>
      <point x="295" y="325" type="line"/>
      <point x="435" y="460" type="line" smooth="yes"/>
      <point x="445" y="470"/>
      <point x="460" y="485"/>
      <point x="460" y="510" type="curve" smooth="yes"/>
      <point x="460" y="650" type="line" smooth="yes"/>
      <point x="460" y="675"/>
      <point x="435" y="700"/>
      <point x="410" y="700" type="curve" smooth="yes"/>
      <point x="385" y="700"/>
      <point x="360" y="675"/>
      <point x="360" y="650" type="curve" smooth="yes"/>
      <point x="360" y="530" type="line"/>
      <point x="245" y="420" type="line"/>
      <point x="130" y="530" type="line"/>
      <point x="130" y="650" type="line" smooth="yes"/>
      <point x="130" y="675"/>
      <point x="105" y="700"/>
      <point x="80" y="700" type="curve" smooth="yes"/>
      <point x="55" y="700"/>
      <point x="30" y="675"/>
      <point x="30" y="650" type="curve" smooth="yes"/>
    </contour>
  </outline>
</glyph>
<glyph name="Z" format="1">
  <advance width="430"/>
  <unicode hex="005A"/>
  <outline>
    <contour>
      <point x="400" y="610" type="line" name="hr00"/>
      <point x="400" y="610"/>
      <point x="410" y="630"/>
      <point x="410" y="650" type="curve" smooth="yes"/>
      <point x="410" y="675"/>
      <point x="385" y="700"/>
      <point x="360" y="700" type="curve" smooth="yes"/>
      <point x="80" y="700" type="line" smooth="yes"/>
      <point x="55" y="700"/>
      <point x="30" y="675"/>
      <point x="30" y="650" type="curve" smooth="yes"/>
      <point x="30" y="625"/>
      <point x="55" y="600"/>
      <point x="80" y="600" type="curve" smooth="yes"/>
      <point x="285" y="600" type="line"/>
      <point x="30" y="90" type="line"/>
      <point x="30" y="90"/>
      <point x="20" y="70"/>
      <point x="20" y="50" type="curve" smooth="yes"/>
      <point x="20" y="25"/>
      <point x="45" y="0"/>
      <point x="70" y="0" type="curve" smooth="yes"/>
      <point x="360" y="0" type="line" smooth="yes"/>
      <point x="385" y="0"/>
      <point x="410" y="25"/>
      <point x="410" y="50" type="curve" smooth="yes"/>
      <point x="410" y="75"/>
      <point x="385" y="100"/>
      <point x="360" y="100" type="curve" smooth="yes"/>
      <point x="145" y="100" type="line"/>
    </contour>
  </outline>
</glyph>
<glyph name="bracketleft" format="1">
  <advance width="310"/>
  <unicode hex="005B"/>
  <outline>
    <contour>
      <point x="240" y="680" type="line" name="hr00"/>
      <point x="265" y="680"/>
      <point x="290" y="705"/>
      <point x="290" y="730" type="curve" smooth="yes"/>
      <point x="290" y="755"/>
      <point x="265" y="780"/>
      <point x="240" y="780" type="curve" smooth="yes"/>
      <point x="130" y="780" type="line" smooth="yes"/>
      <point x="105" y="780"/>
      <point x="80" y="755"/>
      <point x="80" y="730" type="curve" smooth="yes"/>
      <point x="80" y="-100" type="line" smooth="yes"/>
      <point x="80" y="-125"/>
      <point x="105" y="-150"/>
      <point x="130" y="-150" type="curve" smooth="yes"/>
      <point x="240" y="-150" type="line" smooth="yes"/>
      <point x="265" y="-150"/>
      <point x="290" y="-125"/>
      <point x="290" y="-100" type="curve" smooth="yes"/>
      <point x="290" y="-75"/>
      <point x="265" y="-50"/>
      <point x="240" y="-50" type="curve" smooth="yes"/>
      <point x="180" y="-50" type="line"/>
      <point x="180" y="680" type="line"/>
    </contour>
  </outline>
</glyph>
<glyph name="backslash" format="1">
  <advance width="435"/>
  <unicode hex="005C"/>
  <outline>
    <contour>
      <point x="95" y="690" type="line" name="hr00"/>
      <point x="95" y="690"/>
      <point x="80" y="720"/>
      <point x="50" y="720" type="curve" smooth="yes"/>
      <point x="25" y="720"/>
      <point x="0" y="695"/>
      <point x="0" y="670" type="curve" smooth="yes"/>
      <point x="0" y="655"/>
      <point x="10" y="640"/>
      <point x="10" y="640" type="curve"/>
      <point x="340" y="10" type="line"/>
      <point x="340" y="10"/>
      <point x="355" y="-20"/>
      <point x="385" y="-20" type="curve" smooth="yes"/>
      <point x="410" y="-20"/>
      <point x="435" y="5"/>
      <point x="435" y="30" type="curve" smooth="yes"/>
      <point x="435" y="45"/>
      <point x="425" y="60"/>
      <point x="425" y="60" type="curve"/>
    </contour>
  </outline>
</glyph>
<glyph name="bracketright" format="1">
  <advance width="310"/>
  <unicode hex="005D"/>
  <outline>
    <contour>
      <point x="130" y="680" type="line" name="hr00"/>
      <point x="130" y="-50" type="line"/>
      <point x="70" y="-50" type="line" smooth="yes"/>
      <point x="45" y="-50"/>
      <point x="20" y="-75"/>
      <point x="20" y="-100" type="curve" smooth="yes"/>
      <point x="20" y="-125"/>
      <point x="45" y="-150"/>
      <point x="70" y="-150" type="curve" smooth="yes"/>
      <point x="180" y="-150" type="line" smooth="yes"/>
      <point x="205" y="-150"/>
      <point x="230" y="-125"/>
      <point x="230" y="-100" type="curve" smooth="yes"/>
      <point x="230" y="730" type="line" smooth="yes"/>
      <point x="230" y="755"/>
      <point x="205" y="780"/>
      <point x="180" y="780" type="curve" smooth="yes"/>
      <point x="70" y="780" type="line" smooth="yes"/>
      <point x="45" y="780"/>
      <point x="20" y="755"/>
      <point x="20" y="730" type="curve" smooth="yes"/>
      <point x="20" y="705"/>
      <point x="45" y="680"/>
      <point x="70" y="680" type="curve" smooth="yes"/>
    </contour>
  </outline>
</glyph>
<glyph name="asciicircum" format="1">
  <advance width="440"/>
  <unicode hex="005E"/>
  <outline>
    <contour>
      <point x="220" y="560" type="line" name="hr00"/>
      <point x="320" y="340" type="line"/>
      <point x="320" y="340"/>
      <point x="330" y="315"/>
      <point x="360" y="315" type="curve" smooth="yes"/>
      <point x="390" y="315"/>
      <point x="410" y="335"/>
      <point x="410" y="360" type="curve" smooth="yes"/>
      <point x="410" y="375"/>
      <point x="400" y="390"/>
      <point x="400" y="390" type="curve"/>
      <point x="260" y="690" type="line" smooth="yes"/>
      <point x="250" y="710"/>
      <point x="240" y="720"/>
      <point x="220" y="720" type="curve"/>
      <point x="200" y="720"/>
      <point x="190" y="710"/>
      <point x="180" y="690" type="curve" smooth="yes"/>
      <point x="40" y="390" type="line"/>
      <point x="40" y="390"/>
      <point x="30" y="375"/>
      <point x="30" y="360" type="curve" smooth="yes"/>
      <point x="30" y="335"/>
      <point x="50" y="315"/>
      <point x="80" y="315" type="curve" smooth="yes"/>
      <point x="110" y="315"/>
      <point x="120" y="340"/>
      <point x="120" y="340" type="curve"/>
    </contour>
  </outline>
</glyph>
<glyph name="underscore" format="1">
  <advance width="340"/>
  <unicode hex="005F"/>
  <outline>
    <contour>
      <point x="290" y="-150" type="line" smooth="yes" name="hr00"/>
      <point x="315" y="-150"/>
      <point x="340" y="-125"/>
      <point x="340" y="-100" type="curve" smooth="yes"/>
      <point x="340" y="-75"/>
      <point x="315" y="-50"/>
      <point x="290" y="-50" type="curve" smooth="yes"/>
      <point x="50" y="-50" type="line" smooth="yes"/>
      <point x="25" y="-50"/>
      <point x="0" y="-75"/>
      <point x="0" y="-100" type="curve" smooth="yes"/>
      <point x="0" y="-125"/>
      <point x="25" y="-150"/>
      <point x="50" y="-150" type="curve" smooth="yes"/>
    </contour>
  </outline>
</glyph>
<glyph name="grave" format="1">
  <advance width="270"/>
  <unicode hex="0060"/>
  <outline>
    <contour>
      <point x="160" y="550" type="line" name="hr00"/>
      <point x="160" y="550"/>
      <point x="175" y="540"/>
      <point x="190" y="540" type="curve" smooth="yes"/>
      <point x="220" y="540"/>
      <point x="240" y="560"/>
      <point x="240" y="585" type="curve" smooth="yes"/>
      <point x="240" y="620"/>
      <point x="220" y="630"/>
      <point x="220" y="630" type="curve"/>
      <point x="110" y="690" type="line"/>
      <point x="110" y="690"/>
      <point x="95" y="700"/>
      <point x="80" y="700" type="curve" smooth="yes"/>
      <point x="50" y="700"/>
      <point x="30" y="680"/>
      <point x="30" y="655" type="curve" smooth="yes"/>
      <point x="30" y="620"/>
      <point x="50" y="610"/>
      <point x="50" y="610" type="curve"/>
    </contour>
  </outline>
</glyph>
<glyph name="b" format="1">
  <advance width="500"/>
  <unicode hex="0062"/>
  <outline>
    <contour>
      <point x="160" y="655" type="line" smooth="yes" name="hr00"/>
      <point x="160" y="680"/>
      <point x="140" y="700"/>
      <point x="115" y="700" type="curve" smooth="yes"/>
      <point x="90" y="700"/>
      <point x="70" y="680"/>
      <point x="70" y="655" type="curve" smooth="yes"/>
      <point x="70" y="45" type="line" smooth="yes"/>
      <point x="70" y="20"/>
      <point x="90" y="0"/>
      <point x="115" y="0" type="curve" smooth="yes"/>
      <point x="140" y="0"/>
      <point x="160" y="20"/>
      <point x="160" y="45" type="curve" smooth="yes"/>
      <point x="160" y="55" type="line"/>
      <point x="160" y="55"/>
      <point x="200" y="-10"/>
      <point x="280" y="-10" type="curve" smooth="yes"/>
      <point x="370" y="-10"/>
      <point x="450" y="70"/>
      <point x="450" y="260" type="curve" smooth="yes"/>
      <point x="450" y="450"/>
      <point x="370" y="530"/>
      <point x="280" y="530" type="curve" smooth="yes"/>
      <point x="200" y="530"/>
      <point x="160" y="465"/>
      <point x="160" y="465" type="curve"/>
    </contour>
    <contour>
      <point x="160" y="370" type="line"/>
      <point x="160" y="370"/>
      <point x="200" y="440"/>
      <point x="260" y="440" type="curve" smooth="yes"/>
      <point x="320" y="440"/>
      <point x="360" y="400"/>
      <point x="360" y="260" type="curve" smooth="yes"/>
      <point x="360" y="120"/>
      <point x="320" y="80"/>
      <point x="260" y="80" type="curve" smooth="yes"/>
      <point x="200" y="80"/>
      <point x="160" y="150"/>
      <point x="160" y="150" type="curve"/>
    </contour>
  </outline>
</glyph>
<glyph name="c" format="1">
  <advance width="435"/>
  <unicode hex="0063"/>
  <outline>
    <contour>
      <point x="140" y="265" type="curve" smooth="yes" name="hr00"/>
      <point x="140" y="410"/>
      <point x="180" y="450"/>
      <point x="240" y="450" type="curve" smooth="yes"/>
      <point x="275" y="450"/>
      <point x="305" y="420"/>
      <point x="310" y="400" type="curve"/>
      <point x="310" y="400"/>
      <point x="320" y="375"/>
      <point x="350" y="375" type="curve" smooth="yes"/>
      <point x="375" y="375"/>
      <point x="395" y="395"/>
      <point x="395" y="420" type="curve" smooth="yes"/>
      <point x="395" y="440"/>
      <point x="390" y="450"/>
      <point x="390" y="450" type="curve"/>
      <point x="370" y="495"/>
      <point x="325" y="540"/>
      <point x="240" y="540" type="curve" smooth="yes"/>
      <point x="130" y="540"/>
      <point x="50" y="460"/>
      <point x="50" y="265" type="curve" smooth="yes"/>
      <point x="50" y="70"/>
      <point x="130" y="-10"/>
      <point x="240" y="-10" type="curve" smooth="yes"/>
      <point x="330" y="-10"/>
      <point x="375" y="35"/>
      <point x="400" y="90" type="curve"/>
      <point x="400" y="90"/>
      <point x="405" y="100"/>
      <point x="405" y="120" type="curve" smooth="yes"/>
      <point x="405" y="145"/>
      <point x="385" y="165"/>
      <point x="360" y="165" type="curve" smooth="yes"/>
      <point x="330" y="165"/>
      <point x="320" y="140"/>
      <point x="320" y="140" type="curve"/>
      <point x="310" y="110"/>
      <point x="280" y="80"/>
      <point x="240" y="80" type="curve" smooth="yes"/>
      <point x="180" y="80"/>
      <point x="140" y="120"/>
    </contour>
  </outline>
</glyph>
<glyph name="d" format="1">
  <advance width="500"/>
  <unicode hex="0064"/>
  <outline>
    <contour>
      <point x="340" y="465" type="line" name="hr00"/>
      <point x="340" y="465"/>
      <point x="300" y="530"/>
      <point x="220" y="530" type="curve" smooth="yes"/>
      <point x="130" y="530"/>
      <point x="50" y="450"/>
      <point x="50" y="260" type="curve" smooth="yes"/>
      <point x="50" y="70"/>
      <point x="130" y="-10"/>
      <point x="220" y="-10" type="curve" smooth="yes"/>
      <point x="300" y="-10"/>
      <point x="340" y="55"/>
      <point x="340" y="55" type="curve"/>
      <point x="340" y="45" type="line" smooth="yes"/>
      <point x="340" y="20"/>
      <point x="360" y="0"/>
      <point x="385" y="0" type="curve" smooth="yes"/>
      <point x="410" y="0"/>
      <point x="430" y="20"/>
      <point x="430" y="45" type="curve" smooth="yes"/>
      <point x="430" y="655" type="line" smooth="yes"/>
      <point x="430" y="680"/>
      <point x="410" y="700"/>
      <point x="385" y="700" type="curve" smooth="yes"/>
      <point x="360" y="700"/>
      <point x="340" y="680"/>
      <point x="340" y="655" type="curve" smooth="yes"/>
    </contour>
    <contour>
      <point x="340" y="150" type="line"/>
      <point x="340" y="150"/>
      <point x="300" y="80"/>
      <point x="240" y="80" type="curve" smooth="yes"/>
      <point x="180" y="80"/>
      <point x="140" y="120"/>
      <point x="140" y="260" type="curve" smooth="yes"/>
      <point x="140" y="400"/>
      <point x="180" y="440"/>
      <point x="240" y="440" type="curve" smooth="yes"/>
      <point x="300" y="440"/>
      <point x="340" y="370"/>
      <point x="340" y="370" type="curve"/>
    </contour>
  </outline>
</glyph>
<glyph name="e" format="1">
  <advance width="465"/>
  <unicode hex="0065"/>
  <outline>
    <contour>
      <point x="240" y="80" type="curve" smooth="yes" name="hr00"/>
      <point x="185" y="80"/>
      <point x="145" y="120"/>
      <point x="140" y="220" type="curve"/>
      <point x="380" y="220" type="line" smooth="yes"/>
      <point x="400" y="220"/>
      <point x="420" y="240"/>
      <point x="420" y="260" type="curve" smooth="yes"/>
      <point x="420" y="460"/>
      <point x="340" y="540"/>
      <point x="235" y="540" type="curve" smooth="yes"/>
      <point x="130" y="540"/>
      <point x="50" y="460"/>
      <point x="50" y="265" type="curve" smooth="yes"/>
      <point x="50" y="70"/>
      <point x="130" y="-10"/>
      <point x="240" y="-10" type="curve" smooth="yes"/>
      <point x="330" y="-10"/>
      <point x="375" y="35"/>
      <point x="400" y="90" type="curve"/>
      <point x="400" y="90"/>
      <point x="405" y="100"/>
      <point x="405" y="120" type="curve" smooth="yes"/>
      <point x="405" y="145"/>
      <point x="385" y="165"/>
      <point x="360" y="165" type="curve" smooth="yes"/>
      <point x="330" y="165"/>
      <point x="320" y="140"/>
      <point x="320" y="140" type="curve"/>
      <point x="310" y="110"/>
      <point x="280" y="80"/>
    </contour>
    <contour>
      <point x="140" y="310" type="line"/>
      <point x="145" y="410"/>
      <point x="185" y="450"/>
      <point x="235" y="450" type="curve" smooth="yes"/>
      <point x="285" y="450"/>
      <point x="325" y="410"/>
      <point x="330" y="310" type="curve"/>
    </contour>
  </outline>
</glyph>
<glyph name="f" format="1">
  <advance width="305"/>
  <unicode hex="0066"/>
  <outline>
    <contour>
      <point x="190" y="510" type="line" name="hr00"/>
      <point x="190" y="530" type="line" smooth="yes"/>
      <point x="190" y="590"/>
      <point x="220" y="620"/>
      <point x="270" y="620" type="curve" smooth="yes"/>
      <point x="295" y="620"/>
      <point x="315" y="640"/>
      <point x="315" y="665" type="curve" smooth="yes"/>
      <point x="315" y="690"/>
      <point x="295" y="710"/>
      <point x="270" y="710" type="curve" smooth="yes"/>
      <point x="160" y="710"/>
      <point x="100" y="650"/>
      <point x="100" y="530" type="curve" smooth="yes"/>
      <point x="100" y="510" type="line"/>
      <point x="65" y="510" type="line" smooth="yes"/>
      <point x="40" y="510"/>
      <point x="20" y="490"/>
      <point x="20" y="465" type="curve" smooth="yes"/>
      <point x="20" y="440"/>
      <point x="40" y="420"/>
      <point x="65" y="420" type="curve" smooth="yes"/>
      <point x="100" y="420" type="line"/>
      <point x="100" y="45" type="line" smooth="yes"/>
      <point x="100" y="20"/>
      <point x="120" y="0"/>
      <point x="145" y="0" type="curve" smooth="yes"/>
      <point x="170" y="0"/>
      <point x="190" y="20"/>
      <point x="190" y="45" type="curve" smooth="yes"/>
      <point x="190" y="420" type="line"/>
      <point x="255" y="420" type="line" smooth="yes"/>
      <point x="280" y="420"/>
      <point x="300" y="440"/>
      <point x="300" y="465" type="curve" smooth="yes"/>
      <point x="300" y="490"/>
      <point x="280" y="510"/>
      <point x="255" y="510" type="curve" smooth="yes"/>
    </contour>
  </outline>
</glyph>
<glyph name="g" format="1">
  <advance width="500"/>
  <unicode hex="0067"/>
  <outline>
    <contour>
      <point x="430" y="485" type="line" smooth="yes" name="hr00"/>
      <point x="430" y="510"/>
      <point x="410" y="530"/>
      <point x="385" y="530" type="curve" smooth="yes"/>
      <point x="360" y="530"/>
      <point x="340" y="510"/>
      <point x="340" y="485" type="curve" smooth="yes"/>
      <point x="340" y="475" type="line"/>
      <point x="340" y="475"/>
      <point x="300" y="540"/>
      <point x="220" y="540" type="curve" smooth="yes"/>
      <point x="130" y="540"/>
      <point x="50" y="460"/>
      <point x="50" y="290" type="curve" smooth="yes"/>
      <point x="50" y="120"/>
      <point x="130" y="40"/>
      <point x="220" y="40" type="curve" smooth="yes"/>
      <point x="300" y="40"/>
      <point x="340" y="105"/>
      <point x="340" y="105" type="curve"/>
      <point x="340" y="45" type="line"/>
      <point x="340" y="-50"/>
      <point x="300" y="-90"/>
      <point x="240" y="-90" type="curve" smooth="yes"/>
      <point x="200" y="-90"/>
      <point x="170" y="-60"/>
      <point x="160" y="-30" type="curve"/>
      <point x="160" y="-30"/>
      <point x="150" y="-5"/>
      <point x="120" y="-5" type="curve" smooth="yes"/>
      <point x="95" y="-5"/>
      <point x="75" y="-25"/>
      <point x="75" y="-50" type="curve" smooth="yes"/>
      <point x="75" y="-70"/>
      <point x="80" y="-80"/>
      <point x="80" y="-80" type="curve"/>
      <point x="105" y="-135"/>
      <point x="150" y="-180"/>
      <point x="240" y="-180" type="curve" smooth="yes"/>
      <point x="350" y="-180"/>
      <point x="430" y="-100"/>
      <point x="430" y="45" type="curve"/>
    </contour>
    <contour>
      <point x="340" y="200" type="line"/>
      <point x="340" y="200"/>
      <point x="300" y="130"/>
      <point x="240" y="130" type="curve" smooth="yes"/>
      <point x="180" y="130"/>
      <point x="140" y="170"/>
      <point x="140" y="290" type="curve" smooth="yes"/>
      <point x="140" y="410"/>
      <point x="180" y="450"/>
      <point x="240" y="450" type="curve" smooth="yes"/>
      <point x="300" y="450"/>
      <point x="340" y="380"/>
      <point x="340" y="380" type="curve"/>
    </contour>
  </outline>
</glyph>
<glyph name="h" format="1">
  <advance width="490"/>
  <unicode hex="0068"/>
  <outline>
    <contour>
      <point x="70" y="45" type="line" smooth="yes" name="hr00"/>
      <point x="70" y="20"/>
      <point x="90" y="0"/>
      <point x="115" y="0" type="curve" smooth="yes"/>
      <point x="140" y="0"/>
      <point x="160" y="20"/>
      <point x="160" y="45" type="curve" smooth="yes"/>
      <point x="160" y="380" type="line"/>
      <point x="160" y="380"/>
      <point x="200" y="450"/>
      <point x="260" y="450" type="curve" smooth="yes"/>
      <point x="300" y="450"/>
      <point x="330" y="420"/>
      <point x="330" y="370" type="curve" smooth="yes"/>
      <point x="330" y="45" type="line" smooth="yes"/>
      <point x="330" y="20"/>
      <point x="350" y="0"/>
      <point x="375" y="0" type="curve" smooth="yes"/>
      <point x="400" y="0"/>
      <point x="420" y="20"/>
      <point x="420" y="45" type="curve" smooth="yes"/>
      <point x="420" y="370" type="line" smooth="yes"/>
      <point x="420" y="475"/>
      <point x="355" y="540"/>
      <point x="280" y="540" type="curve" smooth="yes"/>
      <point x="200" y="540"/>
      <point x="160" y="475"/>
      <point x="160" y="475" type="curve"/>
      <point x="160" y="655" type="line" smooth="yes"/>
      <point x="160" y="680"/>
      <point x="140" y="700"/>
      <point x="115" y="700" type="curve" smooth="yes"/>
      <point x="90" y="700"/>
      <point x="70" y="680"/>
      <point x="70" y="655" type="curve" smooth="yes"/>
    </contour>
  </outline>
</glyph>
<glyph name="i" format="1">
  <advance width="240"/>
  <unicode hex="0069"/>
  <outline>
    <contour>
      <point x="75" y="45" type="line" name="hr00"/>
      <point x="75" y="20"/>
      <point x="95" y="0"/>
      <point x="120" y="0" type="curve" smooth="yes"/>
      <point x="145" y="0"/>
      <point x="165" y="20"/>
      <point x="165" y="45" type="curve" smooth="yes"/>
      <point x="165" y="485" type="line" smooth="yes"/>
      <point x="165" y="510"/>
      <point x="145" y="530"/>
      <point x="120" y="530" type="curve" smooth="yes"/>
      <point x="95" y="530"/>
      <point x="75" y="510"/>
      <point x="75" y="485" type="curve"/>
    </contour>
    <contour>
      <point x="170" y="650" type="curve"/>
      <point x="170" y="675"/>
      <point x="145" y="700"/>
      <point x="120" y="700" type="curve"/>
      <point x="95" y="700"/>
      <point x="70" y="675"/>
      <point x="70" y="650" type="curve"/>
      <point x="70" y="625"/>
      <point x="95" y="600"/>
      <point x="120" y="600" type="curve" smooth="yes"/>
      <point x="145" y="600"/>
      <point x="170" y="625"/>
    </contour>
  </outline>
</glyph>
<glyph name="j" format="1">
  <advance width="250"/>
  <unicode hex="006A"/>
  <outline>
    <contour>
      <point x="180" y="650" type="curve" smooth="yes" name="hr00"/>
      <point x="180" y="675"/>
      <point x="155" y="700"/>
      <point x="130" y="700" type="curve" smooth="yes"/>
      <point x="105" y="700"/>
      <point x="80" y="675"/>
      <point x="80" y="650" type="curve" smooth="yes"/>
      <point x="80" y="625"/>
      <point x="105" y="600"/>
      <point x="130" y="600" type="curve" smooth="yes"/>
      <point x="155" y="600"/>
      <point x="180" y="625"/>
    </contour>
    <contour>
      <point x="5" y="-90" type="curve"/>
      <point x="-20" y="-90"/>
      <point x="-40" y="-110"/>
      <point x="-40" y="-135" type="curve" smooth="yes"/>
      <point x="-40" y="-160"/>
      <point x="-20" y="-180"/>
      <point x="5" y="-180" type="curve" smooth="yes"/>
      <point x="115" y="-180"/>
      <point x="175" y="-120"/>
      <point x="175" y="0" type="curve" smooth="yes"/>
      <point x="175" y="485" type="line" smooth="yes"/>
      <point x="175" y="510"/>
      <point x="155" y="530"/>
      <point x="130" y="530" type="curve" smooth="yes"/>
      <point x="105" y="530"/>
      <point x="85" y="510"/>
      <point x="85" y="485" type="curve" smooth="yes"/>
      <point x="85" y="0" type="line" smooth="yes"/>
      <point x="85" y="-60"/>
      <point x="55" y="-90"/>
    </contour>
  </outline>
</glyph>
<glyph name="k" format="1">
  <advance width="430"/>
  <unicode hex="006B"/>
  <outline>
    <contour>
      <point x="240" y="330" type="line" name="hr00"/>
      <point x="160" y="330" type="line"/>
      <point x="160" y="655" type="line" smooth="yes"/>
      <point x="160" y="680"/>
      <point x="140" y="700"/>
      <point x="115" y="700" type="curve" smooth="yes"/>
      <point x="90" y="700"/>
      <point x="70" y="680"/>
      <point x="70" y="655" type="curve" smooth="yes"/>
      <point x="70" y="45" type="line" smooth="yes"/>
      <point x="70" y="20"/>
      <point x="90" y="0"/>
      <point x="115" y="0" type="curve" smooth="yes"/>
      <point x="140" y="0"/>
      <point x="160" y="20"/>
      <point x="160" y="45" type="curve" smooth="yes"/>
      <point x="160" y="240" type="line"/>
      <point x="240" y="240" type="line"/>
      <point x="325" y="30" type="line"/>
      <point x="325" y="30"/>
      <point x="335" y="0"/>
      <point x="365" y="0" type="curve" smooth="yes"/>
      <point x="390" y="0"/>
      <point x="410" y="20"/>
      <point x="410" y="45" type="curve" smooth="yes"/>
      <point x="410" y="55"/>
      <point x="405" y="70"/>
      <point x="405" y="70" type="curve"/>
      <point x="315" y="285" type="line"/>
      <point x="390" y="460" type="line"/>
      <point x="390" y="460"/>
      <point x="395" y="475"/>
      <point x="395" y="485" type="curve" smooth="yes"/>
      <point x="395" y="510"/>
      <point x="375" y="530"/>
      <point x="350" y="530" type="curve" smooth="yes"/>
      <point x="320" y="530"/>
      <point x="310" y="500"/>
      <point x="310" y="500" type="curve"/>
    </contour>
  </outline>
</glyph>
<glyph name="l" format="1">
  <advance width="230"/>
  <unicode hex="006C"/>
  <outline>
    <contour>
      <point x="160" y="655" type="line" name="hr00"/>
      <point x="160" y="680"/>
      <point x="140" y="700"/>
      <point x="115" y="700" type="curve" smooth="yes"/>
      <point x="90" y="700"/>
      <point x="70" y="680"/>
      <point x="70" y="655" type="curve" smooth="yes"/>
      <point x="70" y="45" type="line" smooth="yes"/>
      <point x="70" y="20"/>
      <point x="90" y="0"/>
      <point x="115" y="0" type="curve" smooth="yes"/>
      <point x="140" y="0"/>
      <point x="160" y="20"/>
      <point x="160" y="45" type="curve" smooth="yes"/>
    </contour>
  </outline>
</glyph>
<glyph name="m" format="1">
  <advance width="710"/>
  <unicode hex="006D"/>
  <outline>
    <contour>
      <point x="70" y="45" type="line" smooth="yes" name="hr00"/>
      <point x="70" y="20"/>
      <point x="90" y="0"/>
      <point x="115" y="0" type="curve" smooth="yes"/>
      <point x="140" y="0"/>
      <point x="160" y="20"/>
      <point x="160" y="45" type="curve" smooth="yes"/>
      <point x="160" y="380" type="line"/>
      <point x="160" y="380"/>
      <point x="190" y="450"/>
      <point x="250" y="450" type="curve" smooth="yes"/>
      <point x="285" y="450"/>
      <point x="310" y="425"/>
      <point x="310" y="380" type="curve" smooth="yes"/>
      <point x="310" y="45" type="line" smooth="yes"/>
      <point x="310" y="20"/>
      <point x="330" y="0"/>
      <point x="355" y="0" type="curve" smooth="yes"/>
      <point x="380" y="0"/>
      <point x="400" y="20"/>
      <point x="400" y="45" type="curve" smooth="yes"/>
      <point x="400" y="380" type="line"/>
      <point x="400" y="380"/>
      <point x="430" y="450"/>
      <point x="490" y="450" type="curve" smooth="yes"/>
      <point x="525" y="450"/>
      <point x="550" y="425"/>
      <point x="550" y="380" type="curve" smooth="yes"/>
      <point x="550" y="45" type="line" smooth="yes"/>
      <point x="550" y="20"/>
      <point x="570" y="0"/>
      <point x="595" y="0" type="curve" smooth="yes"/>
      <point x="620" y="0"/>
      <point x="640" y="20"/>
      <point x="640" y="45" type="curve" smooth="yes"/>
      <point x="640" y="380" type="line" smooth="yes"/>
      <point x="640" y="480"/>
      <point x="580" y="540"/>
      <point x="510" y="540" type="curve" smooth="yes"/>
      <point x="430" y="540"/>
      <point x="385" y="465"/>
      <point x="385" y="465" type="curve"/>
      <point x="385" y="465"/>
      <point x="345" y="540"/>
      <point x="270" y="540" type="curve" smooth="yes"/>
      <point x="190" y="540"/>
      <point x="160" y="475"/>
      <point x="160" y="475" type="curve"/>
      <point x="160" y="485" type="line" smooth="yes"/>
      <point x="160" y="510"/>
      <point x="140" y="530"/>
      <point x="115" y="530" type="curve" smooth="yes"/>
      <point x="90" y="530"/>
      <point x="70" y="510"/>
      <point x="70" y="485" type="curve" smooth="yes"/>
    </contour>
  </outline>
</glyph>
<glyph name="n" format="1">
  <advance width="490"/>
  <unicode hex="006E"/>
  <outline>
    <contour>
      <point x="70" y="45" type="line" smooth="yes" name="hr00"/>
      <point x="70" y="20"/>
      <point x="90" y="0"/>
      <point x="115" y="0" type="curve" smooth="yes"/>
      <point x="140" y="0"/>
      <point x="160" y="20"/>
      <point x="160" y="45" type="curve" smooth="yes"/>
      <point x="160" y="380" type="line"/>
      <point x="160" y="380"/>
      <point x="200" y="450"/>
      <point x="260" y="450" type="curve" smooth="yes"/>
      <point x="300" y="450"/>
      <point x="330" y="420"/>
      <point x="330" y="370" type="curve" smooth="yes"/>
      <point x="330" y="45" type="line" smooth="yes"/>
      <point x="330" y="20"/>
      <point x="350" y="0"/>
      <point x="375" y="0" type="curve" smooth="yes"/>
      <point x="400" y="0"/>
      <point x="420" y="20"/>
      <point x="420" y="45" type="curve" smooth="yes"/>
      <point x="420" y="370" type="line" smooth="yes"/>
      <point x="420" y="475"/>
      <point x="355" y="540"/>
      <point x="280" y="540" type="curve" smooth="yes"/>
      <point x="200" y="540"/>
      <point x="160" y="475"/>
      <point x="160" y="475" type="curve"/>
      <point x="160" y="485" type="line" smooth="yes"/>
      <point x="160" y="510"/>
      <point x="140" y="530"/>
      <point x="115" y="530" type="curve" smooth="yes"/>
      <point x="90" y="530"/>
      <point x="70" y="510"/>
      <point x="70" y="485" type="curve" smooth="yes"/>
    </contour>
  </outline>
</glyph>
<glyph name="o" format="1">
  <advance width="480"/>
  <unicode hex="006F"/>
  <outline>
    <contour>
      <point x="240" y="80" type="curve" name="hr00"/>
      <point x="180" y="80"/>
      <point x="140" y="120"/>
      <point x="140" y="265" type="curve" smooth="yes"/>
      <point x="140" y="410"/>
      <point x="180" y="450"/>
      <point x="240" y="450" type="curve"/>
      <point x="300" y="450"/>
      <point x="340" y="410"/>
      <point x="340" y="265" type="curve" smooth="yes"/>
      <point x="340" y="120"/>
      <point x="300" y="80"/>
    </contour>
    <contour>
      <point x="240" y="-10" type="curve"/>
      <point x="350" y="-10"/>
      <point x="430" y="70"/>
      <point x="430" y="265" type="curve" smooth="yes"/>
      <point x="430" y="460"/>
      <point x="350" y="540"/>
      <point x="240" y="540" type="curve"/>
      <point x="130" y="540"/>
      <point x="50" y="460"/>
      <point x="50" y="265" type="curve" smooth="yes"/>
      <point x="50" y="70"/>
      <point x="130" y="-10"/>
    </contour>
  </outline>
</glyph>
<glyph name="p" format="1">
  <advance width="500"/>
  <unicode hex="0070"/>
  <outline>
    <contour>
      <point x="160" y="65" type="line" name="hr00"/>
      <point x="160" y="65"/>
      <point x="200" y="0"/>
      <point x="280" y="0" type="curve" smooth="yes"/>
      <point x="370" y="0"/>
      <point x="450" y="80"/>
      <point x="450" y="270" type="curve" smooth="yes"/>
      <point x="450" y="460"/>
      <point x="370" y="540"/>
      <point x="280" y="540" type="curve" smooth="yes"/>
      <point x="200" y="540"/>
      <point x="160" y="475"/>
      <point x="160" y="475" type="curve"/>
      <point x="160" y="485" type="line" smooth="yes"/>
      <point x="160" y="510"/>
      <point x="140" y="530"/>
      <point x="115" y="530" type="curve" smooth="yes"/>
      <point x="90" y="530"/>
      <point x="70" y="510"/>
      <point x="70" y="485" type="curve" smooth="yes"/>
      <point x="70" y="-125" type="line" smooth="yes"/>
      <point x="70" y="-150"/>
      <point x="90" y="-170"/>
      <point x="115" y="-170" type="curve" smooth="yes"/>
      <point x="140" y="-170"/>
      <point x="160" y="-150"/>
      <point x="160" y="-125" type="curve" smooth="yes"/>
    </contour>
    <contour>
      <point x="160" y="380" type="line"/>
      <point x="160" y="380"/>
      <point x="200" y="450"/>
      <point x="260" y="450" type="curve" smooth="yes"/>
      <point x="320" y="450"/>
      <point x="360" y="410"/>
      <point x="360" y="270" type="curve" smooth="yes"/>
      <point x="360" y="130"/>
      <point x="320" y="90"/>
      <point x="260" y="90" type="curve" smooth="yes"/>
      <point x="200" y="90"/>
      <point x="160" y="160"/>
      <point x="160" y="160" type="curve"/>
    </contour>
  </outline>
</glyph>
<glyph name="q" format="1">
  <advance width="500"/>
  <unicode hex="0071"/>
  <outline>
    <contour>
      <point x="340" y="-125" type="line" name="hr00"/>
      <point x="340" y="-150"/>
      <point x="360" y="-170"/>
      <point x="385" y="-170" type="curve" smooth="yes"/>
      <point x="410" y="-170"/>
      <point x="430" y="-150"/>
      <point x="430" y="-125" type="curve" smooth="yes"/>
      <point x="430" y="485" type="line" smooth="yes"/>
      <point x="430" y="510"/>
      <point x="410" y="530"/>
      <point x="385" y="530" type="curve" smooth="yes"/>
      <point x="360" y="530"/>
      <point x="340" y="510"/>
      <point x="340" y="485" type="curve" smooth="yes"/>
      <point x="340" y="475" type="line"/>
      <point x="340" y="475"/>
      <point x="300" y="540"/>
      <point x="220" y="540" type="curve" smooth="yes"/>
      <point x="130" y="540"/>
      <point x="50" y="460"/>
      <point x="50" y="270" type="curve" smooth="yes"/>
      <point x="50" y="80"/>
      <point x="130" y="0"/>
      <point x="220" y="0" type="curve" smooth="yes"/>
      <point x="300" y="0"/>
      <point x="340" y="65"/>
      <point x="340" y="65" type="curve"/>
    </contour>
    <contour>
      <point x="340" y="160" type="line"/>
      <point x="340" y="160"/>
      <point x="300" y="90"/>
      <point x="240" y="90" type="curve" smooth="yes"/>
      <point x="180" y="90"/>
      <point x="140" y="130"/>
      <point x="140" y="270" type="curve" smooth="yes"/>
      <point x="140" y="410"/>
      <point x="180" y="450"/>
      <point x="240" y="450" type="curve" smooth="yes"/>
      <point x="300" y="450"/>
      <point x="340" y="380"/>
      <point x="340" y="380" type="curve"/>
    </contour>
  </outline>
</glyph>
<glyph name="r" format="1">
  <advance width="330"/>
  <unicode hex="0072"/>
  <outline>
    <contour>
      <point x="280" y="440" type="line" smooth="yes" name="hr00"/>
      <point x="310" y="440"/>
      <point x="330" y="460"/>
      <point x="330" y="490" type="curve" smooth="yes"/>
      <point x="330" y="520"/>
      <point x="310" y="540"/>
      <point x="280" y="540" type="curve" smooth="yes"/>
      <point x="200" y="540"/>
      <point x="160" y="475"/>
      <point x="160" y="475" type="curve"/>
      <point x="160" y="485" type="line" smooth="yes"/>
      <point x="160" y="510"/>
      <point x="140" y="530"/>
      <point x="115" y="530" type="curve" smooth="yes"/>
      <point x="90" y="530"/>
      <point x="70" y="510"/>
      <point x="70" y="485" type="curve" smooth="yes"/>
      <point x="70" y="45" type="line" smooth="yes"/>
      <point x="70" y="20"/>
      <point x="90" y="0"/>
      <point x="115" y="0" type="curve" smooth="yes"/>
      <point x="140" y="0"/>
      <point x="160" y="20"/>
      <point x="160" y="45" type="curve" smooth="yes"/>
      <point x="160" y="380" type="line"/>
      <point x="160" y="380"/>
      <point x="200" y="440"/>
      <point x="260" y="440" type="curve" smooth="yes"/>
    </contour>
  </outline>
</glyph>
<glyph name="t" format="1">
  <advance width="335"/>
  <unicode hex="0074"/>
  <outline>
    <contour>
      <point x="255" y="440" type="line" smooth="yes" name="hr00"/>
      <point x="280" y="440"/>
      <point x="300" y="460"/>
      <point x="300" y="485" type="curve" smooth="yes"/>
      <point x="300" y="510"/>
      <point x="280" y="530"/>
      <point x="255" y="530" type="curve" smooth="yes"/>
      <point x="190" y="530" type="line"/>
      <point x="190" y="635" type="line" smooth="yes"/>
      <point x="190" y="660"/>
      <point x="170" y="680"/>
      <point x="145" y="680" type="curve" smooth="yes"/>
      <point x="120" y="680"/>
      <point x="100" y="660"/>
      <point x="100" y="635" type="curve" smooth="yes"/>
      <point x="100" y="530" type="line"/>
      <point x="65" y="530" type="line" smooth="yes"/>
      <point x="40" y="530"/>
      <point x="20" y="510"/>
      <point x="20" y="485" type="curve" smooth="yes"/>
      <point x="20" y="460"/>
      <point x="40" y="440"/>
      <point x="65" y="440" type="curve" smooth="yes"/>
      <point x="100" y="440" type="line"/>
      <point x="100" y="170" type="line" smooth="yes"/>
      <point x="100" y="50"/>
      <point x="160" y="-10"/>
      <point x="270" y="-10" type="curve" smooth="yes"/>
      <point x="295" y="-10"/>
      <point x="315" y="10"/>
      <point x="315" y="35" type="curve" smooth="yes"/>
      <point x="315" y="60"/>
      <point x="295" y="80"/>
      <point x="270" y="80" type="curve" smooth="yes"/>
      <point x="220" y="80"/>
      <point x="190" y="110"/>
      <point x="190" y="170" type="curve" smooth="yes"/>
      <point x="190" y="440" type="line"/>
    </contour>
  </outline>
</glyph>
<glyph name="u" format="1">
  <advance width="490"/>
  <unicode hex="0075"/>
  <outline>
    <contour>
      <point x="420" y="485" type="line" smooth="yes" name="hr00"/>
      <point x="420" y="510"/>
      <point x="400" y="530"/>
      <point x="375" y="530" type="curve" smooth="yes"/>
      <point x="350" y="530"/>
      <point x="330" y="510"/>
      <point x="330" y="485" type="curve" smooth="yes"/>
      <point x="330" y="150" type="line"/>
      <point x="330" y="150"/>
      <point x="290" y="80"/>
      <point x="230" y="80" type="curve" smooth="yes"/>
      <point x="190" y="80"/>
      <point x="160" y="110"/>
      <point x="160" y="160" type="curve" smooth="yes"/>
      <point x="160" y="485" type="line" smooth="yes"/>
      <point x="160" y="510"/>
      <point x="140" y="530"/>
      <point x="115" y="530" type="curve" smooth="yes"/>
      <point x="90" y="530"/>
      <point x="70" y="510"/>
      <point x="70" y="485" type="curve" smooth="yes"/>
      <point x="70" y="160" type="line" smooth="yes"/>
      <point x="70" y="55"/>
      <point x="135" y="-10"/>
      <point x="210" y="-10" type="curve" smooth="yes"/>
      <point x="290" y="-10"/>
      <point x="330" y="55"/>
      <point x="330" y="55" type="curve"/>
      <point x="330" y="45" type="line" smooth="yes"/>
      <point x="330" y="20"/>
      <point x="350" y="0"/>
      <point x="375" y="0" type="curve" smooth="yes"/>
      <point x="400" y="0"/>
      <point x="420" y="20"/>
      <point x="420" y="45" type="curve" smooth="yes"/>
    </contour>
  </outline>
</glyph>
<glyph name="v" format="1">
  <advance width="410"/>
  <unicode hex="0076"/>
  <outline>
    <contour>
      <point x="385" y="455" type="line" name="hr00"/>
      <point x="385" y="455"/>
      <point x="390" y="470"/>
      <point x="390" y="480" type="curve" smooth="yes"/>
      <point x="390" y="510"/>
      <point x="370" y="530"/>
      <point x="350" y="530" type="curve" smooth="yes"/>
      <point x="315" y="530"/>
      <point x="305" y="500"/>
      <point x="305" y="500" type="curve"/>
      <point x="205" y="185" type="line"/>
      <point x="105" y="500" type="line"/>
      <point x="105" y="500"/>
      <point x="95" y="530"/>
      <point x="60" y="530" type="curve" smooth="yes"/>
      <point x="40" y="530"/>
      <point x="20" y="510"/>
      <point x="20" y="480" type="curve" smooth="yes"/>
      <point x="20" y="470"/>
      <point x="25" y="455"/>
      <point x="25" y="455" type="curve"/>
      <point x="155" y="40" type="line" smooth="yes"/>
      <point x="161" y="20"/>
      <point x="180" y="0"/>
      <point x="205" y="0" type="curve" smooth="yes"/>
      <point x="230" y="0"/>
      <point x="249" y="20"/>
      <point x="255" y="40" type="curve" smooth="yes"/>
    </contour>
  </outline>
</glyph>
<glyph name="w" format="1">
  <advance width="570"/>
  <unicode hex="0077"/>
  <outline>
    <contour>
      <point x="285" y="370" type="curve" smooth="yes" name="hr00"/>
      <point x="260" y="370"/>
      <point x="246" y="355"/>
      <point x="240" y="335" type="curve" smooth="yes"/>
      <point x="195" y="175" type="line"/>
      <point x="95" y="500" type="line"/>
      <point x="95" y="500"/>
      <point x="85" y="530"/>
      <point x="50" y="530" type="curve" smooth="yes"/>
      <point x="30" y="530"/>
      <point x="10" y="510"/>
      <point x="10" y="480" type="curve" smooth="yes"/>
      <point x="10" y="470"/>
      <point x="15" y="455"/>
      <point x="15" y="455" type="curve"/>
      <point x="140" y="40" type="line" smooth="yes"/>
      <point x="146" y="20"/>
      <point x="165" y="0"/>
      <point x="190" y="0" type="curve" smooth="yes"/>
      <point x="215" y="0"/>
      <point x="234" y="20"/>
      <point x="240" y="40" type="curve" smooth="yes"/>
      <point x="285" y="200" type="line"/>
      <point x="330" y="40" type="line" smooth="yes"/>
      <point x="336" y="20"/>
      <point x="355" y="0"/>
      <point x="380" y="0" type="curve" smooth="yes"/>
      <point x="405" y="0"/>
      <point x="424" y="20"/>
      <point x="430" y="40" type="curve" smooth="yes"/>
      <point x="555" y="455" type="line"/>
      <point x="555" y="455"/>
      <point x="560" y="470"/>
      <point x="560" y="480" type="curve" smooth="yes"/>
      <point x="560" y="510"/>
      <point x="540" y="530"/>
      <point x="520" y="530" type="curve" smooth="yes"/>
      <point x="485" y="530"/>
      <point x="475" y="500"/>
      <point x="475" y="500" type="curve"/>
      <point x="375" y="175" type="line"/>
      <point x="330" y="335" type="line" smooth="yes"/>
      <point x="324" y="355"/>
      <point x="310" y="370"/>
    </contour>
  </outline>
</glyph>
<glyph name="y" format="1">
  <advance width="470"/>
  <unicode hex="0079"/>
  <outline>
    <contour>
      <point x="190" y="-125" type="line" smooth="yes" name="hr00"/>
      <point x="190" y="-150"/>
      <point x="210" y="-170"/>
      <point x="235" y="-170" type="curve" smooth="yes"/>
      <point x="260" y="-170"/>
      <point x="280" y="-150"/>
      <point x="280" y="-125" type="curve" smooth="yes"/>
      <point x="280" y="60" type="line"/>
      <point x="385" y="155" type="line" smooth="yes"/>
      <point x="395" y="165"/>
      <point x="410" y="180"/>
      <point x="410" y="205" type="curve" smooth="yes"/>
      <point x="410" y="485" type="line" smooth="yes"/>
      <point x="410" y="510"/>
      <point x="390" y="530"/>
      <point x="365" y="530" type="curve" smooth="yes"/>
      <point x="340" y="530"/>
      <point x="320" y="510"/>
      <point x="320" y="485" type="curve" smooth="yes"/>
      <point x="320" y="225" type="line"/>
      <point x="235" y="145" type="line"/>
      <point x="150" y="225" type="line"/>
      <point x="150" y="485" type="line" smooth="yes"/>
      <point x="150" y="510"/>
      <point x="130" y="530"/>
      <point x="105" y="530" type="curve" smooth="yes"/>
      <point x="80" y="530"/>
      <point x="60" y="510"/>
      <point x="60" y="485" type="curve" smooth="yes"/>
      <point x="60" y="205" type="line" smooth="yes"/>
      <point x="60" y="180"/>
      <point x="75" y="164"/>
      <point x="85" y="155" type="curve" smooth="yes"/>
      <point x="190" y="60" type="line"/>
    </contour>
  </outline>
</glyph>
<glyph name="z" format="1">
  <advance width="380"/>
  <unicode hex="007A"/>
  <outline>
    <contour>
      <point x="345" y="440" type="line" name="hr00"/>
      <point x="345" y="440"/>
      <point x="360" y="460"/>
      <point x="360" y="485" type="curve" smooth="yes"/>
      <point x="360" y="510"/>
      <point x="340" y="530"/>
      <point x="315" y="530" type="curve" smooth="yes"/>
      <point x="75" y="530" type="line" smooth="yes"/>
      <point x="50" y="530"/>
      <point x="30" y="510"/>
      <point x="30" y="485" type="curve" smooth="yes"/>
      <point x="30" y="460"/>
      <point x="50" y="440"/>
      <point x="75" y="440" type="curve" smooth="yes"/>
      <point x="240" y="440" type="line"/>
      <point x="35" y="90" type="line"/>
      <point x="35" y="90"/>
      <point x="20" y="70"/>
      <point x="20" y="45" type="curve" smooth="yes"/>
      <point x="20" y="20"/>
      <point x="40" y="0"/>
      <point x="65" y="0" type="curve" smooth="yes"/>
      <point x="315" y="0" type="line" smooth="yes"/>
      <point x="340" y="0"/>
      <point x="360" y="20"/>
      <point x="360" y="45" type="curve" smooth="yes"/>
      <point x="360" y="70"/>
      <point x="340" y="90"/>
      <point x="315" y="90" type="curve" smooth="yes"/>
      <point x="140" y="90" type="line"/>
    </contour>
  </outline>
</glyph>
<glyph name="braceleft" format="1">
  <advance width="350"/>
  <unicode hex="007B"/>
  <outline>
    <contour>
      <point x="155" y="315" type="curve" name="hr00"/>
      <point x="155" y="315"/>
      <point x="220" y="330"/>
      <point x="220" y="420" type="curve" smooth="yes"/>
      <point x="220" y="680" type="line"/>
      <point x="280" y="680" type="line" smooth="yes"/>
      <point x="305" y="680"/>
      <point x="330" y="705"/>
      <point x="330" y="730" type="curve" smooth="yes"/>
      <point x="330" y="755"/>
      <point x="305" y="780"/>
      <point x="280" y="780" type="curve" smooth="yes"/>
      <point x="200" y="780" type="line" smooth="yes"/>
      <point x="155" y="780"/>
      <point x="120" y="745"/>
      <point x="120" y="700" type="curve" smooth="yes"/>
      <point x="120" y="420" type="line" smooth="yes"/>
      <point x="120" y="385"/>
      <point x="100" y="365"/>
      <point x="75" y="365" type="curve" smooth="yes"/>
      <point x="50" y="365"/>
      <point x="30" y="345"/>
      <point x="30" y="315" type="curve"/>
      <point x="30" y="285"/>
      <point x="50" y="265"/>
      <point x="75" y="265" type="curve" smooth="yes"/>
      <point x="100" y="265"/>
      <point x="120" y="245"/>
      <point x="120" y="210" type="curve" smooth="yes"/>
      <point x="120" y="-70" type="line" smooth="yes"/>
      <point x="120" y="-115"/>
      <point x="155" y="-150"/>
      <point x="200" y="-150" type="curve" smooth="yes"/>
      <point x="280" y="-150" type="line" smooth="yes"/>
      <point x="305" y="-150"/>
      <point x="330" y="-125"/>
      <point x="330" y="-100" type="curve" smooth="yes"/>
      <point x="330" y="-75"/>
      <point x="305" y="-50"/>
      <point x="280" y="-50" type="curve" smooth="yes"/>
      <point x="220" y="-50" type="line"/>
      <point x="220" y="210" type="line" smooth="yes"/>
      <point x="220" y="300"/>
    </contour>
  </outline>
</glyph>
<glyph name="bar" format="1">
  <advance width="260"/>
  <unicode hex="007C"/>
  <outline>
    <contour>
      <point x="180" y="730" type="line" smooth="yes" name="hr00"/>
      <point x="180" y="755"/>
      <point x="155" y="780"/>
      <point x="130" y="780" type="curve" smooth="yes"/>
      <point x="105" y="780"/>
      <point x="80" y="755"/>
      <point x="80" y="730" type="curve" smooth="yes"/>
      <point x="80" y="-60" type="line" smooth="yes"/>
      <point x="80" y="-85"/>
      <point x="105" y="-110"/>
      <point x="130" y="-110" type="curve" smooth="yes"/>
      <point x="155" y="-110"/>
      <point x="180" y="-85"/>
      <point x="180" y="-60" type="curve" smooth="yes"/>
    </contour>
  </outline>
</glyph>
<glyph name="braceright" format="1">
  <advance width="350"/>
  <unicode hex="007D"/>
  <outline>
    <contour>
      <point x="195" y="315" type="curve" name="hr00"/>
      <point x="195" y="315"/>
      <point x="130" y="300"/>
      <point x="130" y="210" type="curve" smooth="yes"/>
      <point x="130" y="-50" type="line"/>
      <point x="70" y="-50" type="line" smooth="yes"/>
      <point x="45" y="-50"/>
      <point x="20" y="-75"/>
      <point x="20" y="-100" type="curve" smooth="yes"/>
      <point x="20" y="-125"/>
      <point x="45" y="-150"/>
      <point x="70" y="-150" type="curve" smooth="yes"/>
      <point x="150" y="-150" type="line" smooth="yes"/>
      <point x="195" y="-150"/>
      <point x="230" y="-115"/>
      <point x="230" y="-70" type="curve" smooth="yes"/>
      <point x="230" y="210" type="line" smooth="yes"/>
      <point x="230" y="245"/>
      <point x="250" y="265"/>
      <point x="275" y="265" type="curve" smooth="yes"/>
      <point x="300" y="265"/>
      <point x="320" y="285"/>
      <point x="320" y="315" type="curve" smooth="yes"/>
      <point x="320" y="345"/>
      <point x="300" y="365"/>
      <point x="275" y="365" type="curve" smooth="yes"/>
      <point x="250" y="365"/>
      <point x="230" y="385"/>
      <point x="230" y="420" type="curve" smooth="yes"/>
      <point x="230" y="700" type="line" smooth="yes"/>
      <point x="230" y="745"/>
      <point x="195" y="780"/>
      <point x="150" y="780" type="curve" smooth="yes"/>
      <point x="70" y="780" type="line" smooth="yes"/>
      <point x="45" y="780"/>
      <point x="20" y="755"/>
      <point x="20" y="730" type="curve" smooth="yes"/>
      <point x="20" y="705"/>
      <point x="45" y="680"/>
      <point x="70" y="680" type="curve" smooth="yes"/>
      <point x="130" y="680" type="line"/>
      <point x="130" y="420" type="line" smooth="yes"/>
      <point x="130" y="330"/>
    </contour>
  </outline>
</glyph>
<glyph name="asciitilde" format="1">
  <advance width="420"/>
  <unicode hex="007E"/>
  <outline>
    <contour>
      <point x="280" y="240" type="curve" smooth="yes" name="hr00"/>
      <point x="370" y="240"/>
      <point x="395" y="335"/>
      <point x="395" y="335" type="curve"/>
      <point x="395" y="335"/>
      <point x="400" y="350"/>
      <point x="400" y="360" type="curve" smooth="yes"/>
      <point x="400" y="390"/>
      <point x="385" y="405"/>
      <point x="355" y="405" type="curve" smooth="yes"/>
      <point x="330" y="405"/>
      <point x="320" y="385"/>
      <point x="320" y="385" type="curve"/>
      <point x="305" y="355"/>
      <point x="290" y="340"/>
      <point x="270" y="340" type="curve" smooth="yes"/>
      <point x="230" y="340"/>
      <point x="220" y="410"/>
      <point x="140" y="410" type="curve" smooth="yes"/>
      <point x="50" y="410"/>
      <point x="25" y="315"/>
      <point x="25" y="315" type="curve"/>
      <point x="25" y="315"/>
      <point x="20" y="300"/>
      <point x="20" y="290" type="curve" smooth="yes"/>
      <point x="20" y="260"/>
      <point x="35" y="245"/>
      <point x="65" y="245" type="curve" smooth="yes"/>
      <point x="90" y="245"/>
      <point x="100" y="265"/>
      <point x="100" y="265" type="curve"/>
      <point x="115" y="295"/>
      <point x="130" y="310"/>
      <point x="150" y="310" type="curve" smooth="yes"/>
      <point x="190" y="310"/>
      <point x="200" y="240"/>
    </contour>
  </outline>
</glyph>
<glyph name="exclamdown" format="1">
  <advance width="270"/>
  <unicode hex="00A1"/>
  <outline>
    <contour>
      <point x="135" y="430" type="curve" name="hr00"/>
      <point x="165" y="430"/>
      <point x="190" y="455"/>
      <point x="190" y="485" type="curve" smooth="yes"/>
      <point x="190" y="515"/>
      <point x="165" y="540"/>
      <point x="135" y="540" type="curve" smooth="yes"/>
      <point x="105" y="540"/>
      <point x="80" y="515"/>
      <point x="80" y="485" type="curve" smooth="yes"/>
      <point x="80" y="455"/>
      <point x="105" y="430"/>
    </contour>
    <contour>
      <point x="185" y="290" type="line"/>
      <point x="185" y="315"/>
      <point x="160" y="340"/>
      <point x="135" y="340" type="curve" smooth="yes"/>
      <point x="110" y="340"/>
      <point x="85" y="315"/>
      <point x="85" y="290" type="curve" smooth="yes"/>
      <point x="85" y="-120" type="line" smooth="yes"/>
      <point x="85" y="-145"/>
      <point x="110" y="-170"/>
      <point x="135" y="-170" type="curve" smooth="yes"/>
      <point x="160" y="-170"/>
      <point x="185" y="-145"/>
      <point x="185" y="-120" type="curve"/>
    </contour>
  </outline>
</glyph>
<glyph name="cent" format="1">
  <advance width="435"/>
  <unicode hex="00A2"/>
  <outline>
    <contour>
      <point x="195" y="-35" type="line" smooth="yes" name="hr00"/>
      <point x="195" y="-60"/>
      <point x="215" y="-80"/>
      <point x="240" y="-80" type="curve" smooth="yes"/>
      <point x="265" y="-80"/>
      <point x="285" y="-60"/>
      <point x="285" y="-35" type="curve" smooth="yes"/>
      <point x="285" y="-5" type="line"/>
      <point x="340" y="5"/>
      <point x="380" y="45"/>
      <point x="400" y="90" type="curve"/>
      <point x="400" y="90"/>
      <point x="405" y="100"/>
      <point x="405" y="120" type="curve" smooth="yes"/>
      <point x="405" y="145"/>
      <point x="385" y="165"/>
      <point x="360" y="165" type="curve" smooth="yes"/>
      <point x="330" y="165"/>
      <point x="320" y="140"/>
      <point x="320" y="140" type="curve"/>
      <point x="310" y="110"/>
      <point x="280" y="80"/>
      <point x="240" y="80" type="curve" smooth="yes"/>
      <point x="180" y="80"/>
      <point x="140" y="120"/>
      <point x="140" y="265" type="curve" smooth="yes"/>
      <point x="140" y="410"/>
      <point x="180" y="450"/>
      <point x="240" y="450" type="curve" smooth="yes"/>
      <point x="275" y="450"/>
      <point x="305" y="420"/>
      <point x="310" y="400" type="curve"/>
      <point x="310" y="400"/>
      <point x="320" y="375"/>
      <point x="350" y="375" type="curve" smooth="yes"/>
      <point x="375" y="375"/>
      <point x="395" y="395"/>
      <point x="395" y="420" type="curve" smooth="yes"/>
      <point x="395" y="440"/>
      <point x="390" y="450"/>
      <point x="390" y="450" type="curve"/>
      <point x="370" y="490"/>
      <point x="335" y="525"/>
      <point x="285" y="535" type="curve"/>
      <point x="285" y="565" type="line" smooth="yes"/>
      <point x="285" y="590"/>
      <point x="265" y="610"/>
      <point x="240" y="610" type="curve" smooth="yes"/>
      <point x="215" y="610"/>
      <point x="195" y="590"/>
      <point x="195" y="565" type="curve" smooth="yes"/>
      <point x="195" y="535" type="line"/>
      <point x="120" y="520"/>
      <point x="50" y="450"/>
      <point x="50" y="265" type="curve" smooth="yes"/>
      <point x="50" y="80"/>
      <point x="120" y="10"/>
      <point x="195" y="-5" type="curve"/>
    </contour>
  </outline>
</glyph>
<glyph name="sterling" format="1">
  <advance width="510"/>
  <unicode hex="00A3"/>
  <outline>
    <contour>
      <point x="350" y="240" type="line" smooth="yes" name="hr00"/>
      <point x="375" y="240"/>
      <point x="400" y="265"/>
      <point x="400" y="290" type="curve" smooth="yes"/>
      <point x="400" y="315"/>
      <point x="375" y="340"/>
      <point x="350" y="340" type="curve" smooth="yes"/>
      <point x="250" y="340" type="line"/>
      <point x="250" y="340"/>
      <point x="170" y="446"/>
      <point x="170" y="520" type="curve" smooth="yes"/>
      <point x="170" y="575"/>
      <point x="205" y="610"/>
      <point x="260" y="610" type="curve" smooth="yes"/>
      <point x="305" y="610"/>
      <point x="330" y="585"/>
      <point x="340" y="560" type="curve"/>
      <point x="340" y="560"/>
      <point x="350" y="530"/>
      <point x="385" y="530" type="curve" smooth="yes"/>
      <point x="410" y="530"/>
      <point x="430" y="550"/>
      <point x="430" y="580" type="curve" smooth="yes"/>
      <point x="430" y="595"/>
      <point x="425" y="610"/>
      <point x="425" y="610" type="curve"/>
      <point x="410" y="655"/>
      <point x="355" y="710"/>
      <point x="260" y="710" type="curve" smooth="yes"/>
      <point x="155" y="710"/>
      <point x="70" y="635"/>
      <point x="70" y="520" type="curve" smooth="yes"/>
      <point x="70" y="430"/>
      <point x="150" y="340"/>
      <point x="150" y="340" type="curve"/>
      <point x="110" y="340" type="line" smooth="yes"/>
      <point x="85" y="340"/>
      <point x="60" y="315"/>
      <point x="60" y="290" type="curve" smooth="yes"/>
      <point x="60" y="265"/>
      <point x="85" y="240"/>
      <point x="110" y="240" type="curve" smooth="yes"/>
      <point x="170" y="240" type="line"/>
      <point x="170" y="100"/>
      <point x="50" y="120"/>
      <point x="50" y="40" type="curve" smooth="yes"/>
      <point x="50" y="10"/>
      <point x="70" y="-10"/>
      <point x="100" y="-10" type="curve" smooth="yes"/>
      <point x="140" y="-10"/>
      <point x="180" y="20"/>
      <point x="220" y="20" type="curve" smooth="yes"/>
      <point x="260" y="20"/>
      <point x="330" y="-10"/>
      <point x="370" y="-10" type="curve" smooth="yes"/>
      <point x="450" y="-10"/>
      <point x="500" y="40"/>
      <point x="500" y="80" type="curve" smooth="yes"/>
      <point x="500" y="110"/>
      <point x="480" y="130"/>
      <point x="450" y="130" type="curve" smooth="yes"/>
      <point x="420" y="130"/>
      <point x="420" y="90"/>
      <point x="370" y="90" type="curve" smooth="yes"/>
      <point x="320" y="90"/>
      <point x="280" y="120"/>
      <point x="220" y="120" type="curve"/>
      <point x="220" y="120"/>
      <point x="270" y="160"/>
      <point x="270" y="240" type="curve"/>
    </contour>
  </outline>
</glyph>
<glyph name="currency" format="1">
  <advance width="530"/>
  <unicode hex="00A4"/>
  <outline>
    <contour>
      <point x="350" y="140" type="line" smooth="yes" name="hr00"/>
      <point x="375" y="140"/>
      <point x="400" y="165"/>
      <point x="400" y="190" type="curve" smooth="yes"/>
      <point x="400" y="215"/>
      <point x="375" y="240"/>
      <point x="350" y="240" type="curve" smooth="yes"/>
      <point x="200" y="240" type="line"/>
      <point x="200" y="280" type="line"/>
      <point x="410" y="300"/>
      <point x="490" y="380"/>
      <point x="490" y="510" type="curve" smooth="yes"/>
      <point x="490" y="620"/>
      <point x="400" y="710"/>
      <point x="250" y="710" type="curve" smooth="yes"/>
      <point x="190" y="710"/>
      <point x="150" y="700"/>
      <point x="150" y="700" type="curve"/>
      <point x="120" y="695"/>
      <point x="100" y="675"/>
      <point x="100" y="650" type="curve" smooth="yes"/>
      <point x="100" y="380" type="line"/>
      <point x="70" y="380" type="line" smooth="yes"/>
      <point x="45" y="380"/>
      <point x="20" y="355"/>
      <point x="20" y="330" type="curve" smooth="yes"/>
      <point x="20" y="305"/>
      <point x="45" y="280"/>
      <point x="70" y="280" type="curve" smooth="yes"/>
      <point x="100" y="280" type="line"/>
      <point x="100" y="240" type="line"/>
      <point x="70" y="240" type="line" smooth="yes"/>
      <point x="45" y="240"/>
      <point x="20" y="215"/>
      <point x="20" y="190" type="curve" smooth="yes"/>
      <point x="20" y="165"/>
      <point x="45" y="140"/>
      <point x="70" y="140" type="curve" smooth="yes"/>
      <point x="100" y="140" type="line"/>
      <point x="100" y="50" type="line" smooth="yes"/>
      <point x="100" y="25"/>
      <point x="125" y="0"/>
      <point x="150" y="0" type="curve" smooth="yes"/>
      <point x="175" y="0"/>
      <point x="200" y="25"/>
      <point x="200" y="50" type="curve" smooth="yes"/>
      <point x="200" y="140" type="line"/>
    </contour>
    <contour>
      <point x="200" y="605" type="line"/>
      <point x="200" y="605"/>
      <point x="225" y="610"/>
      <point x="250" y="610" type="curve" smooth="yes"/>
      <point x="340" y="610"/>
      <point x="390" y="560"/>
      <point x="390" y="510" type="curve" smooth="yes"/>
      <point x="390" y="440"/>
      <point x="340" y="390"/>
      <point x="200" y="380" type="curve"/>
    </contour>
  </outline>
</glyph>
<glyph name="yen" format="1">
  <advance width="490"/>
  <unicode hex="00A5"/>
  <outline>
    <contour>
      <point x="385" y="140" type="line" smooth="yes" name="hr00"/>
      <point x="410" y="140"/>
      <point x="435" y="165"/>
      <point x="435" y="190" type="curve" smooth="yes"/>
      <point x="435" y="215"/>
      <point x="410" y="240"/>
      <point x="385" y="240" type="curve" smooth="yes"/>
      <point x="295" y="240" type="line"/>
      <point x="295" y="280" type="line"/>
      <point x="385" y="280" type="line" smooth="yes"/>
      <point x="410" y="280"/>
      <point x="435" y="305"/>
      <point x="435" y="330" type="curve" smooth="yes"/>
      <point x="435" y="355"/>
      <point x="410" y="380"/>
      <point x="385" y="380" type="curve" smooth="yes"/>
      <point x="350" y="380" type="line"/>
      <point x="435" y="460" type="line" smooth="yes"/>
      <point x="445" y="470"/>
      <point x="460" y="485"/>
      <point x="460" y="510" type="curve" smooth="yes"/>
      <point x="460" y="650" type="line" smooth="yes"/>
      <point x="460" y="675"/>
      <point x="435" y="700"/>
      <point x="410" y="700" type="curve" smooth="yes"/>
      <point x="385" y="700"/>
      <point x="360" y="675"/>
      <point x="360" y="650" type="curve" smooth="yes"/>
      <point x="360" y="530" type="line"/>
      <point x="245" y="420" type="line"/>
      <point x="130" y="530" type="line"/>
      <point x="130" y="650" type="line" smooth="yes"/>
      <point x="130" y="675"/>
      <point x="105" y="700"/>
      <point x="80" y="700" type="curve" smooth="yes"/>
      <point x="55" y="700"/>
      <point x="30" y="675"/>
      <point x="30" y="650" type="curve" smooth="yes"/>
      <point x="30" y="510" type="line" smooth="yes"/>
      <point x="30" y="485"/>
      <point x="45" y="470"/>
      <point x="55" y="460" type="curve" smooth="yes"/>
      <point x="140" y="380" type="line"/>
      <point x="105" y="380" type="line" smooth="yes"/>
      <point x="80" y="380"/>
      <point x="55" y="355"/>
      <point x="55" y="330" type="curve" smooth="yes"/>
      <point x="55" y="305"/>
      <point x="80" y="280"/>
      <point x="105" y="280" type="curve" smooth="yes"/>
      <point x="195" y="280" type="line"/>
      <point x="195" y="240" type="line"/>
      <point x="105" y="240" type="line" smooth="yes"/>
      <point x="80" y="240"/>
      <point x="55" y="215"/>
      <point x="55" y="190" type="curve" smooth="yes"/>
      <point x="55" y="165"/>
      <point x="80" y="140"/>
      <point x="105" y="140" type="curve" smooth="yes"/>
      <point x="195" y="140" type="line"/>
      <point x="195" y="50" type="line" smooth="yes"/>
      <point x="195" y="25"/>
      <point x="220" y="0"/>
      <point x="245" y="0" type="curve" smooth="yes"/>
      <point x="270" y="0"/>
      <point x="295" y="25"/>
      <point x="295" y="50" type="curve" smooth="yes"/>
      <point x="295" y="140" type="line"/>
    </contour>
  </outline>
</glyph>
<glyph name="section" format="1">
  <advance width="490"/>
  <unicode hex="00A7"/>
  <outline>
    <contour>
      <point x="450" y="250" type="curve" name="hr00"/>
      <point x="450" y="450"/>
      <point x="180" y="410"/>
      <point x="180" y="540" type="curve" smooth="yes"/>
      <point x="180" y="590"/>
      <point x="210" y="620"/>
      <point x="260" y="620" type="curve" smooth="yes"/>
      <point x="300" y="620"/>
      <point x="330" y="590"/>
      <point x="340" y="560" type="curve"/>
      <point x="340" y="560"/>
      <point x="350" y="535"/>
      <point x="380" y="535" type="curve" smooth="yes"/>
      <point x="405" y="535"/>
      <point x="425" y="555"/>
      <point x="425" y="580" type="curve" smooth="yes"/>
      <point x="425" y="600"/>
      <point x="420" y="610"/>
      <point x="420" y="610" type="curve"/>
      <point x="395" y="665"/>
      <point x="350" y="710"/>
      <point x="260" y="710" type="curve" smooth="yes"/>
      <point x="160" y="710"/>
      <point x="90" y="640"/>
      <point x="90" y="540" type="curve" smooth="yes"/>
      <point x="90" y="470"/>
      <point x="130" y="430"/>
      <point x="130" y="430" type="curve"/>
      <point x="130" y="430"/>
      <point x="40" y="380"/>
      <point x="40" y="280" type="curve" smooth="yes"/>
      <point x="40" y="80"/>
      <point x="310" y="120"/>
      <point x="310" y="-10" type="curve" smooth="yes"/>
      <point x="310" y="-60"/>
      <point x="280" y="-90"/>
      <point x="230" y="-90" type="curve" smooth="yes"/>
      <point x="190" y="-90"/>
      <point x="160" y="-60"/>
      <point x="150" y="-30" type="curve"/>
      <point x="150" y="-30"/>
      <point x="140" y="-5"/>
      <point x="110" y="-5" type="curve" smooth="yes"/>
      <point x="85" y="-5"/>
      <point x="65" y="-25"/>
      <point x="65" y="-50" type="curve" smooth="yes"/>
      <point x="65" y="-70"/>
      <point x="70" y="-80"/>
      <point x="70" y="-80" type="curve"/>
      <point x="95" y="-135"/>
      <point x="140" y="-180"/>
      <point x="230" y="-180" type="curve" smooth="yes"/>
      <point x="330" y="-180"/>
      <point x="400" y="-110"/>
      <point x="400" y="-10" type="curve" smooth="yes"/>
      <point x="400" y="60"/>
      <point x="360" y="100"/>
      <point x="360" y="100" type="curve"/>
      <point x="360" y="100"/>
      <point x="450" y="150"/>
    </contour>
    <contour>
      <point x="360" y="250" type="curve"/>
      <point x="360" y="180"/>
      <point x="300" y="150"/>
      <point x="300" y="150" type="curve"/>
      <point x="300" y="150"/>
      <point x="130" y="200"/>
      <point x="130" y="280" type="curve"/>
      <point x="130" y="350"/>
      <point x="190" y="380"/>
      <point x="190" y="380" type="curve"/>
      <point x="190" y="380"/>
      <point x="360" y="330"/>
    </contour>
  </outline>
</glyph>
<glyph name="dieresis" format="1">
  <advance width="330"/>
  <unicode hex="00A8"/>
  <outline>
    <contour>
      <point x="85" y="700" type="curve" smooth="yes" name="hr00"/>
      <point x="55" y="700"/>
      <point x="30" y="675"/>
      <point x="30" y="645" type="curve" smooth="yes"/>
      <point x="30" y="615"/>
      <point x="55" y="590"/>
      <point x="85" y="590" type="curve" smooth="yes"/>
      <point x="115" y="590"/>
      <point x="140" y="615"/>
      <point x="140" y="645" type="curve" smooth="yes"/>
      <point x="140" y="675"/>
      <point x="115" y="700"/>
    </contour>
    <contour>
      <point x="245" y="700" type="curve" smooth="yes"/>
      <point x="215" y="700"/>
      <point x="190" y="675"/>
      <point x="190" y="645" type="curve" smooth="yes"/>
      <point x="190" y="615"/>
      <point x="215" y="590"/>
      <point x="245" y="590" type="curve" smooth="yes"/>
      <point x="275" y="590"/>
      <point x="300" y="615"/>
      <point x="300" y="645" type="curve" smooth="yes"/>
      <point x="300" y="675"/>
      <point x="275" y="700"/>
    </contour>
  </outline>
</glyph>
<glyph name="copyright" format="1">
  <advance width="840"/>
  <unicode hex="00A9"/>
  <outline>
    <contour>
      <point x="790" y="350" type="curve" smooth="yes" name="hr00"/>
      <point x="790" y="600"/>
      <point x="640" y="750"/>
      <point x="420" y="750" type="curve" smooth="yes"/>
      <point x="200" y="750"/>
      <point x="50" y="600"/>
      <point x="50" y="350" type="curve" smooth="yes"/>
      <point x="50" y="100"/>
      <point x="200" y="-50"/>
      <point x="420" y="-50" type="curve" smooth="yes"/>
      <point x="640" y="-50"/>
      <point x="790" y="100"/>
    </contour>
    <contour>
      <point x="140" y="350" type="curve" smooth="yes"/>
      <point x="140" y="545"/>
      <point x="255" y="660"/>
      <point x="420" y="660" type="curve" smooth="yes"/>
      <point x="585" y="660"/>
      <point x="700" y="545"/>
      <point x="700" y="350" type="curve" smooth="yes"/>
      <point x="700" y="155"/>
      <point x="585" y="40"/>
      <point x="420" y="40" type="curve" smooth="yes"/>
      <point x="255" y="40"/>
      <point x="140" y="155"/>
    </contour>
    <contour>
      <point x="330" y="350" type="curve" smooth="yes"/>
      <point x="330" y="455"/>
      <point x="365" y="490"/>
      <point x="425" y="490" type="curve" smooth="yes"/>
      <point x="460" y="490"/>
      <point x="480" y="470"/>
      <point x="485" y="455" type="curve"/>
      <point x="485" y="455"/>
      <point x="495" y="430"/>
      <point x="525" y="430" type="curve" smooth="yes"/>
      <point x="550" y="430"/>
      <point x="570" y="450"/>
      <point x="570" y="475" type="curve" smooth="yes"/>
      <point x="570" y="495"/>
      <point x="565" y="505"/>
      <point x="565" y="505" type="curve"/>
      <point x="545" y="545"/>
      <point x="510" y="580"/>
      <point x="425" y="580" type="curve" smooth="yes"/>
      <point x="315" y="580"/>
      <point x="240" y="505"/>
      <point x="240" y="350" type="curve" smooth="yes"/>
      <point x="240" y="195"/>
      <point x="315" y="120"/>
      <point x="425" y="120" type="curve" smooth="yes"/>
      <point x="515" y="120"/>
      <point x="550" y="155"/>
      <point x="575" y="205" type="curve"/>
      <point x="575" y="205"/>
      <point x="580" y="215"/>
      <point x="580" y="235" type="curve" smooth="yes"/>
      <point x="580" y="260"/>
      <point x="560" y="280"/>
      <point x="535" y="280" type="curve" smooth="yes"/>
      <point x="505" y="280"/>
      <point x="495" y="255"/>
      <point x="495" y="255" type="curve"/>
      <point x="485" y="230"/>
      <point x="465" y="210"/>
      <point x="425" y="210" type="curve" smooth="yes"/>
      <point x="365" y="210"/>
      <point x="330" y="245"/>
    </contour>
  </outline>
</glyph>
<glyph name="ordfeminine" format="1">
  <advance width="340"/>
  <unicode hex="00AA"/>
  <outline>
    <contour>
      <point x="160" y="630" type="curve" smooth="yes" name="hr00"/>
      <point x="190" y="630"/>
      <point x="210" y="610"/>
      <point x="210" y="580" type="curve" smooth="yes"/>
      <point x="210" y="560" type="line"/>
      <point x="210" y="560"/>
      <point x="190" y="570"/>
      <point x="160" y="570" type="curve" smooth="yes"/>
      <point x="85" y="570"/>
      <point x="40" y="525"/>
      <point x="40" y="460" type="curve" smooth="yes"/>
      <point x="40" y="395"/>
      <point x="85" y="350"/>
      <point x="131" y="350" type="curve" smooth="yes"/>
      <point x="179" y="350"/>
      <point x="209" y="387"/>
      <point x="210" y="389" type="curve"/>
      <point x="210" y="365"/>
      <point x="225" y="350"/>
      <point x="250" y="350" type="curve" smooth="yes"/>
      <point x="275" y="350"/>
      <point x="290" y="365"/>
      <point x="290" y="390" type="curve" smooth="yes"/>
      <point x="290" y="580" type="line" smooth="yes"/>
      <point x="290" y="665"/>
      <point x="245" y="710"/>
      <point x="170" y="710" type="curve" smooth="yes"/>
      <point x="100" y="710"/>
      <point x="65" y="675"/>
      <point x="65" y="650" type="curve" smooth="yes"/>
      <point x="65" y="625"/>
      <point x="80" y="610"/>
      <point x="100" y="610" type="curve" smooth="yes"/>
      <point x="130" y="610"/>
      <point x="130" y="630"/>
    </contour>
    <contour>
      <point x="210" y="450" type="line"/>
      <point x="210" y="450"/>
      <point x="190" y="420"/>
      <point x="160" y="420" type="curve" smooth="yes"/>
      <point x="135" y="420"/>
      <point x="120" y="435"/>
      <point x="120" y="460" type="curve" smooth="yes"/>
      <point x="120" y="485"/>
      <point x="135" y="500"/>
      <point x="170" y="500" type="curve" smooth="yes"/>
      <point x="190" y="500"/>
      <point x="210" y="490"/>
      <point x="210" y="490" type="curve"/>
    </contour>
  </outline>
</glyph>
<glyph name="guillemotleft" format="1">
  <advance width="510"/>
  <unicode hex="00AB"/>
  <outline>
    <contour>
      <point x="30" y="260" type="curve" name="hr00"/>
      <point x="30" y="240"/>
      <point x="40" y="230"/>
      <point x="50" y="220" type="curve" smooth="yes"/>
      <point x="200" y="70" type="line"/>
      <point x="200" y="70"/>
      <point x="210" y="60"/>
      <point x="230" y="60" type="curve" smooth="yes"/>
      <point x="255" y="60"/>
      <point x="280" y="84"/>
      <point x="280" y="110" type="curve" smooth="yes"/>
      <point x="280" y="130"/>
      <point x="270" y="140"/>
      <point x="270" y="140" type="curve"/>
      <point x="150" y="260" type="line"/>
      <point x="270" y="380" type="line"/>
      <point x="270" y="380"/>
      <point x="280" y="390"/>
      <point x="280" y="410" type="curve" smooth="yes"/>
      <point x="280" y="436"/>
      <point x="255" y="460"/>
      <point x="230" y="460" type="curve" smooth="yes"/>
      <point x="210" y="460"/>
      <point x="200" y="450"/>
      <point x="200" y="450" type="curve"/>
      <point x="50" y="300" type="line" smooth="yes"/>
      <point x="40" y="290"/>
      <point x="30" y="280"/>
    </contour>
    <contour>
      <point x="230" y="260" type="curve"/>
      <point x="230" y="240"/>
      <point x="240" y="230"/>
      <point x="250" y="220" type="curve" smooth="yes"/>
      <point x="400" y="70" type="line"/>
      <point x="400" y="70"/>
      <point x="410" y="60"/>
      <point x="430" y="60" type="curve" smooth="yes"/>
      <point x="455" y="60"/>
      <point x="480" y="84"/>
      <point x="480" y="110" type="curve" smooth="yes"/>
      <point x="480" y="130"/>
      <point x="470" y="140"/>
      <point x="470" y="140" type="curve"/>
      <point x="350" y="260" type="line"/>
      <point x="470" y="380" type="line"/>
      <point x="470" y="380"/>
      <point x="480" y="390"/>
      <point x="480" y="410" type="curve" smooth="yes"/>
      <point x="480" y="436"/>
      <point x="455" y="460"/>
      <point x="430" y="460" type="curve" smooth="yes"/>
      <point x="410" y="460"/>
      <point x="400" y="450"/>
      <point x="400" y="450" type="curve"/>
      <point x="250" y="300" type="line" smooth="yes"/>
      <point x="240" y="290"/>
      <point x="230" y="280"/>
    </contour>
  </outline>
</glyph>
<glyph name="logicalnot" format="1">
  <advance width="420"/>
  <unicode hex="00AC"/>
  <outline>
    <contour>
      <point x="350" y="210" type="curve" smooth="yes" name="hr00"/>
      <point x="375" y="210"/>
      <point x="400" y="235"/>
      <point x="400" y="260" type="curve" smooth="yes"/>
      <point x="400" y="390" type="line" smooth="yes"/>
      <point x="400" y="415"/>
      <point x="375" y="440"/>
      <point x="350" y="440" type="curve" smooth="yes"/>
      <point x="70" y="440" type="line" smooth="yes"/>
      <point x="45" y="440"/>
      <point x="20" y="415"/>
      <point x="20" y="390" type="curve" smooth="yes"/>
      <point x="20" y="365"/>
      <point x="45" y="340"/>
      <point x="70" y="340" type="curve" smooth="yes"/>
      <point x="300" y="340" type="line"/>
      <point x="300" y="260" type="line" smooth="yes"/>
      <point x="300" y="235"/>
      <point x="325" y="210"/>
    </contour>
  </outline>
</glyph>
<glyph name="registered" format="1">
  <advance width="840"/>
  <unicode hex="00AE"/>
  <outline>
    <contour>
      <point x="495" y="435" type="curve" smooth="yes" name="hr00"/>
      <point x="495" y="390"/>
      <point x="465" y="360"/>
      <point x="365" y="350" type="curve"/>
      <point x="365" y="485" type="line"/>
      <point x="365" y="485"/>
      <point x="385" y="490"/>
      <point x="415" y="490" type="curve" smooth="yes"/>
      <point x="470" y="490"/>
      <point x="495" y="465"/>
    </contour>
    <contour>
      <point x="525" y="320" type="line"/>
      <point x="525" y="320"/>
      <point x="585" y="350"/>
      <point x="585" y="435" type="curve" smooth="yes"/>
      <point x="585" y="515"/>
      <point x="515" y="580"/>
      <point x="415" y="580" type="curve" smooth="yes"/>
      <point x="370" y="580"/>
      <point x="325" y="570"/>
      <point x="325" y="570" type="curve"/>
      <point x="295" y="565"/>
      <point x="275" y="545"/>
      <point x="275" y="521" type="curve" smooth="yes"/>
      <point x="275" y="168" type="line" smooth="yes"/>
      <point x="275" y="140"/>
      <point x="293" y="120"/>
      <point x="318" y="120" type="curve" smooth="yes"/>
      <point x="345" y="120"/>
      <point x="365" y="140"/>
      <point x="365" y="168" type="curve" smooth="yes"/>
      <point x="365" y="265" type="line"/>
      <point x="410" y="270"/>
      <point x="445" y="281"/>
      <point x="445" y="280" type="curve"/>
      <point x="495" y="150" type="line"/>
      <point x="495" y="150"/>
      <point x="505" y="120"/>
      <point x="535" y="120" type="curve" smooth="yes"/>
      <point x="560" y="120"/>
      <point x="580" y="140"/>
      <point x="580" y="165" type="curve" smooth="yes"/>
      <point x="580" y="175"/>
      <point x="575" y="190"/>
      <point x="575" y="190" type="curve"/>
    </contour>
    <contour>
      <point x="790" y="350" type="curve" smooth="yes"/>
      <point x="790" y="600"/>
      <point x="640" y="750"/>
      <point x="420" y="750" type="curve" smooth="yes"/>
      <point x="200" y="750"/>
      <point x="50" y="600"/>
      <point x="50" y="350" type="curve" smooth="yes"/>
      <point x="50" y="100"/>
      <point x="200" y="-50"/>
      <point x="420" y="-50" type="curve" smooth="yes"/>
      <point x="640" y="-50"/>
      <point x="790" y="100"/>
    </contour>
    <contour>
      <point x="140" y="350" type="curve" smooth="yes"/>
      <point x="140" y="545"/>
      <point x="255" y="660"/>
      <point x="420" y="660" type="curve" smooth="yes"/>
      <point x="585" y="660"/>
      <point x="700" y="545"/>
      <point x="700" y="350" type="curve" smooth="yes"/>
      <point x="700" y="155"/>
      <point x="585" y="40"/>
      <point x="420" y="40" type="curve" smooth="yes"/>
      <point x="255" y="40"/>
      <point x="140" y="155"/>
    </contour>
  </outline>
</glyph>
<glyph name="macron" format="1">
  <advance width="340"/>
  <unicode hex="00AF"/>
  <outline>
    <contour>
      <point x="265" y="610" type="line" smooth="yes" name="hr00"/>
      <point x="290" y="610"/>
      <point x="310" y="630"/>
      <point x="310" y="655" type="curve" smooth="yes"/>
      <point x="310" y="680"/>
      <point x="290" y="700"/>
      <point x="265" y="700" type="curve" smooth="yes"/>
      <point x="75" y="700" type="line" smooth="yes"/>
      <point x="50" y="700"/>
      <point x="30" y="680"/>
      <point x="30" y="655" type="curve" smooth="yes"/>
      <point x="30" y="630"/>
      <point x="50" y="610"/>
      <point x="75" y="610" type="curve" smooth="yes"/>
    </contour>
  </outline>
</glyph>
<glyph name="degree" format="1">
  <advance width="300"/>
  <unicode hex="00B0"/>
  <outline>
    <contour>
      <point x="270" y="610" type="curve" name="hr00"/>
      <point x="270" y="675"/>
      <point x="215" y="730"/>
      <point x="150" y="730" type="curve"/>
      <point x="85" y="730"/>
      <point x="30" y="675"/>
      <point x="30" y="610" type="curve"/>
      <point x="30" y="545"/>
      <point x="85" y="490"/>
      <point x="150" y="490" type="curve" smooth="yes"/>
      <point x="215" y="490"/>
      <point x="270" y="545"/>
    </contour>
    <contour>
      <point x="100" y="610" type="curve"/>
      <point x="100" y="635"/>
      <point x="125" y="660"/>
      <point x="150" y="660" type="curve"/>
      <point x="175" y="660"/>
      <point x="200" y="635"/>
      <point x="200" y="610" type="curve"/>
      <point x="200" y="585"/>
      <point x="175" y="560"/>
      <point x="150" y="560" type="curve" smooth="yes"/>
      <point x="125" y="560"/>
      <point x="100" y="585"/>
    </contour>
  </outline>
</glyph>
<glyph name="plusminus" format="1">
  <advance width="400"/>
  <unicode hex="00B1"/>
  <outline>
    <contour>
      <point x="330" y="50" type="line" smooth="yes" name="hr00"/>
      <point x="355" y="50"/>
      <point x="380" y="75"/>
      <point x="380" y="100" type="curve" smooth="yes"/>
      <point x="380" y="125"/>
      <point x="355" y="150"/>
      <point x="330" y="150" type="curve" smooth="yes"/>
      <point x="250" y="150" type="line"/>
      <point x="250" y="270" type="line"/>
      <point x="330" y="270" type="line" smooth="yes"/>
      <point x="355" y="270"/>
      <point x="380" y="295"/>
      <point x="380" y="320" type="curve" smooth="yes"/>
      <point x="380" y="345"/>
      <point x="355" y="370"/>
      <point x="330" y="370" type="curve" smooth="yes"/>
      <point x="250" y="370" type="line"/>
      <point x="250" y="470" type="line" smooth="yes"/>
      <point x="250" y="495"/>
      <point x="225" y="520"/>
      <point x="200" y="520" type="curve" smooth="yes"/>
      <point x="175" y="520"/>
      <point x="150" y="495"/>
      <point x="150" y="470" type="curve" smooth="yes"/>
      <point x="150" y="370" type="line"/>
      <point x="70" y="370" type="line" smooth="yes"/>
      <point x="45" y="370"/>
      <point x="20" y="345"/>
      <point x="20" y="320" type="curve" smooth="yes"/>
      <point x="20" y="295"/>
      <point x="45" y="270"/>
      <point x="70" y="270" type="curve" smooth="yes"/>
      <point x="150" y="270" type="line"/>
      <point x="150" y="150" type="line"/>
      <point x="70" y="150" type="line" smooth="yes"/>
      <point x="45" y="150"/>
      <point x="20" y="125"/>
      <point x="20" y="100" type="curve" smooth="yes"/>
      <point x="20" y="75"/>
      <point x="45" y="50"/>
      <point x="70" y="50" type="curve" smooth="yes"/>
    </contour>
  </outline>
</glyph>
<glyph name="twosuperior" format="1">
  <advance width="320"/>
  <unicode hex="00B2"/>
  <outline>
    <contour>
      <point x="180" y="590" type="curve" smooth="yes" name="hr00"/>
      <point x="180" y="510"/>
      <point x="54" y="430"/>
      <point x="55" y="430" type="curve"/>
      <point x="55" y="430"/>
      <point x="30" y="410"/>
      <point x="30" y="390" type="curve" smooth="yes"/>
      <point x="30" y="365"/>
      <point x="45" y="350"/>
      <point x="70" y="350" type="curve" smooth="yes"/>
      <point x="240" y="350" type="line" smooth="yes"/>
      <point x="265" y="350"/>
      <point x="280" y="365"/>
      <point x="280" y="390" type="curve" smooth="yes"/>
      <point x="280" y="415"/>
      <point x="265" y="430"/>
      <point x="240" y="430" type="curve" smooth="yes"/>
      <point x="156" y="430" type="line"/>
      <point x="156" y="430"/>
      <point x="260" y="500"/>
      <point x="260" y="590" type="curve" smooth="yes"/>
      <point x="260" y="670"/>
      <point x="220" y="710"/>
      <point x="150" y="710" type="curve" smooth="yes"/>
      <point x="80" y="710"/>
      <point x="45" y="675"/>
      <point x="45" y="650" type="curve" smooth="yes"/>
      <point x="45" y="625"/>
      <point x="60" y="610"/>
      <point x="80" y="610" type="curve" smooth="yes"/>
      <point x="110" y="610"/>
      <point x="110" y="630"/>
      <point x="140" y="630" type="curve" smooth="yes"/>
      <point x="165" y="630"/>
      <point x="180" y="615"/>
    </contour>
  </outline>
</glyph>
<glyph name="threesuperior" format="1">
  <advance width="305"/>
  <unicode hex="00B3"/>
  <outline>
    <contour>
      <point x="260" y="605" type="curve" smooth="yes" name="hr00"/>
      <point x="260" y="670"/>
      <point x="220" y="710"/>
      <point x="140" y="710" type="curve" smooth="yes"/>
      <point x="70" y="710"/>
      <point x="35" y="675"/>
      <point x="35" y="650" type="curve" smooth="yes"/>
      <point x="35" y="625"/>
      <point x="50" y="610"/>
      <point x="70" y="610" type="curve" smooth="yes"/>
      <point x="100" y="610"/>
      <point x="100" y="630"/>
      <point x="140" y="630" type="curve" smooth="yes"/>
      <point x="165" y="630"/>
      <point x="180" y="615"/>
      <point x="180" y="600" type="curve" smooth="yes"/>
      <point x="180" y="585"/>
      <point x="165" y="570"/>
      <point x="150" y="570" type="curve" smooth="yes"/>
      <point x="130" y="570" type="line" smooth="yes"/>
      <point x="105" y="570"/>
      <point x="90" y="555"/>
      <point x="90" y="530" type="curve" smooth="yes"/>
      <point x="90" y="505"/>
      <point x="105" y="490"/>
      <point x="130" y="490" type="curve" smooth="yes"/>
      <point x="145" y="490" type="line" smooth="yes"/>
      <point x="170" y="490"/>
      <point x="185" y="475"/>
      <point x="185" y="460" type="curve" smooth="yes"/>
      <point x="185" y="445"/>
      <point x="170" y="430"/>
      <point x="135" y="430" type="curve" smooth="yes"/>
      <point x="95" y="430"/>
      <point x="95" y="450"/>
      <point x="65" y="450" type="curve" smooth="yes"/>
      <point x="45" y="450"/>
      <point x="30" y="435"/>
      <point x="30" y="410" type="curve" smooth="yes"/>
      <point x="30" y="385"/>
      <point x="65" y="350"/>
      <point x="135" y="350" type="curve" smooth="yes"/>
      <point x="225" y="350"/>
      <point x="265" y="390"/>
      <point x="265" y="455" type="curve" smooth="yes"/>
      <point x="265" y="513"/>
      <point x="208" y="534"/>
      <point x="205" y="535" type="curve"/>
      <point x="210" y="537"/>
      <point x="260" y="557"/>
    </contour>
  </outline>
</glyph>
<glyph name="acute" format="1">
  <advance width="270"/>
  <unicode hex="00B4"/>
  <outline>
    <contour>
      <point x="220" y="610" type="line" name="hr00"/>
      <point x="220" y="610"/>
      <point x="240" y="620"/>
      <point x="240" y="655" type="curve" smooth="yes"/>
      <point x="240" y="680"/>
      <point x="220" y="700"/>
      <point x="190" y="700" type="curve" smooth="yes"/>
      <point x="175" y="700"/>
      <point x="160" y="690"/>
      <point x="160" y="690" type="curve"/>
      <point x="50" y="630" type="line"/>
      <point x="50" y="630"/>
      <point x="30" y="620"/>
      <point x="30" y="585" type="curve" smooth="yes"/>
      <point x="30" y="560"/>
      <point x="50" y="540"/>
      <point x="80" y="540" type="curve" smooth="yes"/>
      <point x="95" y="540"/>
      <point x="110" y="550"/>
      <point x="110" y="550" type="curve"/>
    </contour>
  </outline>
</glyph>
<glyph name="mu" format="1">
  <advance width="490"/>
  <unicode hex="00B5"/>
  <outline>
    <contour>
      <point x="160" y="405" type="line" name="hr00"/>
      <point x="160" y="408" type="line"/>
      <point x="160" y="485" type="line" smooth="yes"/>
      <point x="160" y="510"/>
      <point x="140" y="530"/>
      <point x="115" y="530" type="curve" smooth="yes"/>
      <point x="90" y="530"/>
      <point x="70" y="510"/>
      <point x="70" y="485" type="curve" smooth="yes"/>
      <point x="70" y="-125" type="line" smooth="yes"/>
      <point x="70" y="-150"/>
      <point x="90" y="-170"/>
      <point x="115" y="-170" type="curve" smooth="yes"/>
      <point x="140" y="-170"/>
      <point x="160" y="-150"/>
      <point x="160" y="-125" type="curve" smooth="yes"/>
      <point x="160" y="0" type="line"/>
      <point x="160" y="0"/>
      <point x="180" y="-10"/>
      <point x="210" y="-10" type="curve" smooth="yes"/>
      <point x="290" y="-10"/>
      <point x="330" y="55"/>
      <point x="330" y="55" type="curve"/>
      <point x="330" y="45" type="line" smooth="yes"/>
      <point x="330" y="20"/>
      <point x="350" y="0"/>
      <point x="375" y="0" type="curve" smooth="yes"/>
      <point x="400" y="0"/>
      <point x="420" y="20"/>
      <point x="420" y="45" type="curve" smooth="yes"/>
      <point x="420" y="485" type="line" smooth="yes"/>
      <point x="420" y="510"/>
      <point x="400" y="530"/>
      <point x="375" y="530" type="curve" smooth="yes"/>
      <point x="350" y="530"/>
      <point x="330" y="510"/>
      <point x="330" y="485" type="curve" smooth="yes"/>
      <point x="330" y="150" type="line"/>
      <point x="330" y="150"/>
      <point x="290" y="80"/>
      <point x="230" y="80" type="curve" smooth="yes"/>
      <point x="190" y="80"/>
      <point x="160" y="110"/>
      <point x="160" y="160" type="curve" smooth="yes"/>
    </contour>
  </outline>
</glyph>
<glyph name="paragraph" format="1">
  <advance width="470"/>
  <unicode hex="00B6"/>
  <outline>
    <contour>
      <point x="395" y="610" type="line" smooth="yes" name="hr00"/>
      <point x="420" y="610"/>
      <point x="440" y="630"/>
      <point x="440" y="655" type="curve"/>
      <point x="440" y="680"/>
      <point x="420" y="700"/>
      <point x="395" y="700" type="curve"/>
      <point x="135" y="700" type="line" smooth="yes"/>
      <point x="80" y="700"/>
      <point x="30" y="650"/>
      <point x="30" y="590" type="curve" smooth="yes"/>
      <point x="30" y="530"/>
      <point x="80" y="480"/>
      <point x="135" y="480" type="curve"/>
      <point x="135" y="-125" type="line" smooth="yes"/>
      <point x="135" y="-150"/>
      <point x="155" y="-170"/>
      <point x="180" y="-170" type="curve" smooth="yes"/>
      <point x="205" y="-170"/>
      <point x="225" y="-150"/>
      <point x="225" y="-125" type="curve" smooth="yes"/>
      <point x="225" y="610" type="line"/>
      <point x="275" y="610" type="line"/>
      <point x="275" y="-125" type="line" smooth="yes"/>
      <point x="275" y="-150"/>
      <point x="295" y="-170"/>
      <point x="320" y="-170" type="curve" smooth="yes"/>
      <point x="345" y="-170"/>
      <point x="365" y="-150"/>
      <point x="365" y="-125" type="curve" smooth="yes"/>
      <point x="365" y="610" type="line"/>
    </contour>
  </outline>
</glyph>
<glyph name="periodcentered" format="1">
  <advance width="170"/>
  <unicode hex="00B7"/>
  <outline>
    <contour>
      <point x="85" y="405" type="curve" name="hr00"/>
      <point x="55" y="405"/>
      <point x="30" y="380"/>
      <point x="30" y="350" type="curve" smooth="yes"/>
      <point x="30" y="320"/>
      <point x="55" y="295"/>
      <point x="85" y="295" type="curve"/>
      <point x="115" y="295"/>
      <point x="140" y="320"/>
      <point x="140" y="350" type="curve"/>
      <point x="140" y="380"/>
      <point x="115" y="405"/>
    </contour>
  </outline>
</glyph>
<glyph name="cedilla" format="1">
  <advance width="310"/>
  <unicode hex="00B8"/>
  <outline>
    <contour>
      <point x="125" y="-50" type="line" name="hr00"/>
      <point x="125" y="-50"/>
      <point x="110" y="-80"/>
      <point x="110" y="-90" type="curve" smooth="yes"/>
      <point x="110" y="-110"/>
      <point x="125" y="-120"/>
      <point x="150" y="-120" type="curve"/>
      <point x="170" y="-120" type="line"/>
      <point x="180" y="-120"/>
      <point x="190" y="-130"/>
      <point x="190" y="-140" type="curve" smooth="yes"/>
      <point x="190" y="-150"/>
      <point x="180" y="-160"/>
      <point x="170" y="-160" type="curve"/>
      <point x="135" y="-160" type="line"/>
      <point x="110" y="-160"/>
      <point x="95" y="-175"/>
      <point x="95" y="-200" type="curve" smooth="yes"/>
      <point x="95" y="-225"/>
      <point x="110" y="-240"/>
      <point x="135" y="-240" type="curve"/>
      <point x="170" y="-240" type="line"/>
      <point x="235" y="-240"/>
      <point x="280" y="-195"/>
      <point x="280" y="-140" type="curve" smooth="yes"/>
      <point x="280" y="-60"/>
      <point x="190" y="-50"/>
      <point x="190" y="-50" type="curve"/>
      <point x="219" y="10" type="line"/>
      <point x="153" y="10" type="line"/>
    </contour>
  </outline>
</glyph>
<glyph name="onesuperior" format="1">
  <advance width="250"/>
  <unicode hex="00B9"/>
  <outline>
    <contour>
      <point x="200" y="670" type="line" smooth="yes" name="hr00"/>
      <point x="200" y="695"/>
      <point x="185" y="710"/>
      <point x="160" y="710" type="curve" smooth="yes"/>
      <point x="140" y="710"/>
      <point x="120" y="685"/>
      <point x="120" y="685" type="curve"/>
      <point x="35" y="590" type="line"/>
      <point x="35" y="590"/>
      <point x="20" y="575"/>
      <point x="20" y="560" type="curve" smooth="yes"/>
      <point x="20" y="535"/>
      <point x="35" y="520"/>
      <point x="60" y="520" type="curve" smooth="yes"/>
      <point x="80" y="520"/>
      <point x="95" y="540"/>
      <point x="95" y="540" type="curve"/>
      <point x="120" y="570" type="line"/>
      <point x="120" y="390" type="line" smooth="yes"/>
      <point x="120" y="365"/>
      <point x="135" y="350"/>
      <point x="160" y="350" type="curve" smooth="yes"/>
      <point x="185" y="350"/>
      <point x="200" y="365"/>
      <point x="200" y="390" type="curve" smooth="yes"/>
    </contour>
  </outline>
</glyph>
<glyph name="ordmasculine" format="1">
  <advance width="340"/>
  <unicode hex="00BA"/>
  <outline>
    <contour>
      <point x="170" y="350" type="curve" smooth="yes" name="hr00"/>
      <point x="255" y="350"/>
      <point x="310" y="405"/>
      <point x="310" y="530" type="curve" smooth="yes"/>
      <point x="310" y="655"/>
      <point x="255" y="710"/>
      <point x="170" y="710" type="curve" smooth="yes"/>
      <point x="85" y="710"/>
      <point x="30" y="655"/>
      <point x="30" y="530" type="curve" smooth="yes"/>
      <point x="30" y="405"/>
      <point x="85" y="350"/>
    </contour>
    <contour>
      <point x="170" y="440" type="curve" smooth="yes"/>
      <point x="140" y="440"/>
      <point x="120" y="460"/>
      <point x="120" y="530" type="curve" smooth="yes"/>
      <point x="120" y="600"/>
      <point x="140" y="620"/>
      <point x="170" y="620" type="curve" smooth="yes"/>
      <point x="200" y="620"/>
      <point x="220" y="600"/>
      <point x="220" y="530" type="curve" smooth="yes"/>
      <point x="220" y="460"/>
      <point x="200" y="440"/>
    </contour>
  </outline>
</glyph>
<glyph name="guillemotright" format="1">
  <advance width="510"/>
  <unicode hex="00BB"/>
  <outline>
    <contour>
      <point x="480" y="260" type="curve" name="hr00"/>
      <point x="480" y="280"/>
      <point x="470" y="290"/>
      <point x="460" y="300" type="curve" smooth="yes"/>
      <point x="310" y="450" type="line"/>
      <point x="310" y="450"/>
      <point x="300" y="460"/>
      <point x="280" y="460" type="curve" smooth="yes"/>
      <point x="255" y="460"/>
      <point x="230" y="436"/>
      <point x="230" y="410" type="curve" smooth="yes"/>
      <point x="230" y="390"/>
      <point x="240" y="380"/>
      <point x="240" y="380" type="curve"/>
      <point x="360" y="260" type="line"/>
      <point x="240" y="140" type="line"/>
      <point x="240" y="140"/>
      <point x="230" y="130"/>
      <point x="230" y="110" type="curve" smooth="yes"/>
      <point x="230" y="84"/>
      <point x="255" y="60"/>
      <point x="280" y="60" type="curve" smooth="yes"/>
      <point x="300" y="60"/>
      <point x="310" y="70"/>
      <point x="310" y="70" type="curve"/>
      <point x="460" y="220" type="line" smooth="yes"/>
      <point x="470" y="230"/>
      <point x="480" y="240"/>
    </contour>
    <contour>
      <point x="280" y="260" type="curve"/>
      <point x="280" y="280"/>
      <point x="270" y="290"/>
      <point x="260" y="300" type="curve" smooth="yes"/>
      <point x="110" y="450" type="line"/>
      <point x="110" y="450"/>
      <point x="100" y="460"/>
      <point x="80" y="460" type="curve" smooth="yes"/>
      <point x="55" y="460"/>
      <point x="30" y="436"/>
      <point x="30" y="410" type="curve" smooth="yes"/>
      <point x="30" y="390"/>
      <point x="40" y="380"/>
      <point x="40" y="380" type="curve"/>
      <point x="160" y="260" type="line"/>
      <point x="40" y="140" type="line"/>
      <point x="40" y="140"/>
      <point x="30" y="130"/>
      <point x="30" y="110" type="curve" smooth="yes"/>
      <point x="30" y="84"/>
      <point x="55" y="60"/>
      <point x="80" y="60" type="curve" smooth="yes"/>
      <point x="100" y="60"/>
      <point x="110" y="70"/>
      <point x="110" y="70" type="curve"/>
      <point x="260" y="220" type="line" smooth="yes"/>
      <point x="270" y="230"/>
      <point x="280" y="240"/>
    </contour>
  </outline>
</glyph>
<glyph name="onequarter" format="1">
  <advance width="670"/>
  <unicode hex="00BC"/>
  <outline>
    <contour>
      <point x="140" y="80" type="line" name="hr00"/>
      <point x="140" y="80"/>
      <point x="130" y="65"/>
      <point x="130" y="50" type="curve" smooth="yes"/>
      <point x="130" y="25"/>
      <point x="155" y="0"/>
      <point x="180" y="0" type="curve" smooth="yes"/>
      <point x="210" y="0"/>
      <point x="225" y="30"/>
      <point x="225" y="30" type="curve"/>
      <point x="555" y="620" type="line"/>
      <point x="547" y="612"/>
      <point x="565" y="627"/>
      <point x="565" y="650" type="curve" smooth="yes"/>
      <point x="565" y="675"/>
      <point x="540" y="700"/>
      <point x="515" y="700" type="curve" smooth="yes"/>
      <point x="485" y="700"/>
      <point x="470" y="670"/>
      <point x="470" y="670" type="curve"/>
    </contour>
    <contour>
      <point x="210" y="670" type="line" smooth="yes"/>
      <point x="210" y="695"/>
      <point x="195" y="710"/>
      <point x="170" y="710" type="curve" smooth="yes"/>
      <point x="150" y="710"/>
      <point x="130" y="685"/>
      <point x="130" y="685" type="curve"/>
      <point x="45" y="590" type="line"/>
      <point x="45" y="590"/>
      <point x="30" y="575"/>
      <point x="30" y="560" type="curve" smooth="yes"/>
      <point x="30" y="535"/>
      <point x="45" y="520"/>
      <point x="70" y="520" type="curve" smooth="yes"/>
      <point x="90" y="520"/>
      <point x="105" y="540"/>
      <point x="105" y="540" type="curve"/>
      <point x="130" y="570" type="line"/>
      <point x="130" y="390" type="line" smooth="yes"/>
      <point x="130" y="365"/>
      <point x="145" y="350"/>
      <point x="170" y="350" type="curve" smooth="yes"/>
      <point x="195" y="350"/>
      <point x="210" y="365"/>
      <point x="210" y="390" type="curve" smooth="yes"/>
    </contour>
    <contour>
      <point x="610" y="160" type="line" smooth="yes"/>
      <point x="610" y="185"/>
      <point x="595" y="200"/>
      <point x="570" y="200" type="curve" smooth="yes"/>
      <point x="545" y="200"/>
      <point x="530" y="185"/>
      <point x="530" y="160" type="curve" smooth="yes"/>
      <point x="530" y="150" type="line"/>
      <point x="490" y="150" type="line"/>
      <point x="575" y="290" type="line"/>
      <point x="575" y="290"/>
      <point x="585" y="305"/>
      <point x="585" y="320" type="curve" smooth="yes"/>
      <point x="585" y="340"/>
      <point x="565" y="360"/>
      <point x="540" y="360" type="curve" smooth="yes"/>
      <point x="525" y="360"/>
      <point x="515" y="345"/>
      <point x="515" y="345" type="curve"/>
      <point x="395" y="150" type="line"/>
      <point x="395" y="150"/>
      <point x="380" y="130"/>
      <point x="380" y="110" type="curve" smooth="yes"/>
      <point x="380" y="85"/>
      <point x="395" y="70"/>
      <point x="420" y="70" type="curve" smooth="yes"/>
      <point x="530" y="70" type="line"/>
      <point x="530" y="40" type="line" smooth="yes"/>
      <point x="530" y="15"/>
      <point x="545" y="0"/>
      <point x="570" y="0" type="curve" smooth="yes"/>
      <point x="595" y="0"/>
      <point x="610" y="15"/>
      <point x="610" y="40" type="curve" smooth="yes"/>
      <point x="610" y="70" type="line"/>
      <point x="635" y="70"/>
      <point x="650" y="85"/>
      <point x="650" y="110" type="curve" smooth="yes"/>
      <point x="650" y="135"/>
      <point x="635" y="150"/>
      <point x="610" y="150" type="curve"/>
    </contour>
  </outline>
</glyph>
<glyph name="onehalf" format="1">
  <advance width="710"/>
  <unicode hex="00BD"/>
  <outline>
    <contour>
      <point x="140" y="80" type="line" name="hr00"/>
      <point x="140" y="80"/>
      <point x="130" y="65"/>
      <point x="130" y="50" type="curve" smooth="yes"/>
      <point x="130" y="25"/>
      <point x="155" y="0"/>
      <point x="180" y="0" type="curve" smooth="yes"/>
      <point x="210" y="0"/>
      <point x="225" y="30"/>
      <point x="225" y="30" type="curve"/>
      <point x="555" y="620" type="line"/>
      <point x="547" y="612"/>
      <point x="565" y="627"/>
      <point x="565" y="650" type="curve" smooth="yes"/>
      <point x="565" y="675"/>
      <point x="540" y="700"/>
      <point x="515" y="700" type="curve" smooth="yes"/>
      <point x="485" y="700"/>
      <point x="470" y="670"/>
      <point x="470" y="670" type="curve"/>
    </contour>
    <contour>
      <point x="210" y="670" type="line" smooth="yes"/>
      <point x="210" y="695"/>
      <point x="195" y="710"/>
      <point x="170" y="710" type="curve" smooth="yes"/>
      <point x="150" y="710"/>
      <point x="130" y="685"/>
      <point x="130" y="685" type="curve"/>
      <point x="45" y="590" type="line"/>
      <point x="45" y="590"/>
      <point x="30" y="575"/>
      <point x="30" y="560" type="curve" smooth="yes"/>
      <point x="30" y="535"/>
      <point x="45" y="520"/>
      <point x="70" y="520" type="curve" smooth="yes"/>
      <point x="90" y="520"/>
      <point x="105" y="540"/>
      <point x="105" y="540" type="curve"/>
      <point x="130" y="570" type="line"/>
      <point x="130" y="390" type="line" smooth="yes"/>
      <point x="130" y="365"/>
      <point x="145" y="350"/>
      <point x="170" y="350" type="curve" smooth="yes"/>
      <point x="195" y="350"/>
      <point x="210" y="365"/>
      <point x="210" y="390" type="curve" smooth="yes"/>
    </contour>
    <contour>
      <point x="570" y="240" type="curve" smooth="yes"/>
      <point x="570" y="160"/>
      <point x="444" y="80"/>
      <point x="445" y="80" type="curve"/>
      <point x="445" y="80"/>
      <point x="420" y="60"/>
      <point x="420" y="40" type="curve" smooth="yes"/>
      <point x="420" y="15"/>
      <point x="435" y="0"/>
      <point x="460" y="0" type="curve" smooth="yes"/>
      <point x="630" y="0" type="line" smooth="yes"/>
      <point x="655" y="0"/>
      <point x="670" y="15"/>
      <point x="670" y="40" type="curve" smooth="yes"/>
      <point x="670" y="65"/>
      <point x="655" y="80"/>
      <point x="630" y="80" type="curve" smooth="yes"/>
      <point x="546" y="80" type="line"/>
      <point x="546" y="80"/>
      <point x="650" y="150"/>
      <point x="650" y="240" type="curve" smooth="yes"/>
      <point x="650" y="320"/>
      <point x="610" y="360"/>
      <point x="540" y="360" type="curve" smooth="yes"/>
      <point x="470" y="360"/>
      <point x="435" y="325"/>
      <point x="435" y="300" type="curve" smooth="yes"/>
      <point x="435" y="275"/>
      <point x="450" y="260"/>
      <point x="470" y="260" type="curve" smooth="yes"/>
      <point x="500" y="260"/>
      <point x="500" y="280"/>
      <point x="530" y="280" type="curve" smooth="yes"/>
      <point x="555" y="280"/>
      <point x="570" y="265"/>
    </contour>
  </outline>
</glyph>
<glyph name="threequarters" format="1">
  <advance width="670"/>
  <unicode hex="00BE"/>
  <outline>
    <contour>
      <point x="140" y="80" type="line" name="hr00"/>
      <point x="140" y="80"/>
      <point x="130" y="65"/>
      <point x="130" y="50" type="curve" smooth="yes"/>
      <point x="130" y="25"/>
      <point x="155" y="0"/>
      <point x="180" y="0" type="curve" smooth="yes"/>
      <point x="210" y="0"/>
      <point x="225" y="30"/>
      <point x="225" y="30" type="curve"/>
      <point x="555" y="620" type="line"/>
      <point x="547" y="612"/>
      <point x="565" y="627"/>
      <point x="565" y="650" type="curve" smooth="yes"/>
      <point x="565" y="675"/>
      <point x="540" y="700"/>
      <point x="515" y="700" type="curve" smooth="yes"/>
      <point x="485" y="700"/>
      <point x="470" y="670"/>
      <point x="470" y="670" type="curve"/>
    </contour>
    <contour>
      <point x="610" y="160" type="line" smooth="yes"/>
      <point x="610" y="185"/>
      <point x="595" y="200"/>
      <point x="570" y="200" type="curve" smooth="yes"/>
      <point x="545" y="200"/>
      <point x="530" y="185"/>
      <point x="530" y="160" type="curve" smooth="yes"/>
      <point x="530" y="150" type="line"/>
      <point x="490" y="150" type="line"/>
      <point x="575" y="290" type="line"/>
      <point x="575" y="290"/>
      <point x="585" y="305"/>
      <point x="585" y="320" type="curve" smooth="yes"/>
      <point x="585" y="340"/>
      <point x="565" y="360"/>
      <point x="540" y="360" type="curve" smooth="yes"/>
      <point x="525" y="360"/>
      <point x="515" y="345"/>
      <point x="515" y="345" type="curve"/>
      <point x="395" y="150" type="line"/>
      <point x="395" y="150"/>
      <point x="380" y="130"/>
      <point x="380" y="110" type="curve" smooth="yes"/>
      <point x="380" y="85"/>
      <point x="395" y="70"/>
      <point x="420" y="70" type="curve" smooth="yes"/>
      <point x="530" y="70" type="line"/>
      <point x="530" y="40" type="line" smooth="yes"/>
      <point x="530" y="15"/>
      <point x="545" y="0"/>
      <point x="570" y="0" type="curve" smooth="yes"/>
      <point x="595" y="0"/>
      <point x="610" y="15"/>
      <point x="610" y="40" type="curve" smooth="yes"/>
      <point x="610" y="70" type="line"/>
      <point x="635" y="70"/>
      <point x="650" y="85"/>
      <point x="650" y="110" type="curve" smooth="yes"/>
      <point x="650" y="135"/>
      <point x="635" y="150"/>
      <point x="610" y="150" type="curve"/>
    </contour>
    <contour>
      <point x="260" y="605" type="curve" smooth="yes"/>
      <point x="260" y="670"/>
      <point x="220" y="710"/>
      <point x="140" y="710" type="curve" smooth="yes"/>
      <point x="70" y="710"/>
      <point x="35" y="675"/>
      <point x="35" y="650" type="curve" smooth="yes"/>
      <point x="35" y="625"/>
      <point x="50" y="610"/>
      <point x="70" y="610" type="curve" smooth="yes"/>
      <point x="100" y="610"/>
      <point x="100" y="630"/>
      <point x="140" y="630" type="curve" smooth="yes"/>
      <point x="165" y="630"/>
      <point x="180" y="615"/>
      <point x="180" y="600" type="curve" smooth="yes"/>
      <point x="180" y="585"/>
      <point x="165" y="570"/>
      <point x="150" y="570" type="curve" smooth="yes"/>
      <point x="130" y="570" type="line" smooth="yes"/>
      <point x="105" y="570"/>
      <point x="90" y="555"/>
      <point x="90" y="530" type="curve" smooth="yes"/>
      <point x="90" y="505"/>
      <point x="105" y="490"/>
      <point x="130" y="490" type="curve" smooth="yes"/>
      <point x="145" y="490" type="line" smooth="yes"/>
      <point x="170" y="490"/>
      <point x="185" y="475"/>
      <point x="185" y="460" type="curve" smooth="yes"/>
      <point x="185" y="445"/>
      <point x="170" y="430"/>
      <point x="135" y="430" type="curve" smooth="yes"/>
      <point x="95" y="430"/>
      <point x="95" y="450"/>
      <point x="65" y="450" type="curve" smooth="yes"/>
      <point x="45" y="450"/>
      <point x="30" y="435"/>
      <point x="30" y="410" type="curve" smooth="yes"/>
      <point x="30" y="385"/>
      <point x="65" y="350"/>
      <point x="135" y="350" type="curve" smooth="yes"/>
      <point x="225" y="350"/>
      <point x="265" y="390"/>
      <point x="265" y="455" type="curve" smooth="yes"/>
      <point x="265" y="513"/>
      <point x="208" y="534"/>
      <point x="205" y="535" type="curve"/>
      <point x="210" y="537"/>
      <point x="260" y="557"/>
    </contour>
  </outline>
</glyph>
<glyph name="questiondown" format="1">
  <advance width="390"/>
  <unicode hex="00BF"/>
  <outline>
    <contour>
      <point x="20" y="10" type="curve" name="hr00"/>
      <point x="20" y="-105"/>
      <point x="105" y="-180"/>
      <point x="200" y="-180" type="curve" smooth="yes"/>
      <point x="290" y="-180"/>
      <point x="350" y="-120"/>
      <point x="365" y="-70" type="curve"/>
      <point x="365" y="-70"/>
      <point x="370" y="-55"/>
      <point x="370" y="-40" type="curve" smooth="yes"/>
      <point x="370" y="-10"/>
      <point x="350" y="10"/>
      <point x="325" y="10" type="curve" smooth="yes"/>
      <point x="290" y="10"/>
      <point x="280" y="-20"/>
      <point x="280" y="-20" type="curve"/>
      <point x="270" y="-50"/>
      <point x="240" y="-80"/>
      <point x="200" y="-80" type="curve" smooth="yes"/>
      <point x="155" y="-80"/>
      <point x="120" y="-45"/>
      <point x="120" y="10" type="curve" smooth="yes"/>
      <point x="120" y="100"/>
      <point x="250" y="140"/>
      <point x="250" y="290" type="curve" smooth="yes"/>
      <point x="250" y="315"/>
      <point x="225" y="340"/>
      <point x="200" y="340" type="curve" smooth="yes"/>
      <point x="175" y="340"/>
      <point x="150" y="315"/>
      <point x="150" y="290" type="curve" smooth="yes"/>
      <point x="150" y="170"/>
      <point x="20" y="130"/>
    </contour>
    <contour>
      <point x="200" y="430" type="curve"/>
      <point x="230" y="430"/>
      <point x="255" y="455"/>
      <point x="255" y="485" type="curve" smooth="yes"/>
      <point x="255" y="515"/>
      <point x="230" y="540"/>
      <point x="200" y="540" type="curve" smooth="yes"/>
      <point x="170" y="540"/>
      <point x="145" y="515"/>
      <point x="145" y="485" type="curve" smooth="yes"/>
      <point x="145" y="455"/>
      <point x="170" y="430"/>
    </contour>
  </outline>
</glyph>
<glyph name="AE" format="1">
  <advance width="705"/>
  <unicode hex="00C6"/>
  <outline>
    <contour>
      <point x="-10" y="80" type="line" name="hr00"/>
      <point x="-10" y="80"/>
      <point x="-20" y="65"/>
      <point x="-20" y="50" type="curve" smooth="yes"/>
      <point x="-20" y="25"/>
      <point x="5" y="0"/>
      <point x="30" y="0" type="curve" smooth="yes"/>
      <point x="60" y="0"/>
      <point x="75" y="30"/>
      <point x="75" y="30" type="curve"/>
      <point x="165" y="200" type="line"/>
      <point x="345" y="200" type="line"/>
      <point x="345" y="50" type="line" smooth="yes"/>
      <point x="345" y="25"/>
      <point x="370" y="0"/>
      <point x="395" y="0" type="curve" smooth="yes"/>
      <point x="615" y="0" type="line" smooth="yes"/>
      <point x="640" y="0"/>
      <point x="665" y="25"/>
      <point x="665" y="50" type="curve" smooth="yes"/>
      <point x="665" y="75"/>
      <point x="640" y="100"/>
      <point x="615" y="100" type="curve" smooth="yes"/>
      <point x="445" y="100" type="line"/>
      <point x="445" y="340" type="line"/>
      <point x="605" y="340" type="line" smooth="yes"/>
      <point x="630" y="340"/>
      <point x="655" y="365"/>
      <point x="655" y="390" type="curve" smooth="yes"/>
      <point x="655" y="415"/>
      <point x="630" y="440"/>
      <point x="605" y="440" type="curve" smooth="yes"/>
      <point x="445" y="440" type="line"/>
      <point x="445" y="600" type="line"/>
      <point x="615" y="600" type="line" smooth="yes"/>
      <point x="640" y="600"/>
      <point x="665" y="625"/>
      <point x="665" y="650" type="curve" smooth="yes"/>
      <point x="665" y="675"/>
      <point x="640" y="700"/>
      <point x="615" y="700" type="curve" smooth="yes"/>
      <point x="345" y="700" type="line" smooth="yes"/>
      <point x="315" y="700"/>
      <point x="300" y="670"/>
      <point x="300" y="670" type="curve"/>
    </contour>
    <contour>
      <point x="345" y="545" type="line"/>
      <point x="345" y="300" type="line"/>
      <point x="215" y="300" type="line"/>
    </contour>
  </outline>
</glyph>
<glyph name="Ccedilla" format="1">
  <advance width="505"/>
  <unicode hex="00C7"/>
  <outline>
    <contour>
      <point x="242" y="-50" type="line" name="hr00"/>
      <point x="242" y="-50"/>
      <point x="227" y="-80"/>
      <point x="227" y="-90" type="curve" smooth="yes"/>
      <point x="227" y="-110"/>
      <point x="242" y="-120"/>
      <point x="267" y="-120" type="curve" smooth="yes"/>
      <point x="287" y="-120" type="line" smooth="yes"/>
      <point x="297" y="-120"/>
      <point x="307" y="-130"/>
      <point x="307" y="-140" type="curve" smooth="yes"/>
      <point x="307" y="-150"/>
      <point x="297" y="-160"/>
      <point x="287" y="-160" type="curve" smooth="yes"/>
      <point x="252" y="-160" type="line" smooth="yes"/>
      <point x="227" y="-160"/>
      <point x="212" y="-175"/>
      <point x="212" y="-200" type="curve" smooth="yes"/>
      <point x="212" y="-225"/>
      <point x="227" y="-240"/>
      <point x="252" y="-240" type="curve" smooth="yes"/>
      <point x="287" y="-240" type="line" smooth="yes"/>
      <point x="352" y="-240"/>
      <point x="397" y="-195"/>
      <point x="397" y="-140" type="curve" smooth="yes"/>
      <point x="397" y="-60"/>
      <point x="307" y="-50"/>
      <point x="307" y="-50" type="curve"/>
      <point x="328" y="-6" type="line"/>
      <point x="406" y="7"/>
      <point x="453" y="58"/>
      <point x="470" y="110" type="curve"/>
      <point x="470" y="110"/>
      <point x="475" y="125"/>
      <point x="475" y="140" type="curve" smooth="yes"/>
      <point x="475" y="170"/>
      <point x="455" y="190"/>
      <point x="430" y="190" type="curve" smooth="yes"/>
      <point x="395" y="190"/>
      <point x="385" y="160"/>
      <point x="385" y="160" type="curve"/>
      <point x="370" y="120"/>
      <point x="340" y="90"/>
      <point x="285" y="90" type="curve" smooth="yes"/>
      <point x="210" y="90"/>
      <point x="160" y="140"/>
      <point x="160" y="350" type="curve" smooth="yes"/>
      <point x="160" y="560"/>
      <point x="210" y="610"/>
      <point x="285" y="610" type="curve" smooth="yes"/>
      <point x="335" y="610"/>
      <point x="365" y="580"/>
      <point x="375" y="550" type="curve"/>
      <point x="375" y="550"/>
      <point x="385" y="520"/>
      <point x="420" y="520" type="curve" smooth="yes"/>
      <point x="445" y="520"/>
      <point x="465" y="540"/>
      <point x="465" y="570" type="curve" smooth="yes"/>
      <point x="465" y="585"/>
      <point x="460" y="600"/>
      <point x="460" y="600" type="curve"/>
      <point x="445" y="650"/>
      <point x="385" y="710"/>
      <point x="285" y="710" type="curve" smooth="yes"/>
      <point x="150" y="710"/>
      <point x="60" y="620"/>
      <point x="60" y="350" type="curve" smooth="yes"/>
      <point x="60" y="96"/>
      <point x="139" y="1"/>
      <point x="261" y="-9" type="curve"/>
    </contour>
  </outline>
</glyph>
<glyph name="multiply" format="1">
  <advance width="370"/>
  <unicode hex="00D7"/>
  <outline>
    <contour>
      <point x="255" y="320" type="line" name="hr00"/>
      <point x="325" y="390" type="line"/>
      <point x="325" y="390"/>
      <point x="340" y="404"/>
      <point x="340" y="425" type="curve" smooth="yes"/>
      <point x="340" y="455"/>
      <point x="320" y="475"/>
      <point x="290" y="475" type="curve" smooth="yes"/>
      <point x="270" y="475"/>
      <point x="255" y="460"/>
      <point x="255" y="460" type="curve"/>
      <point x="185" y="390" type="line"/>
      <point x="115" y="460" type="line"/>
      <point x="115" y="460"/>
      <point x="100" y="475"/>
      <point x="80" y="475" type="curve" smooth="yes"/>
      <point x="50" y="475"/>
      <point x="30" y="455"/>
      <point x="30" y="425" type="curve" smooth="yes"/>
      <point x="30" y="404"/>
      <point x="45" y="390"/>
      <point x="45" y="390" type="curve"/>
      <point x="115" y="320" type="line"/>
      <point x="45" y="250" type="line"/>
      <point x="45" y="250"/>
      <point x="30" y="236"/>
      <point x="30" y="215" type="curve" smooth="yes"/>
      <point x="30" y="185"/>
      <point x="50" y="165"/>
      <point x="80" y="165" type="curve" smooth="yes"/>
      <point x="100" y="165"/>
      <point x="115" y="180"/>
      <point x="115" y="180" type="curve"/>
      <point x="185" y="250" type="line"/>
      <point x="255" y="180" type="line"/>
      <point x="255" y="180"/>
      <point x="270" y="165"/>
      <point x="290" y="165" type="curve" smooth="yes"/>
      <point x="320" y="165"/>
      <point x="340" y="185"/>
      <point x="340" y="215" type="curve" smooth="yes"/>
      <point x="340" y="236"/>
      <point x="325" y="250"/>
      <point x="325" y="250" type="curve"/>
    </contour>
  </outline>
</glyph>
<glyph name="Oslash" format="1">
  <advance width="560"/>
  <unicode hex="00D8"/>
  <outline>
    <contour>
      <point x="364" y="569" type="line" name="hr00"/>
      <point x="160" y="235" type="line"/>
      <point x="160" y="235"/>
      <point x="155" y="300"/>
      <point x="155" y="350" type="curve" smooth="yes"/>
      <point x="155" y="560"/>
      <point x="205" y="610"/>
      <point x="280" y="610" type="curve" smooth="yes"/>
      <point x="340" y="610"/>
      <point x="365" y="570"/>
      <point x="365" y="570" type="curve"/>
    </contour>
    <contour>
      <point x="405" y="350" type="curve" smooth="yes"/>
      <point x="405" y="140"/>
      <point x="355" y="90"/>
      <point x="280" y="90" type="curve" smooth="yes"/>
      <point x="220" y="90"/>
      <point x="195" y="130"/>
      <point x="195" y="130" type="curve"/>
      <point x="398" y="462" type="line" smooth="yes"/>
      <point x="400" y="465"/>
      <point x="405" y="400"/>
    </contour>
    <contour>
      <point x="505" y="350" type="curve" smooth="yes"/>
      <point x="505" y="520"/>
      <point x="470" y="580"/>
      <point x="470" y="580" type="curve"/>
      <point x="495" y="620" type="line"/>
      <point x="495" y="620"/>
      <point x="510" y="640"/>
      <point x="510" y="655" type="curve" smooth="yes"/>
      <point x="510" y="680"/>
      <point x="490" y="700"/>
      <point x="465" y="700" type="curve" smooth="yes"/>
      <point x="440" y="700"/>
      <point x="425" y="670"/>
      <point x="425" y="670" type="curve"/>
      <point x="420" y="660" type="line"/>
      <point x="420" y="660"/>
      <point x="375" y="710"/>
      <point x="280" y="710" type="curve" smooth="yes"/>
      <point x="145" y="710"/>
      <point x="55" y="620"/>
      <point x="55" y="350" type="curve" smooth="yes"/>
      <point x="55" y="180"/>
      <point x="90" y="120"/>
      <point x="90" y="120" type="curve"/>
      <point x="65" y="80" type="line"/>
      <point x="65" y="80"/>
      <point x="50" y="60"/>
      <point x="50" y="45" type="curve" smooth="yes"/>
      <point x="50" y="20"/>
      <point x="70" y="0"/>
      <point x="95" y="0" type="curve" smooth="yes"/>
      <point x="120" y="0"/>
      <point x="135" y="30"/>
      <point x="135" y="30" type="curve"/>
      <point x="140" y="40" type="line"/>
      <point x="140" y="40"/>
      <point x="185" y="-10"/>
      <point x="280" y="-10" type="curve" smooth="yes"/>
      <point x="415" y="-10"/>
      <point x="505" y="80"/>
    </contour>
  </outline>
</glyph>
<glyph name="Thorn" format="1">
  <advance width="510"/>
  <unicode hex="00DE"/>
  <outline>
    <contour>
      <point x="130" y="710" type="curve" name="hr00"/>
      <point x="105" y="710"/>
      <point x="80" y="685"/>
      <point x="80" y="660" type="curve" smooth="yes"/>
      <point x="80" y="40" type="line" smooth="yes"/>
      <point x="80" y="15"/>
      <point x="105" y="-10"/>
      <point x="130" y="-10" type="curve" smooth="yes"/>
      <point x="155" y="-10"/>
      <point x="180" y="15"/>
      <point x="180" y="40" type="curve" smooth="yes"/>
      <point x="180" y="90" type="line"/>
      <point x="370" y="110"/>
      <point x="460" y="200"/>
      <point x="460" y="350" type="curve" smooth="yes"/>
      <point x="460" y="500"/>
      <point x="370" y="590"/>
      <point x="180" y="610" type="curve"/>
      <point x="180" y="660" type="line" smooth="yes"/>
      <point x="180" y="685"/>
      <point x="155" y="710"/>
    </contour>
    <contour>
      <point x="180" y="510" type="line"/>
      <point x="300" y="500"/>
      <point x="360" y="440"/>
      <point x="360" y="350" type="curve" smooth="yes"/>
      <point x="360" y="260"/>
      <point x="300" y="200"/>
      <point x="180" y="190" type="curve"/>
    </contour>
  </outline>
</glyph>
<glyph name="germandbls" format="1">
  <advance width="475"/>
  <unicode hex="00DF"/>
  <outline>
    <contour>
      <point x="275" y="90" type="curve" smooth="yes" name="hr00"/>
      <point x="250" y="90"/>
      <point x="230" y="70"/>
      <point x="230" y="45" type="curve" smooth="yes"/>
      <point x="230" y="20"/>
      <point x="250" y="0"/>
      <point x="275" y="0" type="curve" smooth="yes"/>
      <point x="375" y="0"/>
      <point x="445" y="70"/>
      <point x="445" y="170" type="curve" smooth="yes"/>
      <point x="445" y="300"/>
      <point x="300" y="310"/>
      <point x="300" y="390" type="curve" smooth="yes"/>
      <point x="300" y="440"/>
      <point x="390" y="470"/>
      <point x="390" y="550" type="curve" smooth="yes"/>
      <point x="390" y="640"/>
      <point x="330" y="700"/>
      <point x="240" y="700" type="curve" smooth="yes"/>
      <point x="140" y="700"/>
      <point x="70" y="630"/>
      <point x="70" y="530" type="curve" smooth="yes"/>
      <point x="70" y="45" type="line" smooth="yes"/>
      <point x="70" y="20"/>
      <point x="90" y="0"/>
      <point x="115" y="0" type="curve" smooth="yes"/>
      <point x="140" y="0"/>
      <point x="160" y="20"/>
      <point x="160" y="45" type="curve" smooth="yes"/>
      <point x="160" y="530" type="line" smooth="yes"/>
      <point x="160" y="580"/>
      <point x="190" y="610"/>
      <point x="240" y="610" type="curve" smooth="yes"/>
      <point x="280" y="610"/>
      <point x="300" y="590"/>
      <point x="300" y="550" type="curve" smooth="yes"/>
      <point x="300" y="500"/>
      <point x="210" y="470"/>
      <point x="210" y="390" type="curve" smooth="yes"/>
      <point x="210" y="260"/>
      <point x="355" y="250"/>
      <point x="355" y="170" type="curve" smooth="yes"/>
      <point x="355" y="120"/>
      <point x="325" y="90"/>
    </contour>
  </outline>
</glyph>
<glyph name="ae" format="1">
  <advance width="710"/>
  <unicode hex="00E6"/>
  <outline>
    <contour>
      <point x="295" y="140" type="line" name="hr00"/>
      <point x="295" y="140"/>
      <point x="255" y="80"/>
      <point x="195" y="80" type="curve" smooth="yes"/>
      <point x="155" y="80"/>
      <point x="125" y="110"/>
      <point x="125" y="160" type="curve" smooth="yes"/>
      <point x="125" y="210"/>
      <point x="155" y="240"/>
      <point x="205" y="240" type="curve" smooth="yes"/>
      <point x="255" y="240"/>
      <point x="295" y="225"/>
      <point x="295" y="225" type="curve"/>
    </contour>
    <contour>
      <point x="385" y="310" type="line"/>
      <point x="390" y="410"/>
      <point x="430" y="450"/>
      <point x="480" y="450" type="curve" smooth="yes"/>
      <point x="530" y="450"/>
      <point x="570" y="410"/>
      <point x="575" y="310" type="curve"/>
    </contour>
    <contour>
      <point x="195" y="-10" type="curve" smooth="yes"/>
      <point x="295" y="-10"/>
      <point x="340" y="70"/>
      <point x="340" y="70" type="curve"/>
      <point x="340" y="70"/>
      <point x="385" y="-10"/>
      <point x="485" y="-10" type="curve" smooth="yes"/>
      <point x="575" y="-10"/>
      <point x="620" y="35"/>
      <point x="645" y="90" type="curve"/>
      <point x="645" y="90"/>
      <point x="650" y="100"/>
      <point x="650" y="120" type="curve" smooth="yes"/>
      <point x="650" y="145"/>
      <point x="630" y="165"/>
      <point x="605" y="165" type="curve" smooth="yes"/>
      <point x="575" y="165"/>
      <point x="565" y="140"/>
      <point x="565" y="140" type="curve"/>
      <point x="555" y="110"/>
      <point x="525" y="80"/>
      <point x="485" y="80" type="curve" smooth="yes"/>
      <point x="430" y="80"/>
      <point x="390" y="120"/>
      <point x="385" y="220" type="curve"/>
      <point x="625" y="220" type="line" smooth="yes"/>
      <point x="645" y="220"/>
      <point x="665" y="240"/>
      <point x="665" y="260" type="curve" smooth="yes"/>
      <point x="665" y="460"/>
      <point x="585" y="540"/>
      <point x="480" y="540" type="curve" smooth="yes"/>
      <point x="385" y="540"/>
      <point x="350" y="480"/>
      <point x="350" y="480" type="curve"/>
      <point x="350" y="480"/>
      <point x="305" y="540"/>
      <point x="215" y="540" type="curve" smooth="yes"/>
      <point x="160" y="540"/>
      <point x="110" y="510"/>
      <point x="110" y="510" type="curve"/>
      <point x="110" y="510"/>
      <point x="80" y="495"/>
      <point x="80" y="470" type="curve" smooth="yes"/>
      <point x="80" y="445"/>
      <point x="100" y="425"/>
      <point x="120" y="425" type="curve" smooth="yes"/>
      <point x="135" y="425"/>
      <point x="145" y="430"/>
      <point x="145" y="430" type="curve"/>
      <point x="145" y="430"/>
      <point x="180" y="450"/>
      <point x="215" y="450" type="curve" smooth="yes"/>
      <point x="260" y="450"/>
      <point x="295" y="415"/>
      <point x="295" y="370" type="curve" smooth="yes"/>
      <point x="295" y="315" type="line"/>
      <point x="295" y="315"/>
      <point x="255" y="330"/>
      <point x="205" y="330" type="curve" smooth="yes"/>
      <point x="105" y="330"/>
      <point x="35" y="260"/>
      <point x="35" y="160" type="curve" smooth="yes"/>
      <point x="35" y="50"/>
      <point x="95" y="-10"/>
    </contour>
  </outline>
</glyph>
<glyph name="ccedilla" format="1">
  <advance width="435"/>
  <unicode hex="00E7"/>
  <outline>
    <contour>
      <point x="187" y="-50" type="line" name="hr00"/>
      <point x="187" y="-50"/>
      <point x="172" y="-80"/>
      <point x="172" y="-90" type="curve" smooth="yes"/>
      <point x="172" y="-110"/>
      <point x="187" y="-120"/>
      <point x="212" y="-120" type="curve" smooth="yes"/>
      <point x="232" y="-120" type="line" smooth="yes"/>
      <point x="242" y="-120"/>
      <point x="252" y="-130"/>
      <point x="252" y="-140" type="curve" smooth="yes"/>
      <point x="252" y="-150"/>
      <point x="242" y="-160"/>
      <point x="232" y="-160" type="curve" smooth="yes"/>
      <point x="197" y="-160" type="line" smooth="yes"/>
      <point x="172" y="-160"/>
      <point x="157" y="-175"/>
      <point x="157" y="-200" type="curve" smooth="yes"/>
      <point x="157" y="-225"/>
      <point x="172" y="-240"/>
      <point x="197" y="-240" type="curve" smooth="yes"/>
      <point x="232" y="-240" type="line" smooth="yes"/>
      <point x="297" y="-240"/>
      <point x="342" y="-195"/>
      <point x="342" y="-140" type="curve" smooth="yes"/>
      <point x="342" y="-60"/>
      <point x="252" y="-50"/>
      <point x="252" y="-50" type="curve"/>
      <point x="272" y="-8" type="line"/>
      <point x="341" y="1"/>
      <point x="378" y="42"/>
      <point x="400" y="90" type="curve"/>
      <point x="400" y="90"/>
      <point x="405" y="100"/>
      <point x="405" y="120" type="curve" smooth="yes"/>
      <point x="405" y="145"/>
      <point x="385" y="165"/>
      <point x="360" y="165" type="curve" smooth="yes"/>
      <point x="330" y="165"/>
      <point x="320" y="140"/>
      <point x="320" y="140" type="curve"/>
      <point x="310" y="110"/>
      <point x="280" y="80"/>
      <point x="240" y="80" type="curve" smooth="yes"/>
      <point x="180" y="80"/>
      <point x="140" y="120"/>
      <point x="140" y="265" type="curve" smooth="yes"/>
      <point x="140" y="410"/>
      <point x="180" y="450"/>
      <point x="240" y="450" type="curve" smooth="yes"/>
      <point x="275" y="450"/>
      <point x="305" y="420"/>
      <point x="310" y="400" type="curve"/>
      <point x="310" y="400"/>
      <point x="320" y="375"/>
      <point x="350" y="375" type="curve" smooth="yes"/>
      <point x="375" y="375"/>
      <point x="395" y="395"/>
      <point x="395" y="420" type="curve" smooth="yes"/>
      <point x="395" y="440"/>
      <point x="390" y="450"/>
      <point x="390" y="450" type="curve"/>
      <point x="370" y="495"/>
      <point x="325" y="540"/>
      <point x="240" y="540" type="curve" smooth="yes"/>
      <point x="130" y="540"/>
      <point x="50" y="460"/>
      <point x="50" y="265" type="curve" smooth="yes"/>
      <point x="50" y="90"/>
      <point x="114" y="7"/>
      <point x="207" y="-7" type="curve"/>
    </contour>
  </outline>
</glyph>
